SplineFontDB: 3.0
FontName: PassionOne-Bold
FullName: Passion One Bold
FamilyName: Passion One
Weight: Bold
Copyright: Copyright (c) 2011 Fontstage (info@fontstage.com), with Reserved Font Name "Passion"
Version: 001.001
ItalicAngle: 0
UnderlinePosition: -50
UnderlineWidth: 50
Ascent: 800
Descent: 200
sfntRevision: 0x00010042
LayerCount: 2
Layer: 0 1 "Back"  1
Layer: 1 1 "Fore"  0
NeedsXUIDChange: 1
XUID: [1021 288 713564382 2251080]
FSType: 0
OS2Version: 2
OS2_WeightWidthSlopeOnly: 0
OS2_UseTypoMetrics: 1
CreationTime: 1323105130
ModificationTime: 1323135773
PfmFamily: 17
TTFWeight: 700
TTFWidth: 5
LineGap: 0
VLineGap: 0
Panose: 2 0 5 6 5 0 0 2 0 4
OS2TypoAscent: 35
OS2TypoAOffset: 1
OS2TypoDescent: -66
OS2TypoDOffset: 1
OS2TypoLinegap: 0
OS2WinAscent: 3
OS2WinAOffset: 1
OS2WinDescent: 85
OS2WinDOffset: 1
HheadAscent: 3
HheadAOffset: 1
HheadDescent: -85
HheadDOffset: 1
OS2SubXSize: 700
OS2SubYSize: 650
OS2SubXOff: 0
OS2SubYOff: 140
OS2SupXSize: 700
OS2SupYSize: 650
OS2SupXOff: 0
OS2SupYOff: 477
OS2StrikeYSize: 50
OS2StrikeYPos: 250
OS2Vendor: 'PYRS'
OS2CodePages: 20000001.00000000
OS2UnicodeRanges: 800000ef.4000204a.00000000.00000000
MarkAttachClasses: 1
DEI: 91125
TtTable: prep
PUSHW_1
 511
SCANCTRL
PUSHB_1
 4
SCANTYPE
EndTTInstrs
LangName: 1033 "" "" "" "Fontstage: Passion One Bold: 2011" "PassionOne-Bold" "Version 1.001" "" "Passion is a trademark of Fontstage." "Fontstage" "Alejandro Lo Celso" "" "www.fontstage.com" "www.fontstage.com" "This Font Software is licensed under the SIL Open Font License, Version 1.1. This license is available with a FAQ at: http://scripts.sil.org/OFL" "http://scripts.sil.org/OFL" 
GaspTable: 1 65535 15
Encoding: UnicodeBmp
UnicodeInterp: none
NameList: Adobe Glyph List
DisplaySize: -36
AntiAlias: 1
FitToEm: 1
WinInfo: 34 34 12
BeginPrivate: 8
BlueValues 23 [-10 0 479 491 621 631]
OtherBlues 11 [-147 -137]
BlueScale 8 0.045455
StdHW 5 [131]
StdVW 5 [147]
StemSnapH 9 [131 161]
StemSnapV 9 [147 190]
ForceBold 4 true
EndPrivate

StartChar: A
Encoding: 65 65 1
Width: 563
Flags: HMW
HStem: 0 21G<0 201 0 0 353 563 353 353> 601 20G<129 434 434 434>
LayerCount: 2
Fore
SplineSet
563 0 m 1,0,-1
 353 0 l 1,1,-1
 333 96 l 1,2,-1
 222 96 l 1,3,-1
 201 0 l 1,4,-1
 0 0 l 1,5,-1
 129 621 l 1,6,-1
 434 621 l 1,7,-1
 563 0 l 1,0,-1
318 225 m 1,8,-1
 280 433 l 1,9,-1
 276 433 l 1,10,-1
 237 225 l 1,11,-1
 318 225 l 1,8,-1
EndSplineSet
EndChar

StartChar: B
Encoding: 66 66 2
Width: 563
Flags: HMW
HStem: 0 124<253 282 282 299.5 253 323> 601 20G<40 319 319 393.5>
LayerCount: 2
Fore
SplineSet
549 182 m 0,0,1
 549 0 549 0 323 0 c 2,2,-1
 40 0 l 1,3,-1
 40 621 l 1,4,-1
 319 621 l 2,5,6
 431 621 431 621 484.5 581 c 128,-1,7
 538 541 538 541 538 458 c 128,-1,8
 538 375 538 375 468 330 c 1,9,-1
 468 326 l 1,10,11
 549 289 549 289 549 182 c 0,0,1
318 135.5 m 128,-1,13
 327 147 327 147 327 184 c 128,-1,14
 327 221 327 221 317.5 236.5 c 128,-1,15
 308 252 308 252 282 252 c 2,16,-1
 253 252 l 1,17,-1
 253 124 l 1,18,-1
 282 124 l 2,19,12
 309 124 309 124 318 135.5 c 128,-1,13
309.5 374 m 128,-1,21
 318 386 318 386 318 415.5 c 128,-1,22
 318 445 318 445 309.5 458 c 128,-1,23
 301 471 301 471 282 471 c 2,24,-1
 253 471 l 1,25,-1
 253 362 l 1,26,-1
 283 362 l 2,27,20
 301 362 301 362 309.5 374 c 128,-1,21
EndSplineSet
EndChar

StartChar: C
Encoding: 67 67 3
Width: 465
Flags: HMW
HStem: -10 168<284 320> 448 183<282.5 325>
LayerCount: 2
Fore
SplineSet
253 192.5 m 128,-1,1
 270 158 270 158 310 158 c 128,-1,2
 350 158 350 158 443 180 c 1,3,-1
 475 21 l 1,4,5
 377 -10 377 -10 286 -10 c 0,6,7
 147 -10 147 -10 83.5 69.5 c 128,-1,8
 20 149 20 149 20 306.5 c 128,-1,9
 20 464 20 464 86 547.5 c 128,-1,10
 152 631 152 631 301 631 c 0,11,12
 388 631 388 631 475 597 c 1,13,-1
 442 419 l 1,14,15
 343 448 343 448 306.5 448 c 128,-1,16
 270 448 270 448 253 413.5 c 128,-1,17
 236 379 236 379 236 303 c 128,-1,0
 236 227 236 227 253 192.5 c 128,-1,1
EndSplineSet
EndChar

StartChar: D
Encoding: 68 68 4
Width: 599
Flags: HMW
HStem: 0 156<253 278 278 281> 458 163<253 274 253 253>
LayerCount: 2
Fore
SplineSet
577 324 m 0,0,1
 577 0 577 0 281 0 c 2,2,-1
 40 0 l 1,3,-1
 40 621 l 1,4,-1
 286 621 l 2,5,6
 445 621 445 621 511 544.5 c 128,-1,7
 577 468 577 468 577 324 c 0,0,1
344 191 m 128,-1,9
 359 226 359 226 359 307.5 c 128,-1,10
 359 389 359 389 342.5 423.5 c 128,-1,11
 326 458 326 458 274 458 c 2,12,-1
 253 458 l 1,13,-1
 253 156 l 1,14,-1
 278 156 l 2,15,8
 329 156 329 156 344 191 c 128,-1,9
EndSplineSet
EndChar

StartChar: E
Encoding: 69 69 5
Width: 461
Flags: HMW
HStem: 0 152<254 436> 237 144<254 413 254 413> 456 165<254 436 254 254>
LayerCount: 2
Fore
SplineSet
436 0 m 1,0,-1
 40 0 l 1,1,-1
 40 621 l 1,2,-1
 450 621 l 1,3,-1
 436 456 l 1,4,-1
 254 456 l 1,5,-1
 254 381 l 1,6,-1
 413 381 l 1,7,-1
 413 237 l 1,8,-1
 254 237 l 1,9,-1
 254 152 l 1,10,-1
 450 152 l 1,11,-1
 436 0 l 1,0,-1
EndSplineSet
EndChar

StartChar: F
Encoding: 70 70 6
Width: 440
Flags: HMW
HStem: 0 21G<40 254 40 40> 456 165<254 436 254 254>
LayerCount: 2
Fore
SplineSet
436 456 m 1,0,-1
 254 456 l 1,1,-1
 254 371 l 1,2,-1
 392 371 l 1,3,-1
 392 227 l 1,4,-1
 254 227 l 1,5,-1
 254 0 l 1,6,-1
 40 0 l 1,7,-1
 40 621 l 1,8,-1
 450 621 l 1,9,-1
 436 456 l 1,0,-1
EndSplineSet
EndChar

StartChar: G
Encoding: 71 71 7
Width: 592
Flags: HMW
HStem: -10 163<281 285.5> 0 21G<397 548 397 397> 443 188<282.5 338>
LayerCount: 2
Fore
SplineSet
314 153 m 0,0,1
 332 153 332 153 362 159 c 1,2,-1
 362 219 l 1,3,-1
 312 219 l 1,4,-1
 312 357 l 1,5,-1
 548 357 l 1,6,-1
 548 0 l 1,7,-1
 397 0 l 1,8,-1
 382 32 l 1,9,-1
 378 32 l 1,10,11
 326 -10 326 -10 255 -10 c 0,12,13
 21 -10 21 -10 21 306 c 0,14,15
 21 464 21 464 84.5 547.5 c 128,-1,16
 148 631 148 631 299 631 c 0,17,18
 411 631 411 631 511 600 c 1,19,-1
 478 412 l 1,20,21
 366 443 366 443 317.5 443 c 128,-1,22
 269 443 269 443 253.5 411 c 128,-1,23
 238 379 238 379 238 302 c 128,-1,24
 238 225 238 225 252.5 189 c 128,-1,25
 267 153 267 153 314 153 c 0,0,1
EndSplineSet
EndChar

StartChar: H
Encoding: 72 72 8
Width: 613
Flags: HMW
HStem: 0 21G<40 254 40 40 362 573 362 362> 601 20G<40 254 254 254 362 573 573 573>
LayerCount: 2
Fore
SplineSet
573 0 m 1,0,-1
 362 0 l 1,1,-1
 362 219 l 1,2,-1
 254 219 l 1,3,-1
 254 0 l 1,4,-1
 40 0 l 1,5,-1
 40 621 l 1,6,-1
 254 621 l 1,7,-1
 254 389 l 1,8,-1
 362 389 l 1,9,-1
 362 621 l 1,10,-1
 573 621 l 1,11,-1
 573 0 l 1,0,-1
EndSplineSet
EndChar

StartChar: I
Encoding: 73 73 9
Width: 303
Flags: HMW
HStem: 0 21G<46 257 46 46> 601 20G<46 257 257 257>
LayerCount: 2
Fore
SplineSet
257 0 m 1,0,-1
 46 0 l 1,1,-1
 46 621 l 1,2,-1
 257 621 l 1,3,-1
 257 0 l 1,0,-1
EndSplineSet
EndChar

StartChar: J
Encoding: 74 74 10
Width: 326
Flags: HMW
HStem: -10 148<15 54 54 61.5 4 88 15 15> 601 20G<72 282 282 282>
LayerCount: 2
Fore
SplineSet
282 621 m 1,0,-1
 282 130 l 2,1,2
 282 50 282 50 241 20 c 128,-1,3
 200 -10 200 -10 88 -10 c 2,4,-1
 15 -10 l 1,5,-1
 4 138 l 1,6,-1
 54 138 l 2,7,8
 65 138 65 138 68.5 142 c 128,-1,9
 72 146 72 146 72 155 c 2,10,-1
 72 621 l 1,11,-1
 282 621 l 1,0,-1
EndSplineSet
EndChar

StartChar: K
Encoding: 75 75 11
Width: 552
Flags: HMW
HStem: 0 21G<40 243 40 40 317 552 317 317> 601 20G<40 243 243 243 333 562 562 562>
LayerCount: 2
Fore
SplineSet
552 0 m 1,0,-1
 317 0 l 1,1,-1
 254 206 l 1,2,-1
 243 206 l 1,3,-1
 243 0 l 1,4,-1
 40 0 l 1,5,-1
 40 621 l 1,6,-1
 243 621 l 1,7,-1
 243 375 l 1,8,-1
 254 375 l 1,9,-1
 333 621 l 1,10,-1
 562 621 l 1,11,-1
 433 298 l 1,12,-1
 552 0 l 1,0,-1
EndSplineSet
EndChar

StartChar: L
Encoding: 76 76 12
Width: 413
Flags: HMW
HStem: 0 161<254 413> 601 20G<40 254 254 254>
LayerCount: 2
Fore
SplineSet
413 0 m 1,0,-1
 40 0 l 1,1,-1
 40 621 l 1,2,-1
 254 621 l 1,3,-1
 254 161 l 1,4,-1
 427 161 l 1,5,-1
 413 0 l 1,0,-1
EndSplineSet
EndChar

StartChar: M
Encoding: 77 77 13
Width: 754
Flags: HMW
HStem: 0 21G<38 225 38 38 288 463 288 288 527 716 527 527> 601 20G<62 328 328 328 430 693 693 693>
VStem: 50 175 527 177
LayerCount: 2
Fore
SplineSet
716 0 m 1,0,-1
 527 0 l 1,1,-1
 527 296 l 1,2,-1
 522 296 l 1,3,-1
 463 0 l 1,4,-1
 288 0 l 1,5,-1
 230 296 l 1,6,-1
 225 296 l 1,7,-1
 225 0 l 1,8,-1
 38 0 l 1,9,-1
 62 621 l 1,10,-1
 328 621 l 1,11,-1
 375 340 l 1,12,-1
 384 340 l 1,13,-1
 430 621 l 1,14,-1
 693 621 l 1,15,-1
 716 0 l 1,0,-1
EndSplineSet
EndChar

StartChar: N
Encoding: 78 78 14
Width: 607
Flags: HMW
HStem: 0 21G<40 230 40 40 363 567 363 363> 601 20G<40 251 251 251 375 567 567 567>
VStem: 40 190<0 245 0 621> 375 192<368 621>
LayerCount: 2
Fore
SplineSet
567 0 m 1,0,-1
 363 0 l 1,1,-1
 237 245 l 1,2,-1
 230 245 l 1,3,-1
 230 0 l 1,4,-1
 40 0 l 1,5,-1
 40 621 l 1,6,-1
 251 621 l 1,7,-1
 369 368 l 1,8,-1
 375 368 l 1,9,-1
 375 621 l 1,10,-1
 567 621 l 1,11,-1
 567 0 l 1,0,-1
EndSplineSet
EndChar

StartChar: O
Encoding: 79 79 15
Width: 609
Flags: HMW
HStem: -10 159<278.5 338.5 278.5 405> 459 172<275.5 334>
LayerCount: 2
Fore
SplineSet
86.5 556 m 128,-1,1
 153 631 153 631 305.5 631 c 128,-1,2
 458 631 458 631 523.5 557 c 128,-1,3
 589 483 589 483 589 316.5 c 128,-1,4
 589 150 589 150 521.5 70 c 128,-1,5
 454 -10 454 -10 303.5 -10 c 128,-1,6
 153 -10 153 -10 86.5 69 c 128,-1,7
 20 148 20 148 20 314.5 c 128,-1,0
 20 481 20 481 86.5 556 c 128,-1,1
305 459 m 128,-1,9
 262 459 262 459 250 434 c 128,-1,10
 238 409 238 409 238 327 c 2,11,-1
 238 283 l 2,12,13
 238 199 238 199 251 174 c 128,-1,14
 264 149 264 149 308 149 c 128,-1,15
 352 149 352 149 363 173 c 128,-1,16
 374 197 374 197 374 280 c 2,17,-1
 374 326 l 2,18,19
 374 408 374 408 361 433.5 c 128,-1,8
 348 459 348 459 305 459 c 128,-1,9
EndSplineSet
EndChar

StartChar: P
Encoding: 80 80 16
Width: 525
Flags: HMW
HStem: 0 21G<40 250 40 40> 601 20G<40 282 282 363>
LayerCount: 2
Fore
SplineSet
293 194 m 2,0,-1
 250 194 l 1,1,-1
 250 0 l 1,2,-1
 40 0 l 1,3,-1
 40 621 l 1,4,-1
 282 621 l 2,5,6
 405 621 405 621 461 571 c 128,-1,7
 517 521 517 521 517 406 c 128,-1,8
 517 291 517 291 463 242.5 c 128,-1,9
 409 194 409 194 293 194 c 2,0,-1
312 393 m 128,-1,11
 312 431 312 431 302.5 447 c 128,-1,12
 293 463 293 463 267 463 c 2,13,-1
 246 463 l 1,14,-1
 246 323 l 1,15,-1
 272 323 l 2,16,17
 295 323 295 323 303.5 339 c 128,-1,10
 312 355 312 355 312 393 c 128,-1,11
EndSplineSet
EndChar

StartChar: Q
Encoding: 81 81 17
Width: 613
Flags: HMW
HStem: -103 141<520 551 551 593> -10 159<276.5 300> 459 172<273.5 332>
LayerCount: 2
Fore
SplineSet
304 631 m 128,-1,1
 456 631 456 631 521.5 557 c 128,-1,2
 587 483 587 483 587 320 c 0,3,4
 587 209 587 209 558.5 145.5 c 128,-1,5
 530 82 530 82 464 42 c 1,6,-1
 464 38 l 1,7,-1
 606 38 l 1,8,-1
 593 -103 l 1,9,-1
 551 -103 l 2,10,11
 454 -103 454 -103 389 -64 c 2,12,-1
 300 -10 l 1,13,14
 147 -10 147 -10 82.5 71.5 c 128,-1,15
 18 153 18 153 18 317 c 0,16,17
 18 481 18 481 85 556 c 128,-1,0
 152 631 152 631 304 631 c 128,-1,1
303 459 m 128,-1,19
 260 459 260 459 248 434 c 128,-1,20
 236 409 236 409 236 327 c 2,21,-1
 236 283 l 2,22,23
 236 199 236 199 249 174 c 128,-1,24
 262 149 262 149 306 149 c 0,25,26
 350 149 350 149 361 173 c 128,-1,27
 372 197 372 197 372 280 c 2,28,-1
 372 326 l 2,29,30
 372 408 372 408 359 433.5 c 128,-1,18
 346 459 346 459 303 459 c 128,-1,19
EndSplineSet
EndChar

StartChar: R
Encoding: 82 82 18
Width: 563
Flags: HMW
HStem: 0 21G<40 245 40 40 323 544 323 323> 601 20G<40 305 305 382>
LayerCount: 2
Fore
SplineSet
531 421 m 0,0,1
 531 361 531 361 511.5 325.5 c 128,-1,2
 492 290 492 290 451 263 c 1,3,-1
 544 0 l 1,4,-1
 323 0 l 1,5,-1
 261 214 l 1,6,-1
 245 214 l 1,7,-1
 245 0 l 1,8,-1
 40 0 l 1,9,-1
 40 621 l 1,10,-1
 305 621 l 2,11,12
 421 621 421 621 476 572.5 c 128,-1,13
 531 524 531 524 531 421 c 0,0,1
298.5 349.5 m 128,-1,15
 308 363 308 363 308 397 c 128,-1,16
 308 431 308 431 298 444 c 128,-1,17
 288 457 288 457 267 457 c 2,18,-1
 241 457 l 1,19,-1
 241 336 l 1,20,-1
 266 336 l 2,21,14
 289 336 289 336 298.5 349.5 c 128,-1,15
EndSplineSet
EndChar

StartChar: S
Encoding: 83 83 19
Width: 483
Flags: HMW
HStem: -10 162<202 233.5 202 317> 460 171<258 278 166.5 287>
LayerCount: 2
Fore
SplineSet
70 576 m 128,-1,1
 130 631 130 631 236.5 631 c 128,-1,2
 343 631 343 631 456 611 c 1,3,-1
 433 435 l 1,4,5
 308 460 308 460 269 460 c 128,-1,6
 230 460 230 460 230 436 c 0,7,8
 230 426.666666667 230 426.666666667 236 423.333333333 c 128,-1,9
 242 420 242 420 245 418 c 128,-1,10
 248 416 248 416 256.5 413 c 128,-1,11
 265 410 265 410 270.5 407.5 c 128,-1,12
 276 405 276 405 306.5 392.5 c 128,-1,13
 337 380 337 380 352.5 372.5 c 128,-1,14
 368 365 368 365 395 347.5 c 0,15,16
 473 296.944444444 473 296.944444444 473 197.972222222 c 128,-1,17
 473 99 473 99 414 44.5 c 128,-1,18
 355 -10 355 -10 244.5 -10 c 128,-1,19
 134 -10 134 -10 28 17 c 1,20,-1
 42 186 l 1,21,22
 176 152 176 152 223 152 c 0,23,24
 254 152 254 152 254 174 c 0,25,26
 254 184 254 184 246.5 190 c 128,-1,27
 239 196 239 196 224.5 203 c 128,-1,28
 210 210 210 210 182 221.5 c 128,-1,29
 154 233 154 233 135 241.5 c 128,-1,30
 116 250 116 250 90.5 267.5 c 0,31,32
 10 322.745098039 10 322.745098039 10 421.87254902 c 128,-1,0
 10 521 10 521 70 576 c 128,-1,1
EndSplineSet
EndChar

StartChar: T
Encoding: 84 84 20
Width: 476
Flags: HMW
HStem: 0 21G<129 342 129 129> 452 169<-1 129 -10 486 342 474 342 342>
LayerCount: 2
Fore
SplineSet
474 452 m 1,0,-1
 342 452 l 1,1,-1
 342 0 l 1,2,-1
 129 0 l 1,3,-1
 129 452 l 1,4,-1
 -10 452 l 1,5,-1
 -1 621 l 1,6,-1
 486 621 l 1,7,-1
 474 452 l 1,0,-1
EndSplineSet
EndChar

StartChar: U
Encoding: 85 85 21
Width: 613
Flags: HMW
HStem: -10 176<291.5 326.5 291.5 388> 601 20G<42 260 260 260 357 571 571 571>
LayerCount: 2
Fore
SplineSet
260 220 m 2,0,1
 260 166 260 166 308.5 166 c 128,-1,2
 357 166 357 166 357 221 c 2,3,-1
 357 621 l 1,4,-1
 571 621 l 1,5,-1
 571 208 l 2,6,7
 571 98 571 98 502 44 c 128,-1,8
 433 -10 433 -10 304 -10 c 0,9,10
 42 -10 42 -10 42 206 c 2,11,-1
 42 621 l 1,12,-1
 260 621 l 1,13,-1
 260 220 l 2,0,1
EndSplineSet
EndChar

StartChar: V
Encoding: 86 86 22
Width: 574
Flags: HMW
HStem: 0 21G<137 444 137 137> 601 20G<10 241 241 241 344 564 564 564>
LayerCount: 2
Fore
SplineSet
564 621 m 1,0,-1
 444 0 l 1,1,-1
 137 0 l 1,2,-1
 10 621 l 1,3,-1
 241 621 l 1,4,-1
 289 240 l 1,5,-1
 301 240 l 1,6,-1
 344 621 l 1,7,-1
 564 621 l 1,0,-1
EndSplineSet
EndChar

StartChar: W
Encoding: 87 87 23
Width: 754
Flags: HMW
HStem: 0 21G<97 335 97 97 430 668 430 430> 601 20G<20 216 216 216 288 477 477 477 545 734 734 734>
LayerCount: 2
Fore
SplineSet
734 621 m 1,0,-1
 668 0 l 1,1,-1
 430 0 l 1,2,-1
 383 252 l 1,3,-1
 375 252 l 1,4,-1
 335 0 l 1,5,-1
 97 0 l 1,6,-1
 20 621 l 1,7,-1
 216 621 l 1,8,-1
 241 336 l 1,9,-1
 250 336 l 1,10,-1
 288 621 l 1,11,-1
 477 621 l 1,12,-1
 519 336 l 1,13,-1
 526 336 l 1,14,-1
 545 621 l 1,15,-1
 734 621 l 1,0,-1
EndSplineSet
EndChar

StartChar: X
Encoding: 88 88 24
Width: 573
Flags: HMW
HStem: 0 21G<0 219 0 0 344 573 344 344> 601 20G<12 245 245 245 350 558 558 558>
LayerCount: 2
Fore
SplineSet
573 0 m 1,0,-1
 344 0 l 1,1,-1
 288 169 l 1,2,-1
 279 169 l 1,3,-1
 219 0 l 1,4,-1
 0 0 l 1,5,-1
 120 316 l 1,6,-1
 12 621 l 1,7,-1
 245 621 l 1,8,-1
 291 447 l 1,9,-1
 299 447 l 1,10,-1
 350 621 l 1,11,-1
 558 621 l 1,12,-1
 458 315 l 1,13,-1
 573 0 l 1,0,-1
EndSplineSet
EndChar

StartChar: Y
Encoding: 89 89 25
Width: 536
Flags: HMW
HStem: 0 21G<159 372 159 159> 601 20G<0 225 225 225 317 536 536 536>
LayerCount: 2
Fore
SplineSet
536 621 m 1,0,-1
 372 197 l 1,1,-1
 372 0 l 1,2,-1
 159 0 l 1,3,-1
 159 198 l 1,4,-1
 0 621 l 1,5,-1
 225 621 l 1,6,-1
 269 393 l 1,7,-1
 275 393 l 1,8,-1
 317 621 l 1,9,-1
 536 621 l 1,0,-1
EndSplineSet
EndChar

StartChar: Z
Encoding: 90 90 26
Width: 527
Flags: HMW
HStem: 0 159<326 515 326 515> 450 171<23 230 23 23>
LayerCount: 2
Fore
SplineSet
515 0 m 1,0,-1
 45 0 l 1,1,-1
 38 107 l 1,2,-1
 230 450 l 1,3,-1
 23 450 l 1,4,-1
 12 621 l 1,5,-1
 499 621 l 1,6,-1
 506 516 l 1,7,-1
 326 159 l 1,8,-1
 515 159 l 1,9,-1
 515 0 l 1,0,-1
EndSplineSet
EndChar

StartChar: Eth
Encoding: 208 208 27
Width: 599
Flags: HMW
HStem: 0 156<253 278 278 281> 458 163<253 274 253 253>
LayerCount: 2
Fore
SplineSet
577 324 m 0,0,1
 577 0 577 0 281 0 c 2,2,-1
 40 0 l 1,3,-1
 40 235 l 1,4,-1
 -9 235 l 1,5,-1
 -9 373 l 1,6,-1
 40 373 l 1,7,-1
 40 621 l 1,8,-1
 286 621 l 2,9,10
 445 621 445 621 511 544.5 c 128,-1,11
 577 468 577 468 577 324 c 0,0,1
298 235 m 1,12,-1
 253 235 l 1,13,-1
 253 156 l 1,14,-1
 278 156 l 2,15,16
 329 156 329 156 344 191 c 128,-1,17
 359 226 359 226 359 307.5 c 0,18,19
 359 389 359 389 342.5 423.5 c 128,-1,20
 326 458 326 458 274 458 c 2,21,-1
 253 458 l 1,22,-1
 253 373 l 1,23,-1
 298 373 l 1,24,-1
 298 235 l 1,12,-1
EndSplineSet
EndChar

StartChar: Thorn
Encoding: 222 222 28
Width: 516
Flags: HMW
HStem: 0 21G<40 250 40 40> 601 20G<40 250 250 250>
LayerCount: 2
Fore
SplineSet
280 114 m 2,0,-1
 250 114 l 1,1,-1
 250 0 l 1,2,-1
 40 0 l 1,3,-1
 40 621 l 1,4,-1
 250 621 l 1,5,-1
 250 541 l 1,6,-1
 269 541 l 2,7,8
 392 541 392 541 448 491 c 128,-1,9
 504 441 504 441 504 326 c 128,-1,10
 504 211 504 211 450 162.5 c 128,-1,11
 396 114 396 114 280 114 c 2,0,-1
299 316 m 128,-1,13
 299 354 299 354 289.5 370 c 128,-1,14
 280 386 280 386 254 386 c 2,15,-1
 246 386 l 1,16,-1
 246 246 l 1,17,-1
 259 246 l 2,18,19
 282 246 282 246 290.5 262 c 128,-1,12
 299 278 299 278 299 316 c 128,-1,13
EndSplineSet
EndChar

StartChar: AE
Encoding: 198 198 29
Width: 764
Flags: HMW
HStem: 0 152<557 739> 237 144<557 716 557 716> 456 165<557 739 557 557>
LayerCount: 2
Fore
SplineSet
739 0 m 1,0,-1
 343 0 l 1,1,-1
 343 96 l 1,2,-1
 236 96 l 1,3,-1
 203 0 l 1,4,-1
 -5 0 l 1,5,-1
 215 621 l 1,6,-1
 753 621 l 1,7,-1
 739 456 l 1,8,-1
 557 456 l 1,9,-1
 557 381 l 1,10,-1
 716 381 l 1,11,-1
 716 237 l 1,12,-1
 557 237 l 1,13,-1
 557 152 l 1,14,-1
 753 152 l 1,15,-1
 739 0 l 1,0,-1
343 225 m 1,16,-1
 343 433 l 1,17,-1
 339 433 l 1,18,-1
 272 225 l 1,19,-1
 343 225 l 1,16,-1
EndSplineSet
EndChar

StartChar: OE
Encoding: 338 338 30
Width: 794
Flags: HMW
HStem: -10 162 0 21G<399 769 399 399> 237 144<587 746 587 746> 456 175 601 20G<406 783 783 783>
LayerCount: 2
Fore
SplineSet
769 0 m 1,0,-1
 399 0 l 1,1,2
 351 -10 351 -10 302 -10 c 0,3,4
 153 -10 153 -10 86.5 69 c 128,-1,5
 20 148 20 148 20 314.5 c 128,-1,6
 20 481 20 481 86.5 556 c 128,-1,7
 153 631 153 631 306 631 c 0,8,9
 358 631 358 631 406 621 c 1,10,-1
 783 621 l 1,11,-1
 769 456 l 1,12,-1
 587 456 l 1,13,-1
 587 381 l 1,14,-1
 746 381 l 1,15,-1
 746 237 l 1,16,-1
 587 237 l 1,17,-1
 587 152 l 1,18,-1
 783 152 l 1,19,-1
 769 0 l 1,0,-1
355.5 442 m 128,-1,21
 341 459 341 459 301.5 459 c 128,-1,22
 262 459 262 459 250 434 c 128,-1,23
 238 409 238 409 238 327 c 2,24,-1
 238 283 l 2,25,26
 238 199 238 199 251 174 c 128,-1,27
 264 149 264 149 304 149 c 128,-1,28
 344 149 344 149 357 164 c 128,-1,29
 370 179 370 179 373 225 c 1,30,-1
 373 375 l 1,31,20
 370 425 370 425 355.5 442 c 128,-1,21
EndSplineSet
EndChar

StartChar: Agrave
Encoding: 192 192 31
Width: 563
Flags: HMW
HStem: 0 21G<0 201 0 0 353 563 353 353> 601 20G<129 434 434 434> 651 124<240 240 240 310 119 375>
LayerCount: 2
Fore
SplineSet
563 0 m 1,0,-1
 353 0 l 1,1,-1
 333 96 l 1,2,-1
 222 96 l 1,3,-1
 201 0 l 1,4,-1
 0 0 l 1,5,-1
 129 621 l 1,6,-1
 434 621 l 1,7,-1
 563 0 l 1,0,-1
318 225 m 1,8,-1
 280 433 l 1,9,-1
 276 433 l 1,10,-1
 237 225 l 1,11,-1
 318 225 l 1,8,-1
240 651 m 1,12,-1
 119 775 l 1,13,-1
 310 775 l 1,14,-1
 375 651 l 1,15,-1
 240 651 l 1,12,-1
EndSplineSet
EndChar

StartChar: Acircumflex
Encoding: 194 194 32
Width: 563
Flags: HMW
HStem: 0 21G<0 201 0 0 353 563 353 353> 601 20G<129 434 434 434> 655 125<194 245 120 363 313 363 194 437 313 313>
LayerCount: 2
Fore
SplineSet
563 0 m 1,0,-1
 353 0 l 1,1,-1
 333 96 l 1,2,-1
 222 96 l 1,3,-1
 201 0 l 1,4,-1
 0 0 l 1,5,-1
 129 621 l 1,6,-1
 434 621 l 1,7,-1
 563 0 l 1,0,-1
318 225 m 1,8,-1
 280 433 l 1,9,-1
 276 433 l 1,10,-1
 237 225 l 1,11,-1
 318 225 l 1,8,-1
363 780 m 1,12,-1
 437 655 l 1,13,-1
 313 655 l 1,14,-1
 279 705 l 1,15,-1
 245 655 l 1,16,-1
 120 655 l 1,17,-1
 194 780 l 1,18,-1
 363 780 l 1,12,-1
EndSplineSet
EndChar

StartChar: Aacute
Encoding: 193 193 33
Width: 563
Flags: HMW
HStem: 0 21G<0 201 0 0 353 563 353 353> 601 20G<129 434 434 434> 661 124<246 317 185 449>
LayerCount: 2
Fore
SplineSet
563 0 m 1,0,-1
 353 0 l 1,1,-1
 333 96 l 1,2,-1
 222 96 l 1,3,-1
 201 0 l 1,4,-1
 0 0 l 1,5,-1
 129 621 l 1,6,-1
 434 621 l 1,7,-1
 563 0 l 1,0,-1
318 225 m 1,8,-1
 280 433 l 1,9,-1
 276 433 l 1,10,-1
 237 225 l 1,11,-1
 318 225 l 1,8,-1
449 785 m 1,12,-1
 317 661 l 1,13,-1
 185 661 l 1,14,-1
 246 785 l 1,15,-1
 449 785 l 1,12,-1
EndSplineSet
EndChar

StartChar: Adieresis
Encoding: 196 196 34
Width: 563
Flags: HMW
HStem: 0 21G<0 201 0 0 353 563 353 353> 601 20G<129 434 434 434> 644 125<166 214 343 391>
VStem: 117 147<685 727.5> 294 147<685 727.5>
LayerCount: 2
Fore
SplineSet
563 0 m 1,0,-1
 353 0 l 1,1,-1
 333 96 l 1,2,-1
 222 96 l 1,3,-1
 201 0 l 1,4,-1
 0 0 l 1,5,-1
 129 621 l 1,6,-1
 434 621 l 1,7,-1
 563 0 l 1,0,-1
318 225 m 1,8,-1
 280 433 l 1,9,-1
 276 433 l 1,10,-1
 237 225 l 1,11,-1
 318 225 l 1,8,-1
117 706.5 m 0,12,13
 117 769 117 769 190.5 769 c 0,14,15
 264 769 264 769 264 706.5 c 0,16,17
 264 644 264 644 190.5 644 c 0,18,19
 117 644 117 644 117 706.5 c 0,12,13
294 706.5 m 0,20,21
 294 769 294 769 367.5 769 c 0,22,23
 441 769 441 769 441 706.5 c 0,24,25
 441 644 441 644 367.5 644 c 0,26,27
 294 644 294 644 294 706.5 c 0,20,21
EndSplineSet
EndChar

StartChar: Atilde
Encoding: 195 195 35
Width: 563
Flags: HMW
HStem: 0 21G<0 201 0 0 353 563 353 353> 601 20G<129 434 434 434> 638 146<110 443>
LayerCount: 2
Fore
SplineSet
563 0 m 1,0,-1
 353 0 l 1,1,-1
 333 96 l 1,2,-1
 222 96 l 1,3,-1
 201 0 l 1,4,-1
 0 0 l 1,5,-1
 129 621 l 1,6,-1
 434 621 l 1,7,-1
 563 0 l 1,0,-1
318 225 m 1,8,-1
 280 433 l 1,9,-1
 276 433 l 1,10,-1
 237 225 l 1,11,-1
 318 225 l 1,8,-1
443 784 m 1,12,-1
 443 773 l 2,13,14
 443 710 443 710 423 677 c 128,-1,15
 403 644 403 644 342 644 c 0,16,17
 308 644 308 644 236 668 c 1,18,-1
 236 638 l 1,19,-1
 110 638 l 1,20,-1
 110 650 l 2,21,22
 110 714 110 714 131.5 746.5 c 128,-1,23
 153 779 153 779 207 779 c 0,24,25
 235 779 235 779 317 755 c 1,26,-1
 317 784 l 1,27,-1
 443 784 l 1,12,-1
EndSplineSet
EndChar

StartChar: Aring
Encoding: 197 197 36
Width: 563
Flags: HMW
HStem: 0 21G<0 201 0 0 353 563 353 353> 601 20G<129 183 183 183 273 280 280 280 371 434 434 434> 704 20G<245.5 311>
LayerCount: 2
Fore
SplineSet
180 644 m 0,0,1
 180 724 180 724 277.5 724 c 128,-1,2
 375 724 375 724 375 649 c 0,3,4
 375 632 375 632 371 621 c 1,5,-1
 434 621 l 1,6,-1
 563 0 l 1,7,-1
 353 0 l 1,8,-1
 333 96 l 1,9,-1
 222 96 l 1,10,-1
 201 0 l 1,11,-1
 0 0 l 1,12,-1
 129 621 l 1,13,-1
 183 621 l 1,14,15
 180 632 180 632 180 644 c 0,0,1
315 225 m 1,16,-1
 281 409 l 1,17,-1
 277 409 l 1,18,-1
 242 225 l 1,19,-1
 315 225 l 1,16,-1
277 672 m 128,-1,21
 258 672 258 672 258 647 c 128,-1,22
 258 622 258 622 273 621 c 1,23,-1
 280 621 l 1,24,25
 296 622 296 622 296 647 c 128,-1,20
 296 672 296 672 277 672 c 128,-1,21
EndSplineSet
EndChar

StartChar: Ccedilla
Encoding: 199 199 37
Width: 470
Flags: HMW
HStem: -168 21G<250 305.5> -9 167<316 316> 448 183<283.5 326>
LayerCount: 2
Fore
SplineSet
443 419 m 1,0,1
 344 448 344 448 307.5 448 c 128,-1,2
 271 448 271 448 254 413.5 c 128,-1,3
 237 379 237 379 237 303 c 128,-1,4
 237 227 237 227 254 192.5 c 128,-1,5
 271 158 271 158 311 158 c 128,-1,6
 351 158 351 158 444 180 c 1,7,-1
 476 21 l 1,8,9
 392 -5 392 -5 316 -9 c 1,10,11
 310 -15 310 -15 310 -21 c 0,12,13
 310 -24 310 -24 327.5 -31 c 128,-1,14
 345 -38 345 -38 362.5 -53.5 c 128,-1,15
 380 -69 380 -69 380 -94 c 0,16,17
 380 -168 380 -168 271 -168 c 0,18,19
 206 -168 206 -168 162 -138 c 1,20,-1
 199 -67 l 1,21,22
 245 -98 245 -98 269 -98 c 0,23,24
 276 -98 276 -98 276 -92 c 0,25,26
 276 -88 276 -88 263 -81 c 2,27,-1
 237 -69 l 1,28,29
 214 -56 214 -56 214 -37 c 128,-1,30
 214 -18 214 -18 228 -6 c 1,31,32
 120 10 120 10 70.5 88.5 c 128,-1,33
 21 167 21 167 21 315.5 c 128,-1,34
 21 464 21 464 87 547.5 c 128,-1,35
 153 631 153 631 302 631 c 0,36,37
 389 631 389 631 476 597 c 1,38,-1
 443 419 l 1,0,1
EndSplineSet
EndChar

StartChar: Egrave
Encoding: 200 200 38
Width: 461
Flags: HMW
HStem: 0 152<254 436> 237 144<254 413 254 413> 456 165<254 436 254 254> 651 124<206 206 206 276 85 341>
LayerCount: 2
Fore
SplineSet
436 0 m 1,0,-1
 40 0 l 1,1,-1
 40 621 l 1,2,-1
 450 621 l 1,3,-1
 436 456 l 1,4,-1
 254 456 l 1,5,-1
 254 381 l 1,6,-1
 413 381 l 1,7,-1
 413 237 l 1,8,-1
 254 237 l 1,9,-1
 254 152 l 1,10,-1
 450 152 l 1,11,-1
 436 0 l 1,0,-1
206 651 m 1,12,-1
 85 775 l 1,13,-1
 276 775 l 1,14,-1
 341 651 l 1,15,-1
 206 651 l 1,12,-1
EndSplineSet
EndChar

StartChar: Ecircumflex
Encoding: 202 202 39
Width: 461
Flags: HMW
HStem: 0 152<254 436> 237 144<254 413 254 413> 456 165<254 436 254 254> 645 125<163 214 89 332 282 332 163 406 282 282>
LayerCount: 2
Fore
SplineSet
436 0 m 1,0,-1
 40 0 l 1,1,-1
 40 621 l 1,2,-1
 450 621 l 1,3,-1
 436 456 l 1,4,-1
 254 456 l 1,5,-1
 254 381 l 1,6,-1
 413 381 l 1,7,-1
 413 237 l 1,8,-1
 254 237 l 1,9,-1
 254 152 l 1,10,-1
 450 152 l 1,11,-1
 436 0 l 1,0,-1
332 770 m 1,12,-1
 406 645 l 1,13,-1
 282 645 l 1,14,-1
 248 695 l 1,15,-1
 214 645 l 1,16,-1
 89 645 l 1,17,-1
 163 770 l 1,18,-1
 332 770 l 1,12,-1
EndSplineSet
EndChar

StartChar: Eacute
Encoding: 201 201 40
Width: 461
Flags: HMW
HStem: 0 152<254 436> 237 144<254 413 254 413> 456 165<254 436 254 254> 651 124<222 293 161 425>
LayerCount: 2
Fore
SplineSet
436 0 m 1,0,-1
 40 0 l 1,1,-1
 40 621 l 1,2,-1
 450 621 l 1,3,-1
 436 456 l 1,4,-1
 254 456 l 1,5,-1
 254 381 l 1,6,-1
 413 381 l 1,7,-1
 413 237 l 1,8,-1
 254 237 l 1,9,-1
 254 152 l 1,10,-1
 450 152 l 1,11,-1
 436 0 l 1,0,-1
425 775 m 1,12,-1
 293 651 l 1,13,-1
 161 651 l 1,14,-1
 222 775 l 1,15,-1
 425 775 l 1,12,-1
EndSplineSet
EndChar

StartChar: Edieresis
Encoding: 203 203 41
Width: 461
Flags: HMW
HStem: 0 152<254 436> 237 144<254 413 254 413> 456 165<254 436 254 254> 644 125<133 181 310 358>
VStem: 40 191<0 727.5 621 727.5> 84 147<685 727.5> 261 152
LayerCount: 2
Fore
SplineSet
436 0 m 1,0,-1
 40 0 l 1,1,-1
 40 621 l 1,2,-1
 450 621 l 1,3,-1
 436 456 l 1,4,-1
 254 456 l 1,5,-1
 254 381 l 1,6,-1
 413 381 l 1,7,-1
 413 237 l 1,8,-1
 254 237 l 1,9,-1
 254 152 l 1,10,-1
 450 152 l 1,11,-1
 436 0 l 1,0,-1
84 706.5 m 0,12,13
 84 769 84 769 157.5 769 c 0,14,15
 231 769 231 769 231 706.5 c 0,16,17
 231 644 231 644 157.5 644 c 0,18,19
 84 644 84 644 84 706.5 c 0,12,13
261 706.5 m 0,20,21
 261 769 261 769 334.5 769 c 0,22,23
 408 769 408 769 408 706.5 c 0,24,25
 408 644 408 644 334.5 644 c 0,26,27
 261 644 261 644 261 706.5 c 0,20,21
EndSplineSet
EndChar

StartChar: Igrave
Encoding: 204 204 42
Width: 303
Flags: HMW
HStem: 0 21G<46 257 46 46> 601 20G<46 257 257 257> 661 124<113 113 113 183 -8 248>
LayerCount: 2
Fore
SplineSet
257 0 m 1,0,-1
 46 0 l 1,1,-1
 46 621 l 1,2,-1
 257 621 l 1,3,-1
 257 0 l 1,0,-1
113 661 m 1,4,-1
 -8 785 l 1,5,-1
 183 785 l 1,6,-1
 248 661 l 1,7,-1
 113 661 l 1,4,-1
EndSplineSet
EndChar

StartChar: Icircumflex
Encoding: 206 206 43
Width: 303
Flags: HMW
HStem: 0 21G<48 259 48 48> 601 20G<48 259 259 259> 655 125<72 123 -2 241 191 241 72 315 191 191>
LayerCount: 2
Fore
SplineSet
259 0 m 1,0,-1
 48 0 l 1,1,-1
 48 621 l 1,2,-1
 259 621 l 1,3,-1
 259 0 l 1,0,-1
241 780 m 1,4,-1
 315 655 l 1,5,-1
 191 655 l 1,6,-1
 157 705 l 1,7,-1
 123 655 l 1,8,-1
 -2 655 l 1,9,-1
 72 780 l 1,10,-1
 241 780 l 1,4,-1
EndSplineSet
EndChar

StartChar: Iacute
Encoding: 205 205 44
Width: 303
Flags: HMW
HStem: 0 21G<47 258 47 47> 601 20G<47 258 258 258> 661 124<123 194 62 326>
LayerCount: 2
Fore
SplineSet
258 0 m 1,0,-1
 47 0 l 1,1,-1
 47 621 l 1,2,-1
 258 621 l 1,3,-1
 258 0 l 1,0,-1
326 785 m 1,4,-1
 194 661 l 1,5,-1
 62 661 l 1,6,-1
 123 785 l 1,7,-1
 326 785 l 1,4,-1
EndSplineSet
EndChar

StartChar: Idieresis
Encoding: 207 207 45
Width: 303
Flags: HMW
HStem: 0 21G<50 261 50 50> 601 20G<50 261 261 261> 654 125<42 90 219 267>
VStem: -7 147<695 737.5> 50 90<0 737.5 621 737.5> 170 147<695 737.5>
LayerCount: 2
Fore
SplineSet
261 0 m 1,0,-1
 50 0 l 1,1,-1
 50 621 l 1,2,-1
 261 621 l 1,3,-1
 261 0 l 1,0,-1
-7 716.5 m 0,4,5
 -7 779 -7 779 66.5 779 c 0,6,7
 140 779 140 779 140 716.5 c 0,8,9
 140 654 140 654 66.5 654 c 0,10,11
 -7 654 -7 654 -7 716.5 c 0,4,5
170 716.5 m 0,12,13
 170 779 170 779 243.5 779 c 0,14,15
 317 779 317 779 317 716.5 c 0,16,17
 317 654 317 654 243.5 654 c 0,18,19
 170 654 170 654 170 716.5 c 0,12,13
EndSplineSet
EndChar

StartChar: Itilde
Encoding: 296 296 46
Width: 303
Flags: HMW
HStem: 0 21G<46 257 46 46> 601 20G<46 257 257 257> 645 154<-24 327>
LayerCount: 2
Fore
SplineSet
257 0 m 1,0,-1
 46 0 l 1,1,-1
 46 621 l 1,2,-1
 257 621 l 1,3,-1
 257 0 l 1,0,-1
327 799 m 1,4,-1
 327 787 l 2,5,6
 327 721 327 721 305.5 686 c 128,-1,7
 284 651 284 651 220 651 c 0,8,9
 183 651 183 651 109 677 c 1,10,-1
 109 645 l 1,11,-1
 -24 645 l 1,12,-1
 -24 658 l 2,13,14
 -24 725 -24 725 -1.5 759.5 c 128,-1,15
 21 794 21 794 78 794 c 0,16,17
 108 794 108 794 194 768 c 1,18,-1
 194 799 l 1,19,-1
 327 799 l 1,4,-1
EndSplineSet
EndChar

StartChar: IJ
Encoding: 306 306 47
Width: 624
Flags: HMW
HStem: -10 21G<313 386 313 313> 0 138<46 352> 601 20G<46 257 257 257 370 580 580 580>
LayerCount: 2
Fore
SplineSet
257 0 m 1,0,-1
 46 0 l 1,1,-1
 46 621 l 1,2,-1
 257 621 l 1,3,-1
 257 0 l 1,0,-1
580 621 m 1,4,-1
 580 130 l 2,5,6
 580 50 580 50 539 20 c 128,-1,7
 498 -10 498 -10 386 -10 c 2,8,-1
 313 -10 l 1,9,-1
 302 138 l 1,10,-1
 352 138 l 2,11,12
 363 138 363 138 366.5 142 c 128,-1,13
 370 146 370 146 370 155 c 2,14,-1
 370 621 l 1,15,-1
 580 621 l 1,4,-1
EndSplineSet
EndChar

StartChar: Jcircumflex
Encoding: 308 308 48
Width: 326
Flags: HMW
HStem: -10 148<15 54 54 61.5 4 88 15 15> 601 20G<72 282 282 282> 653 131<84 138 6 262 209 262 84 340 209 209>
LayerCount: 2
Fore
SplineSet
282 621 m 1,0,-1
 282 130 l 2,1,2
 282 50 282 50 241 20 c 128,-1,3
 200 -10 200 -10 88 -10 c 2,4,-1
 15 -10 l 1,5,-1
 4 138 l 1,6,-1
 54 138 l 2,7,8
 65 138 65 138 68.5 142 c 128,-1,9
 72 146 72 146 72 155 c 2,10,-1
 72 621 l 1,11,-1
 282 621 l 1,0,-1
262 784 m 1,12,-1
 340 653 l 1,13,-1
 209 653 l 1,14,-1
 174 705 l 1,15,-1
 138 653 l 1,16,-1
 6 653 l 1,17,-1
 84 784 l 1,18,-1
 262 784 l 1,12,-1
EndSplineSet
EndChar

StartChar: Ldotaccent
Encoding: 319 319 49
Width: 486
Flags: HMW
HStem: 0 161<254 413> 251 167<355.5 424 355.5 424> 601 20G<40 254 254 254>
LayerCount: 2
Fore
SplineSet
413 0 m 1,0,-1
 40 0 l 1,1,-1
 40 621 l 1,2,-1
 254 621 l 1,3,-1
 254 161 l 1,4,-1
 427 161 l 1,5,-1
 413 0 l 1,0,-1
282 333 m 0,6,7
 282 418 282 418 389 418 c 128,-1,8
 496 418 496 418 496 333 c 0,9,10
 496 289 496 289 469.5 270 c 128,-1,11
 443 251 443 251 389 251 c 128,-1,12
 335 251 335 251 308.5 269.5 c 128,-1,13
 282 288 282 288 282 333 c 0,6,7
EndSplineSet
EndChar

StartChar: Lslash
Encoding: 321 321 50
Width: 421
Flags: HMW
HStem: 0 161<262 421> 601 20G<48 262 262 262>
LayerCount: 2
Fore
SplineSet
421 0 m 1,0,-1
 48 0 l 1,1,-1
 48 155 l 1,2,-1
 8 131 l 1,3,-1
 8 288 l 1,4,-1
 48 312 l 1,5,-1
 48 621 l 1,6,-1
 262 621 l 1,7,-1
 262 441 l 1,8,-1
 310 470 l 1,9,-1
 310 314 l 1,10,-1
 262 285 l 1,11,-1
 262 161 l 1,12,-1
 435 161 l 1,13,-1
 421 0 l 1,0,-1
EndSplineSet
EndChar

StartChar: Nacute
Encoding: 323 323 51
Width: 607
Flags: HMW
HStem: 0 21G<40 230 40 40 363 567 363 363> 601 20G<40 251 251 251 375 567 567 567> 659 130<278 353 214 492>
VStem: 40 190<0 245 0 621> 375 192<368 621>
LayerCount: 2
Fore
SplineSet
567 0 m 1,0,-1
 363 0 l 1,1,-1
 237 245 l 1,2,-1
 230 245 l 1,3,-1
 230 0 l 1,4,-1
 40 0 l 1,5,-1
 40 621 l 1,6,-1
 251 621 l 1,7,-1
 369 368 l 1,8,-1
 375 368 l 1,9,-1
 375 621 l 1,10,-1
 567 621 l 1,11,-1
 567 0 l 1,0,-1
492 789 m 1,12,-1
 353 659 l 1,13,-1
 214 659 l 1,14,-1
 278 789 l 1,15,-1
 492 789 l 1,12,-1
EndSplineSet
EndChar

StartChar: Ntilde
Encoding: 209 209 52
Width: 607
Flags: HMW
HStem: 0 21G<40 230 40 40 363 567 363 363> 601 20G<40 251 251 251 375 567 567 567> 638 146<136 469>
VStem: 40 190<0 245 0 621> 375 94 375 192<368 621>
LayerCount: 2
Fore
SplineSet
567 0 m 1,0,-1
 363 0 l 1,1,-1
 237 245 l 1,2,-1
 230 245 l 1,3,-1
 230 0 l 1,4,-1
 40 0 l 1,5,-1
 40 621 l 1,6,-1
 251 621 l 1,7,-1
 369 368 l 1,8,-1
 375 368 l 1,9,-1
 375 621 l 1,10,-1
 567 621 l 1,11,-1
 567 0 l 1,0,-1
469 784 m 1,12,-1
 469 773 l 2,13,14
 469 710 469 710 449 677 c 128,-1,15
 429 644 429 644 368 644 c 0,16,17
 334 644 334 644 262 668 c 1,18,-1
 262 638 l 1,19,-1
 136 638 l 1,20,-1
 136 650 l 2,21,22
 136 714 136 714 157.5 746.5 c 128,-1,23
 179 779 179 779 233 779 c 0,24,25
 261 779 261 779 343 755 c 1,26,-1
 343 784 l 1,27,-1
 469 784 l 1,12,-1
EndSplineSet
EndChar

StartChar: Ograve
Encoding: 210 210 53
Width: 609
Flags: HMW
HStem: -10 159<278.5 338.5 278.5 405> 459 172<275.5 334> 661 124<245 245 245 315 124 380>
LayerCount: 2
Fore
SplineSet
86.5 556 m 128,-1,1
 153 631 153 631 305.5 631 c 128,-1,2
 458 631 458 631 523.5 557 c 128,-1,3
 589 483 589 483 589 316.5 c 128,-1,4
 589 150 589 150 521.5 70 c 128,-1,5
 454 -10 454 -10 303.5 -10 c 128,-1,6
 153 -10 153 -10 86.5 69 c 128,-1,7
 20 148 20 148 20 314.5 c 128,-1,0
 20 481 20 481 86.5 556 c 128,-1,1
305 459 m 128,-1,9
 262 459 262 459 250 434 c 128,-1,10
 238 409 238 409 238 327 c 2,11,-1
 238 283 l 2,12,13
 238 199 238 199 251 174 c 128,-1,14
 264 149 264 149 308 149 c 128,-1,15
 352 149 352 149 363 173 c 128,-1,16
 374 197 374 197 374 280 c 2,17,-1
 374 326 l 2,18,19
 374 408 374 408 361 433.5 c 128,-1,8
 348 459 348 459 305 459 c 128,-1,9
245 661 m 1,20,-1
 124 785 l 1,21,-1
 315 785 l 1,22,-1
 380 661 l 1,23,-1
 245 661 l 1,20,-1
EndSplineSet
EndChar

StartChar: Ocircumflex
Encoding: 212 212 54
Width: 609
Flags: HMW
HStem: -10 159<278.5 338.5 278.5 405> 459 172<275.5 334> 655 125<220 271 146 389 339 389 220 463 339 339>
LayerCount: 2
Fore
SplineSet
86.5 556 m 128,-1,1
 153 631 153 631 305.5 631 c 128,-1,2
 458 631 458 631 523.5 557 c 128,-1,3
 589 483 589 483 589 316.5 c 128,-1,4
 589 150 589 150 521.5 70 c 128,-1,5
 454 -10 454 -10 303.5 -10 c 128,-1,6
 153 -10 153 -10 86.5 69 c 128,-1,7
 20 148 20 148 20 314.5 c 128,-1,0
 20 481 20 481 86.5 556 c 128,-1,1
305 459 m 128,-1,9
 262 459 262 459 250 434 c 128,-1,10
 238 409 238 409 238 327 c 2,11,-1
 238 283 l 2,12,13
 238 199 238 199 251 174 c 128,-1,14
 264 149 264 149 308 149 c 128,-1,15
 352 149 352 149 363 173 c 128,-1,16
 374 197 374 197 374 280 c 2,17,-1
 374 326 l 2,18,19
 374 408 374 408 361 433.5 c 128,-1,8
 348 459 348 459 305 459 c 128,-1,9
389 780 m 1,20,-1
 463 655 l 1,21,-1
 339 655 l 1,22,-1
 305 705 l 1,23,-1
 271 655 l 1,24,-1
 146 655 l 1,25,-1
 220 780 l 1,26,-1
 389 780 l 1,20,-1
EndSplineSet
EndChar

StartChar: Oacute
Encoding: 211 211 55
Width: 609
Flags: HMW
HStem: -10 159<278.5 338.5 278.5 405> 459 172<275.5 334> 661 124<286 357 225 489>
LayerCount: 2
Fore
SplineSet
86.5 556 m 128,-1,1
 153 631 153 631 305.5 631 c 128,-1,2
 458 631 458 631 523.5 557 c 128,-1,3
 589 483 589 483 589 316.5 c 128,-1,4
 589 150 589 150 521.5 70 c 128,-1,5
 454 -10 454 -10 303.5 -10 c 128,-1,6
 153 -10 153 -10 86.5 69 c 128,-1,7
 20 148 20 148 20 314.5 c 128,-1,0
 20 481 20 481 86.5 556 c 128,-1,1
305 459 m 128,-1,9
 262 459 262 459 250 434 c 128,-1,10
 238 409 238 409 238 327 c 2,11,-1
 238 283 l 2,12,13
 238 199 238 199 251 174 c 128,-1,14
 264 149 264 149 308 149 c 128,-1,15
 352 149 352 149 363 173 c 128,-1,16
 374 197 374 197 374 280 c 2,17,-1
 374 326 l 2,18,19
 374 408 374 408 361 433.5 c 128,-1,8
 348 459 348 459 305 459 c 128,-1,9
489 785 m 1,20,-1
 357 661 l 1,21,-1
 225 661 l 1,22,-1
 286 785 l 1,23,-1
 489 785 l 1,20,-1
EndSplineSet
EndChar

StartChar: Odieresis
Encoding: 214 214 56
Width: 609
Flags: HMW
HStem: -10 159<278.5 338.5 278.5 405> 459 172<275.5 334> 644 125<190 238 367 415>
VStem: 141 147<685 727.5> 318 147<685 727.5>
LayerCount: 2
Fore
SplineSet
86.5 556 m 128,-1,1
 153 631 153 631 305.5 631 c 128,-1,2
 458 631 458 631 523.5 557 c 128,-1,3
 589 483 589 483 589 316.5 c 128,-1,4
 589 150 589 150 521.5 70 c 128,-1,5
 454 -10 454 -10 303.5 -10 c 128,-1,6
 153 -10 153 -10 86.5 69 c 128,-1,7
 20 148 20 148 20 314.5 c 128,-1,0
 20 481 20 481 86.5 556 c 128,-1,1
305 459 m 128,-1,9
 262 459 262 459 250 434 c 128,-1,10
 238 409 238 409 238 327 c 2,11,-1
 238 283 l 2,12,13
 238 199 238 199 251 174 c 128,-1,14
 264 149 264 149 308 149 c 128,-1,15
 352 149 352 149 363 173 c 128,-1,16
 374 197 374 197 374 280 c 2,17,-1
 374 326 l 2,18,19
 374 408 374 408 361 433.5 c 128,-1,8
 348 459 348 459 305 459 c 128,-1,9
141 706.5 m 128,-1,21
 141 769 141 769 214.5 769 c 128,-1,22
 288 769 288 769 288 706.5 c 128,-1,23
 288 644 288 644 214.5 644 c 128,-1,20
 141 644 141 644 141 706.5 c 128,-1,21
318 706.5 m 128,-1,25
 318 769 318 769 391.5 769 c 128,-1,26
 465 769 465 769 465 706.5 c 128,-1,27
 465 644 465 644 391.5 644 c 128,-1,24
 318 644 318 644 318 706.5 c 128,-1,25
EndSplineSet
EndChar

StartChar: Otilde
Encoding: 213 213 57
Width: 609
Flags: HMW
HStem: -10 159<278.5 338.5 278.5 405> 459 172<275.5 334> 648 146<129 462>
LayerCount: 2
Fore
SplineSet
86.5 556 m 128,-1,1
 153 631 153 631 305.5 631 c 128,-1,2
 458 631 458 631 523.5 557 c 128,-1,3
 589 483 589 483 589 316.5 c 128,-1,4
 589 150 589 150 521.5 70 c 128,-1,5
 454 -10 454 -10 303.5 -10 c 128,-1,6
 153 -10 153 -10 86.5 69 c 128,-1,7
 20 148 20 148 20 314.5 c 128,-1,0
 20 481 20 481 86.5 556 c 128,-1,1
305 459 m 128,-1,9
 262 459 262 459 250 434 c 128,-1,10
 238 409 238 409 238 327 c 2,11,-1
 238 283 l 2,12,13
 238 199 238 199 251 174 c 128,-1,14
 264 149 264 149 308 149 c 128,-1,15
 352 149 352 149 363 173 c 128,-1,16
 374 197 374 197 374 280 c 2,17,-1
 374 326 l 2,18,19
 374 408 374 408 361 433.5 c 128,-1,8
 348 459 348 459 305 459 c 128,-1,9
462 794 m 1,20,-1
 462 783 l 2,21,22
 462 720 462 720 442 687 c 128,-1,23
 422 654 422 654 361 654 c 0,24,25
 327 654 327 654 255 678 c 1,26,-1
 255 648 l 1,27,-1
 129 648 l 1,28,-1
 129 660 l 2,29,30
 129 724 129 724 150.5 756.5 c 128,-1,31
 172 789 172 789 226 789 c 0,32,33
 254 789 254 789 336 765 c 1,34,-1
 336 794 l 1,35,-1
 462 794 l 1,20,-1
EndSplineSet
EndChar

StartChar: Oslash
Encoding: 216 216 58
Width: 609
Flags: HMW
HStem: -69 21G<33 245 33 33> -10 159<296.5 338.5 278.5 405> -9 21G<272 276.5> 459 172<275.5 313.5 203.5 334> 661 20G<373 582 582 582>
LayerCount: 2
Fore
SplineSet
302 -10 m 1,0,-1
 272 -9 l 1,1,-1
 245 -69 l 1,2,-1
 33 -69 l 1,3,-1
 92 62 l 1,4,5
 20 138 20 138 20 309.5 c 128,-1,6
 20 481 20 481 86.5 556 c 128,-1,7
 153 631 153 631 306 631 c 0,8,9
 321 631 321 631 349 629 c 1,10,-1
 373 681 l 1,11,-1
 582 681 l 1,12,-1
 525 555 l 1,13,14
 589 482 589 482 589 316 c 128,-1,15
 589 150 589 150 521.5 70 c 128,-1,16
 454 -10 454 -10 302 -10 c 1,0,-1
305 459 m 128,-1,18
 262 459 262 459 250 434 c 128,-1,19
 238 409 238 409 238 327 c 2,20,-1
 238 283 l 2,21,22
 238 199 238 199 251 174 c 128,-1,23
 264 149 264 149 308 149 c 128,-1,24
 352 149 352 149 363 173 c 128,-1,25
 374 197 374 197 374 280 c 2,26,-1
 374 326 l 2,27,28
 374 408 374 408 361 433.5 c 128,-1,17
 348 459 348 459 305 459 c 128,-1,18
EndSplineSet
EndChar

StartChar: Racute
Encoding: 340 340 59
Width: 563
Flags: HMW
HStem: 0 21G<40 245 40 40 323 544 323 323> 601 20G<40 305 305 382> 659 130<227 302 163 441>
LayerCount: 2
Fore
SplineSet
531 421 m 0,0,1
 531 361 531 361 511.5 325.5 c 128,-1,2
 492 290 492 290 451 263 c 1,3,-1
 544 0 l 1,4,-1
 323 0 l 1,5,-1
 261 214 l 1,6,-1
 245 214 l 1,7,-1
 245 0 l 1,8,-1
 40 0 l 1,9,-1
 40 621 l 1,10,-1
 305 621 l 2,11,12
 421 621 421 621 476 572.5 c 128,-1,13
 531 524 531 524 531 421 c 0,0,1
298.5 349.5 m 128,-1,15
 308 363 308 363 308 397 c 128,-1,16
 308 431 308 431 298 444 c 128,-1,17
 288 457 288 457 267 457 c 2,18,-1
 241 457 l 1,19,-1
 241 336 l 1,20,-1
 266 336 l 2,21,14
 289 336 289 336 298.5 349.5 c 128,-1,15
441 789 m 1,22,-1
 302 659 l 1,23,-1
 163 659 l 1,24,-1
 227 789 l 1,25,-1
 441 789 l 1,22,-1
EndSplineSet
EndChar

StartChar: Rcaron
Encoding: 344 344 60
Width: 563
Flags: HMW
HStem: 0 21G<40 245 40 40 323 544 323 323> 601 20G<40 305 305 382> 657 131<160 160 160 213 284 338>
LayerCount: 2
Fore
SplineSet
531 421 m 0,0,1
 531 361 531 361 511.5 325.5 c 128,-1,2
 492 290 492 290 451 263 c 1,3,-1
 544 0 l 1,4,-1
 323 0 l 1,5,-1
 261 214 l 1,6,-1
 245 214 l 1,7,-1
 245 0 l 1,8,-1
 40 0 l 1,9,-1
 40 621 l 1,10,-1
 305 621 l 2,11,12
 421 621 421 621 476 572.5 c 128,-1,13
 531 524 531 524 531 421 c 0,0,1
298.5 349.5 m 128,-1,15
 308 363 308 363 308 397 c 128,-1,16
 308 431 308 431 298 444 c 128,-1,17
 288 457 288 457 267 457 c 2,18,-1
 241 457 l 1,19,-1
 241 336 l 1,20,-1
 266 336 l 2,21,14
 289 336 289 336 298.5 349.5 c 128,-1,15
160 657 m 1,22,-1
 82 788 l 1,23,-1
 213 788 l 1,24,-1
 248 736 l 1,25,-1
 284 788 l 1,26,-1
 416 788 l 1,27,-1
 338 657 l 1,28,-1
 160 657 l 1,22,-1
EndSplineSet
EndChar

StartChar: Rcommaaccent
Encoding: 342 342 61
Width: 563
Flags: HMW
HStem: -164 21G<292 292> -10 21G<265.5 316.5> 0 21G<40 245 40 40 323 544 323 323> 601 20G<40 305 305 382>
VStem: 209 36 209 164<-79.5 -54 -96 -47>
LayerCount: 2
Fore
SplineSet
531 421 m 0,0,1
 531 361 531 361 511.5 325.5 c 128,-1,2
 492 290 492 290 451 263 c 1,3,-1
 544 0 l 1,4,-1
 323 0 l 1,5,-1
 261 214 l 1,6,-1
 245 214 l 1,7,-1
 245 0 l 1,8,-1
 40 0 l 1,9,-1
 40 621 l 1,10,-1
 305 621 l 2,11,12
 421 621 421 621 476 572.5 c 128,-1,13
 531 524 531 524 531 421 c 0,0,1
298.5 349.5 m 128,-1,15
 308 363 308 363 308 397 c 128,-1,16
 308 431 308 431 298 444 c 128,-1,17
 288 457 288 457 267 457 c 2,18,-1
 241 457 l 1,19,-1
 241 336 l 1,20,-1
 266 336 l 2,21,14
 289 336 289 336 298.5 349.5 c 128,-1,15
291 -10 m 0,22,23
 329 -10 329 -10 351 -27 c 128,-1,24
 373 -44 373 -44 373 -74 c 0,25,26
 373 -130 373 -130 292 -164 c 1,27,-1
 217 -155 l 1,28,-1
 259 -113 l 1,29,30
 209 -104 209 -104 209 -65 c 0,31,32
 209 -10 209 -10 291 -10 c 0,22,23
EndSplineSet
EndChar

StartChar: Scaron
Encoding: 352 352 62
Width: 487
Flags: HMW
HStem: -10 162<201 232.5 201 316> 460 171<257 277 165.5 286> 649 125<150 150 150 200 268 319>
LayerCount: 2
Fore
SplineSet
69 576 m 128,-1,1
 129 631 129 631 235.5 631 c 128,-1,2
 342 631 342 631 455 611 c 1,3,-1
 432 435 l 1,4,5
 307 460 307 460 268 460 c 128,-1,6
 229 460 229 460 229 436 c 0,7,8
 229 426.666666667 229 426.666666667 235 423.333333333 c 128,-1,9
 241 420 241 420 244 418 c 128,-1,10
 247 416 247 416 255.5 413 c 128,-1,11
 264 410 264 410 269.5 407.5 c 128,-1,12
 275 405 275 405 305.5 392.5 c 128,-1,13
 336 380 336 380 351.5 372.5 c 128,-1,14
 367 365 367 365 394 347.5 c 0,15,16
 472 296.944444444 472 296.944444444 472 197.972222222 c 128,-1,17
 472 99 472 99 413 44.5 c 128,-1,18
 354 -10 354 -10 243.5 -10 c 128,-1,19
 133 -10 133 -10 27 17 c 1,20,-1
 41 186 l 1,21,22
 175 152 175 152 222 152 c 0,23,24
 253 152 253 152 253 174 c 0,25,26
 253 184 253 184 245.5 190 c 128,-1,27
 238 196 238 196 223.5 203 c 128,-1,28
 209 210 209 210 181 221.5 c 128,-1,29
 153 233 153 233 134 241.5 c 128,-1,30
 115 250 115 250 89.5 267.5 c 0,31,32
 9 322.745098039 9 322.745098039 9 421.87254902 c 128,-1,0
 9 521 9 521 69 576 c 128,-1,1
150 649 m 1,33,-1
 76 774 l 1,34,-1
 200 774 l 1,35,-1
 234 724 l 1,36,-1
 268 774 l 1,37,-1
 393 774 l 1,38,-1
 319 649 l 1,39,-1
 150 649 l 1,33,-1
EndSplineSet
EndChar

StartChar: Ugrave
Encoding: 217 217 63
Width: 601
Flags: HMW
HStem: -10 176<285.5 320.5 285.5 382> 601 20G<36 254 254 254 351 565 565 565> 651 124<245 245 245 315 124 380>
LayerCount: 2
Fore
SplineSet
254 220 m 2,0,1
 254 166 254 166 302.5 166 c 128,-1,2
 351 166 351 166 351 221 c 2,3,-1
 351 621 l 1,4,-1
 565 621 l 1,5,-1
 565 208 l 2,6,7
 565 98 565 98 496 44 c 128,-1,8
 427 -10 427 -10 298 -10 c 0,9,10
 36 -10 36 -10 36 206 c 2,11,-1
 36 621 l 1,12,-1
 254 621 l 1,13,-1
 254 220 l 2,0,1
245 651 m 1,14,-1
 124 775 l 1,15,-1
 315 775 l 1,16,-1
 380 651 l 1,17,-1
 245 651 l 1,14,-1
EndSplineSet
EndChar

StartChar: Ucircumflex
Encoding: 219 219 64
Width: 601
Flags: HMW
HStem: -10 176<285.5 320.5 285.5 382> 601 20G<36 254 254 254 351 565 565 565> 645 125<216 267 142 385 335 385 216 459 335 335>
LayerCount: 2
Fore
SplineSet
254 220 m 2,0,1
 254 166 254 166 302.5 166 c 128,-1,2
 351 166 351 166 351 221 c 2,3,-1
 351 621 l 1,4,-1
 565 621 l 1,5,-1
 565 208 l 2,6,7
 565 98 565 98 496 44 c 128,-1,8
 427 -10 427 -10 298 -10 c 0,9,10
 36 -10 36 -10 36 206 c 2,11,-1
 36 621 l 1,12,-1
 254 621 l 1,13,-1
 254 220 l 2,0,1
385 770 m 1,14,-1
 459 645 l 1,15,-1
 335 645 l 1,16,-1
 301 695 l 1,17,-1
 267 645 l 1,18,-1
 142 645 l 1,19,-1
 216 770 l 1,20,-1
 385 770 l 1,14,-1
EndSplineSet
EndChar

StartChar: Uacute
Encoding: 218 218 65
Width: 601
Flags: HMW
HStem: -10 176<285.5 320.5 285.5 382> 601 20G<36 254 254 254 351 565 565 565> 651 124<297 368 236 500>
LayerCount: 2
Fore
SplineSet
254 220 m 2,0,1
 254 166 254 166 302.5 166 c 128,-1,2
 351 166 351 166 351 221 c 2,3,-1
 351 621 l 1,4,-1
 565 621 l 1,5,-1
 565 208 l 2,6,7
 565 98 565 98 496 44 c 128,-1,8
 427 -10 427 -10 298 -10 c 0,9,10
 36 -10 36 -10 36 206 c 2,11,-1
 36 621 l 1,12,-1
 254 621 l 1,13,-1
 254 220 l 2,0,1
500 775 m 1,14,-1
 368 651 l 1,15,-1
 236 651 l 1,16,-1
 297 775 l 1,17,-1
 500 775 l 1,14,-1
EndSplineSet
EndChar

StartChar: Udieresis
Encoding: 220 220 66
Width: 601
Flags: HMW
HStem: -10 176<285.5 320.5 285.5 382> 601 20G<36 254 254 254 351 565 565 565> 644 125<188 236 365 413>
VStem: 139 147<685 727.5> 316 147<685 727.5> 351 112<221 727.5 621 727.5>
LayerCount: 2
Fore
SplineSet
254 220 m 2,0,1
 254 166 254 166 302.5 166 c 128,-1,2
 351 166 351 166 351 221 c 2,3,-1
 351 621 l 1,4,-1
 565 621 l 1,5,-1
 565 208 l 2,6,7
 565 98 565 98 496 44 c 128,-1,8
 427 -10 427 -10 298 -10 c 0,9,10
 36 -10 36 -10 36 206 c 2,11,-1
 36 621 l 1,12,-1
 254 621 l 1,13,-1
 254 220 l 2,0,1
139 706.5 m 128,-1,15
 139 769 139 769 212.5 769 c 128,-1,16
 286 769 286 769 286 706.5 c 128,-1,17
 286 644 286 644 212.5 644 c 128,-1,14
 139 644 139 644 139 706.5 c 128,-1,15
316 706.5 m 128,-1,19
 316 769 316 769 389.5 769 c 128,-1,20
 463 769 463 769 463 706.5 c 128,-1,21
 463 644 463 644 389.5 644 c 128,-1,18
 316 644 316 644 316 706.5 c 128,-1,19
EndSplineSet
EndChar

StartChar: Yacute
Encoding: 221 221 67
Width: 536
Flags: HMW
HStem: 0 21G<159 372 159 159> 601 20G<0 225 225 225 317 536 536 536> 651 124<262 333 201 465>
LayerCount: 2
Fore
SplineSet
536 621 m 1,0,-1
 372 197 l 1,1,-1
 372 0 l 1,2,-1
 159 0 l 1,3,-1
 159 198 l 1,4,-1
 0 621 l 1,5,-1
 225 621 l 1,6,-1
 269 393 l 1,7,-1
 275 393 l 1,8,-1
 317 621 l 1,9,-1
 536 621 l 1,0,-1
465 775 m 1,10,-1
 333 651 l 1,11,-1
 201 651 l 1,12,-1
 262 775 l 1,13,-1
 465 775 l 1,10,-1
EndSplineSet
EndChar

StartChar: Ydieresis
Encoding: 376 376 68
Width: 536
Flags: HMW
HStem: 0 21G<159 372 159 159> 601 20G<0 225 225 225 317 536 536 536> 654 125<157 205 334 382>
VStem: 108 147<695 737.5> 285 147<695 737.5>
LayerCount: 2
Fore
SplineSet
536 621 m 1,0,-1
 372 197 l 1,1,-1
 372 0 l 1,2,-1
 159 0 l 1,3,-1
 159 198 l 1,4,-1
 0 621 l 1,5,-1
 225 621 l 1,6,-1
 269 393 l 1,7,-1
 275 393 l 1,8,-1
 317 621 l 1,9,-1
 536 621 l 1,0,-1
108 716.5 m 0,10,11
 108 779 108 779 181.5 779 c 0,12,13
 255 779 255 779 255 716.5 c 0,14,15
 255 654 255 654 181.5 654 c 0,16,17
 108 654 108 654 108 716.5 c 0,10,11
285 716.5 m 0,18,19
 285 779 285 779 358.5 779 c 0,20,21
 432 779 432 779 432 716.5 c 0,22,23
 432 654 432 654 358.5 654 c 0,24,25
 285 654 285 654 285 716.5 c 0,18,19
EndSplineSet
EndChar

StartChar: Zcaron
Encoding: 381 381 69
Width: 533
Flags: HMW
HStem: 0 159<329 518 329 518> 450 171<26 233 26 26> 649 125<188 188 188 238 306 357>
LayerCount: 2
Fore
SplineSet
518 0 m 1,0,-1
 48 0 l 1,1,-1
 41 107 l 1,2,-1
 233 450 l 1,3,-1
 26 450 l 1,4,-1
 15 621 l 1,5,-1
 502 621 l 1,6,-1
 509 516 l 1,7,-1
 329 159 l 1,8,-1
 518 159 l 1,9,-1
 518 0 l 1,0,-1
188 649 m 1,10,-1
 114 774 l 1,11,-1
 238 774 l 1,12,-1
 272 724 l 1,13,-1
 306 774 l 1,14,-1
 431 774 l 1,15,-1
 357 649 l 1,16,-1
 188 649 l 1,10,-1
EndSplineSet
EndChar

StartChar: ampersand
Encoding: 38 38 70
Width: 694
Flags: HMW
HStem: -10 139<534.5 672 587 654> 475 166<302 324>
VStem: 29 199<164.5 193 164.5 232.5> 92 191<449 457 436 531.5> 344 178<435 456> 482 40
LayerCount: 2
Fore
SplineSet
260 -10 m 0,0,1
 140 -10 140 -10 84.5 34.5 c 128,-1,2
 29 79 29 79 29 184 c 0,3,4
 29 253 29 253 57.5 290.5 c 128,-1,5
 86 328 86 328 142 349 c 1,6,7
 92 405 92 405 92 482.5 c 0,8,9
 92 641 92 641 307 641 c 128,-1,10
 522 641 522 641 522 478 c 0,11,12
 522 413 522 413 497.5 380 c 128,-1,13
 473 347 473 347 404 305 c 1,14,-1
 477 226 l 1,15,-1
 482 226 l 1,16,-1
 482 320 l 1,17,-1
 640 320 l 1,18,-1
 640 247 l 2,19,20
 640 173 640 173 587 133 c 1,21,-1
 587 129 l 1,22,-1
 672 129 l 1,23,-1
 654 -10 l 1,24,-1
 560 -10 l 2,25,26
 489 -10 489 -10 443 20 c 1,27,-1
 436 20 l 1,28,29
 403 3 403 3 366.5 -3.5 c 128,-1,30
 330 -10 330 -10 260 -10 c 0,0,1
228 182 m 0,31,32
 228 133 228 133 279 133 c 2,33,-1
 332 133 l 1,34,-1
 332 137 l 1,35,-1
 246 224 l 1,36,37
 228 213 228 213 228 182 c 0,31,32
344 445 m 0,38,39
 344 475 344 475 313.5 475 c 128,-1,40
 283 475 283 475 283 447 c 0,41,42
 283 434.5 283 434.5 286.5 429.25 c 128,-1,43
 290 424 290 424 291 422 c 128,-1,44
 292 420 292 420 295.5 416.5 c 128,-1,45
 299 413 299 413 300.5 412 c 128,-1,46
 302 411 302 411 306.5 406.5 c 128,-1,47
 311 402 311 402 313 401 c 1,48,49
 331 415 331 415 337.5 423 c 128,-1,50
 344 431 344 431 344 445 c 0,38,39
EndSplineSet
EndChar

StartChar: a
Encoding: 97 97 71
Width: 499
Flags: HMW
HStem: -10 137<373 495> 330 161<237 237.5>
VStem: 14 190<138 159.5 138 194.5> 250 197<140.5 312 140.5 317>
LayerCount: 2
Fore
SplineSet
453 350 m 1,0,-1
 447 150 l 2,1,2
 447 136 447 136 457.5 131.5 c 128,-1,3
 468 127 468 127 495 127 c 1,4,-1
 476 -6 l 1,5,6
 416 -10 416 -10 395 -10 c 0,7,8
 322 -10 322 -10 289 29 c 1,9,-1
 282 29 l 1,10,11
 234 -10 234 -10 161.5 -10 c 128,-1,12
 89 -10 89 -10 51.5 28.5 c 128,-1,13
 14 67 14 67 14 135 c 0,14,15
 14 219 14 219 70.5 252 c 128,-1,16
 127 285 127 285 250 294 c 1,17,-1
 250 312 l 2,18,19
 250 330 250 330 231 330 c 0,20,21
 180 330 180 330 56 299 c 1,22,-1
 25 457 l 1,23,24
 168 491 168 491 271 491 c 128,-1,25
 374 491 374 491 413.5 457 c 128,-1,26
 453 423 453 423 453 350 c 1,0,-1
227 119 m 0,27,28
 256 119 256 119 256 149 c 2,29,-1
 256 187 l 1,30,31
 204 180 204 180 204 147 c 0,32,33
 204 119 204 119 227 119 c 0,27,28
EndSplineSet
EndChar

StartChar: b
Encoding: 98 98 72
Width: 522
Flags: HMW
HStem: -10 142<263 397> 0 21G<30 202> 337 154<261.5 401> 621 20G<30 231 231 231>
LayerCount: 2
Fore
SplineSet
507 251 m 0,0,1
 507 185 507 185 499.5 140.5 c 128,-1,2
 492 96 492 96 472 60 c 0,3,4
 433.111111111 -10 433.111111111 -10 317 -10 c 0,5,6
 245 -10 245 -10 202 21 c 1,7,-1
 194 0 l 1,8,-1
 30 0 l 1,9,-1
 30 641 l 1,10,-1
 231 641 l 1,11,-1
 231 471 l 1,12,13
 273 491 273 491 323 491 c 0,14,15
 434 491 434 491 470.5 435.5 c 128,-1,16
 507 380 507 380 507 251 c 0,0,1
294 154.5 m 128,-1,18
 299 177 299 177 299 233.5 c 128,-1,19
 299 290 299 290 293 313.5 c 128,-1,20
 287 337 287 337 267 337 c 0,21,22
 254 337 254 337 236 329 c 1,23,-1
 236 136 l 1,24,25
 254 132 254 132 268 132 c 0,26,17
 289 132 289 132 294 154.5 c 128,-1,18
EndSplineSet
EndChar

StartChar: c
Encoding: 99 99 73
Width: 397
Flags: HMW
HStem: -10 151<247.5 266.5> 334 157<248 273.5 165.5 279>
LayerCount: 2
Fore
SplineSet
232.5 310 m 128,-1,1
 224 286 224 286 224 236 c 128,-1,2
 224 186 224 186 232 163.5 c 128,-1,3
 240 141 240 141 270 141 c 128,-1,4
 300 141 300 141 365 154 c 1,5,-1
 387 15 l 1,6,7
 299 -10 299 -10 239 -10 c 0,8,9
 128 -10 128 -10 71.5 54 c 128,-1,10
 15 118 15 118 15 233 c 128,-1,11
 15 348 15 348 73 419.5 c 128,-1,12
 131 491 131 491 242 491 c 0,13,14
 323 491 323 491 395 464 c 1,15,-1
 374 306 l 1,16,17
 296 334 296 334 268.5 334 c 128,-1,0
 241 334 241 334 232.5 310 c 128,-1,1
EndSplineSet
EndChar

StartChar: d
Encoding: 100 100 74
Width: 543
Flags: HMW
HStem: -10 137<406.5 531> 339 152<142 260.5> 621 20G<287 488 488 488>
LayerCount: 2
Fore
SplineSet
427 -10 m 0,0,1
 349 -10 349 -10 320 29 c 1,2,-1
 316 29 l 1,3,4
 270 -10 270 -10 207 -10 c 0,5,6
 103 -10 103 -10 59 56 c 128,-1,7
 15 122 15 122 15 243 c 128,-1,8
 15 364 15 364 63.5 427.5 c 128,-1,9
 112 491 112 491 203 491 c 0,10,11
 255 491 255 491 287 475 c 1,12,-1
 287 641 l 1,13,-1
 488 641 l 1,14,-1
 488 150 l 2,15,16
 488 137 488 137 497.5 132 c 128,-1,17
 507 127 507 127 531 127 c 1,18,-1
 513 -6 l 1,19,20
 461 -10 461 -10 427 -10 c 0,0,1
229.5 316 m 128,-1,22
 224 293 224 293 224 236 c 128,-1,23
 224 179 224 179 229 156.5 c 128,-1,24
 234 134 234 134 254.5 134 c 128,-1,25
 275 134 275 134 287 138 c 1,26,-1
 287 332 l 1,27,28
 270 339 270 339 255 339 c 0,29,21
 235 339 235 339 229.5 316 c 128,-1,22
EndSplineSet
EndChar

StartChar: e
Encoding: 101 101 75
Width: 501
Flags: HMW
HStem: -10 142<271 297> 186 91<225 293 221 476 225 225> 330 161<243 271.5>
LayerCount: 2
Fore
SplineSet
258 330 m 0,0,1
 237 330 237 330 229 317 c 128,-1,2
 221 304 221 304 221 277 c 1,3,-1
 293 277 l 1,4,-1
 293 293 l 2,5,6
 293 330 293 330 258 330 c 0,0,1
77.5 425.5 m 128,-1,8
 140 491 140 491 261.5 491 c 128,-1,9
 383 491 383 491 433.5 441 c 128,-1,10
 484 391 484 391 484 298 c 0,11,12
 484 261 484 261 476 186 c 1,13,-1
 225 186 l 1,14,15
 229 132 229 132 291 132 c 0,16,17
 320 132 320 132 443 153 c 1,18,-1
 460 18 l 1,19,20
 354 -10 354 -10 262 -10 c 0,21,22
 142 -10 142 -10 78.5 56 c 128,-1,23
 15 122 15 122 15 241 c 128,-1,7
 15 360 15 360 77.5 425.5 c 128,-1,8
EndSplineSet
EndChar

StartChar: f
Encoding: 102 102 76
Width: 332
Flags: HMW
HStem: 0 21G<49 258 49 49> 628 20G<155.5 234>
LayerCount: 2
Fore
SplineSet
210 648 m 0,0,1
 277 648 277 648 359 643 c 1,2,-1
 343 486 l 1,3,4
 275 492 275 492 265.5 492 c 0,5,6
 256 492 256 492 256 482 c 2,7,-1
 256 465 l 1,8,-1
 341 465 l 1,9,-1
 330 330 l 1,10,-1
 258 330 l 1,11,-1
 258 0 l 1,12,-1
 49 0 l 1,13,-1
 49 330 l 1,14,-1
 1 330 l 1,15,-1
 1 465 l 1,16,-1
 49 465 l 1,17,-1
 49 513 l 2,18,19
 49 648 49 648 210 648 c 0,0,1
EndSplineSet
EndChar

StartChar: g
Encoding: 103 103 77
Width: 513
Flags: HMW
HStem: -147 118<197 311 311 314 197 321> -9 128<195 364 205 311> 137 101<202.5 262 242 262 242 268> 338 153<241 261> 369 122<439 513 439 439>
VStem: 278 192<271.5 304.5>
LayerCount: 2
Fore
SplineSet
241 491 m 2,0,-1
 513 491 l 1,1,-1
 513 369 l 1,2,-1
 439 369 l 1,3,-1
 439 365 l 1,4,5
 470 341 470 341 470 294 c 0,6,7
 470 137 470 137 268 137 c 2,8,-1
 205 137 l 2,9,10
 197 137 197 137 197 128 c 128,-1,11
 197 119 197 119 205 119 c 2,12,-1
 364 119 l 2,13,14
 492 119 492 119 492 15 c 0,15,16
 492 -147 492 -147 239 -147 c 0,17,18
 137 -147 137 -147 81 -124 c 128,-1,19
 25 -101 25 -101 25 -41 c 0,20,21
 25 -8 25 -8 60 8 c 1,22,-1
 60 12 l 1,23,24
 14 36 14 36 14 92 c 0,25,26
 14 148 14 148 90 179 c 1,27,28
 20 229 20 229 20 317.5 c 0,29,30
 20 406 20 406 78 448.5 c 128,-1,31
 136 491 136 491 241 491 c 2,0,-1
250 338 m 0,32,33
 224 338 224 338 224 288 c 0,34,35
 224 238 224 238 252 238 c 0,36,37
 278 238 278 238 278 287 c 0,38,39
 278 314 278 314 272 326 c 128,-1,40
 266 338 266 338 250 338 c 0,32,33
197 -29 m 2,41,-1
 311 -29 l 2,42,43
 320 -29 320 -29 320 -22 c 2,44,-1
 320 -16 l 2,45,46
 320 -9 320 -9 311 -9 c 2,47,-1
 197 -9 l 2,48,49
 190 -9 190 -9 190 -16 c 2,50,-1
 190 -22 l 2,51,52
 190 -29 190 -29 197 -29 c 2,41,-1
EndSplineSet
EndChar

StartChar: h
Encoding: 104 104 78
Width: 539
Flags: HMW
HStem: 0 21G<30 238 30 30 291 502 291 291> 471 20G<335 414.5> 621 20G<30 231 231 231>
LayerCount: 2
Fore
SplineSet
366 491 m 0,0,1
 502 491 502 491 502 365 c 2,2,-1
 502 0 l 1,3,-1
 291 0 l 1,4,-1
 291 310 l 2,5,6
 291 326 291 326 274.5 326 c 0,7,8
 258 326 258 326 238 316 c 1,9,-1
 238 0 l 1,10,-1
 30 0 l 1,11,-1
 30 641 l 1,12,-1
 231 641 l 1,13,-1
 231 449 l 1,14,15
 292 491 292 491 366 491 c 0,0,1
EndSplineSet
EndChar

StartChar: i
Encoding: 105 105 79
Width: 280
Flags: HMW
HStem: 0 21G<37 245 37 37> 488 167<106.5 175 106.5 175>
LayerCount: 2
Fore
SplineSet
245 0 m 1,0,-1
 37 0 l 1,1,-1
 37 469 l 1,2,-1
 245 469 l 1,3,-1
 245 0 l 1,0,-1
33 570 m 0,4,5
 33 655 33 655 140 655 c 128,-1,6
 247 655 247 655 247 570 c 0,7,8
 247 526 247 526 220.5 507 c 128,-1,9
 194 488 194 488 140 488 c 128,-1,10
 86 488 86 488 59.5 506.5 c 128,-1,11
 33 525 33 525 33 570 c 0,4,5
EndSplineSet
EndChar

StartChar: j
Encoding: 106 106 80
Width: 285
Flags: HMW
HStem: -142 149<-8 25 25 33 -25 58 -8 -8> 488 167<110.5 179 110.5 179>
LayerCount: 2
Fore
SplineSet
250 469 m 1,0,-1
 250 -4 l 2,1,2
 250 -83 250 -83 209.5 -112.5 c 128,-1,3
 169 -142 169 -142 58 -142 c 2,4,-1
 -8 -142 l 1,5,-1
 -25 7 l 1,6,-1
 25 7 l 2,7,8
 37 7 37 7 40 10 c 128,-1,9
 43 13 43 13 43 22 c 2,10,-1
 43 469 l 1,11,-1
 250 469 l 1,0,-1
37 570 m 0,12,13
 37 655 37 655 144 655 c 128,-1,14
 251 655 251 655 251 570 c 0,15,16
 251 526 251 526 224.5 507 c 128,-1,17
 198 488 198 488 144 488 c 128,-1,18
 90 488 90 488 63.5 506.5 c 128,-1,19
 37 525 37 525 37 570 c 0,12,13
EndSplineSet
EndChar

StartChar: k
Encoding: 107 107 81
Width: 514
Flags: HMW
HStem: 0 21G<30 235 30 30 297 522 297 297> 459 20G<309 526 526 526> 621 20G<30 235 235 235>
LayerCount: 2
Fore
SplineSet
522 0 m 1,0,-1
 297 0 l 1,1,-1
 239 157 l 1,2,-1
 235 157 l 1,3,-1
 235 0 l 1,4,-1
 30 0 l 1,5,-1
 30 641 l 1,6,-1
 235 641 l 1,7,-1
 235 311 l 1,8,-1
 239 311 l 1,9,-1
 309 479 l 1,10,-1
 526 479 l 1,11,-1
 414 230 l 1,12,13
 433 189 433 189 469.5 111.5 c 128,-1,14
 506 34 506 34 522 0 c 1,0,-1
EndSplineSet
EndChar

StartChar: l
Encoding: 108 108 82
Width: 286
Flags: HMW
HStem: -10 21G<128.5 177 177 259> 621 20G<32 237 237 237>
LayerCount: 2
Fore
SplineSet
32 124 m 2,0,-1
 32 641 l 1,1,-1
 237 641 l 1,2,-1
 237 170 l 2,3,4
 237 143 237 143 274 143 c 1,5,-1
 259 -10 l 1,6,-1
 177 -10 l 2,7,8
 32 -10 32 -10 32 124 c 2,0,-1
EndSplineSet
EndChar

StartChar: m
Encoding: 109 109 83
Width: 795
Flags: HMW
HStem: 0 21G<30 238 30 30 291 502 291 291 554 765 554 554> 326 165<270.5 393.5 334 546> 459 20G<30 219 219 219>
LayerCount: 2
Fore
SplineSet
627 491 m 0,0,1
 765 491 765 491 765 355 c 2,2,-1
 765 0 l 1,3,-1
 554 0 l 1,4,-1
 554 310 l 2,5,6
 554 326 554 326 542 326 c 0,7,8
 526 326 526 326 502 316 c 1,9,-1
 502 0 l 1,10,-1
 291 0 l 1,11,-1
 291 310 l 2,12,13
 291 326 291 326 278 326 c 0,14,15
 260 326 260 326 238 316 c 1,16,-1
 238 0 l 1,17,-1
 30 0 l 1,18,-1
 30 479 l 1,19,-1
 219 479 l 1,20,-1
 225 448 l 1,21,22
 292 491 292 491 370 491 c 0,23,24
 448 491 448 491 482 443 c 1,25,26
 550 491 550 491 627 491 c 0,0,1
EndSplineSet
EndChar

StartChar: n
Encoding: 110 110 84
Width: 532
Flags: HMW
HStem: 0 21G<30 238 30 30 291 502 291 291> 459 20G<30 219 219 219> 471 20G<333 414.5>
LayerCount: 2
Fore
SplineSet
362 491 m 0,0,1
 502 491 502 491 502 355 c 2,2,-1
 502 0 l 1,3,-1
 291 0 l 1,4,-1
 291 310 l 2,5,6
 291 326 291 326 274.5 326 c 0,7,8
 258 326 258 326 238 316 c 1,9,-1
 238 0 l 1,10,-1
 30 0 l 1,11,-1
 30 479 l 1,12,-1
 219 479 l 1,13,-1
 225 448 l 1,14,15
 288 491 288 491 362 491 c 0,0,1
EndSplineSet
EndChar

StartChar: o
Encoding: 111 111 85
Width: 510
Flags: HMW
HStem: -10 137<242.5 271.5 242.5 341.5> 344 147<241.5 271>
LayerCount: 2
Fore
SplineSet
73.5 432 m 128,-1,1
 132 491 132 491 256.5 491 c 128,-1,2
 381 491 381 491 438 433 c 128,-1,3
 495 375 495 375 495 242.5 c 128,-1,4
 495 110 495 110 439.5 50 c 128,-1,5
 384 -10 384 -10 257.5 -10 c 128,-1,6
 131 -10 131 -10 73 50 c 128,-1,7
 15 110 15 110 15 241.5 c 128,-1,0
 15 373 15 373 73.5 432 c 128,-1,1
256 344 m 128,-1,9
 235 344 235 344 229.5 326.5 c 128,-1,10
 224 309 224 309 224 252 c 2,11,-1
 224 228 l 2,12,13
 224 164 224 164 229.5 145.5 c 128,-1,14
 235 127 235 127 256 127 c 128,-1,15
 277 127 277 127 282.5 145.5 c 128,-1,16
 288 164 288 164 288 223 c 2,17,-1
 288 251 l 2,18,19
 288 309 288 309 282.5 326.5 c 128,-1,8
 277 344 277 344 256 344 c 128,-1,9
EndSplineSet
EndChar

StartChar: p
Encoding: 112 112 86
Width: 522
Flags: HMW
HStem: -137 21G<30 238 30 30> -10 142<263 391> 337 154<261.5 397.5> 459 20G<30 202 202 202>
LayerCount: 2
Fore
SplineSet
312 -10 m 0,0,1
 275 -10 275 -10 238 4 c 1,2,-1
 238 -137 l 1,3,-1
 30 -137 l 1,4,-1
 30 479 l 1,5,-1
 202 479 l 1,6,-1
 210 457 l 1,7,8
 257 491 257 491 323 491 c 0,9,10
 431 491 431 491 469 435.5 c 128,-1,11
 507 380 507 380 507 246.5 c 128,-1,12
 507 113 507 113 466 51.5 c 128,-1,13
 425 -10 425 -10 312 -10 c 0,0,1
294 154.5 m 128,-1,15
 299 177 299 177 299 233.5 c 128,-1,16
 299 290 299 290 293 313.5 c 128,-1,17
 287 337 287 337 267 337 c 0,18,19
 254 337 254 337 236 329 c 1,20,-1
 236 136 l 1,21,22
 254 132 254 132 268 132 c 0,23,14
 289 132 289 132 294 154.5 c 128,-1,15
EndSplineSet
EndChar

StartChar: q
Encoding: 113 113 87
Width: 526
Flags: HMW
HStem: -137 21G<285 493 285 285> -10 144<134 260> 339 152<142 260.5> 459 20G<321 493 493 493>
LayerCount: 2
Fore
SplineSet
58.5 53.5 m 128,-1,1
 15 117 15 117 15 239.5 c 128,-1,2
 15 362 15 362 63.5 426.5 c 128,-1,3
 112 491 112 491 203 491 c 0,4,5
 272 491 272 491 312 457 c 1,6,-1
 321 479 l 1,7,-1
 493 479 l 1,8,-1
 493 -137 l 1,9,-1
 285 -137 l 1,10,-1
 285 8 l 1,11,12
 245 -10 245 -10 207 -10 c 0,13,0
 102 -10 102 -10 58.5 53.5 c 128,-1,1
229.5 316 m 128,-1,15
 224 293 224 293 224 236 c 128,-1,16
 224 179 224 179 229 156.5 c 128,-1,17
 234 134 234 134 252.5 134 c 128,-1,18
 271 134 271 134 287 138 c 1,19,-1
 287 331 l 1,20,21
 267 339 267 339 255 339 c 0,22,14
 235 339 235 339 229.5 316 c 128,-1,15
EndSplineSet
EndChar

StartChar: r
Encoding: 114 114 88
Width: 378
Flags: HMW
HStem: 0 21G<32 238 32 32> 320 159<32 292 32 360> 466 20G<325.5 366>
LayerCount: 2
Fore
SplineSet
238 268 m 2,0,-1
 238 0 l 1,1,-1
 32 0 l 1,2,-1
 32 479 l 1,3,-1
 210 479 l 1,4,-1
 216 447 l 1,5,-1
 220 447 l 1,6,7
 244 469 244 469 275 477.5 c 128,-1,8
 306 486 306 486 366 486 c 1,9,-1
 360 320 l 1,10,-1
 292 320 l 2,11,12
 262 320 262 320 250 309 c 128,-1,13
 238 298 238 298 238 268 c 2,0,-1
EndSplineSet
EndChar

StartChar: s
Encoding: 115 115 89
Width: 403
Flags: HMW
HStem: -10 138<188.5 209.5 188.5 275.5> 346 145<203.5 220>
LayerCount: 2
Fore
SplineSet
397 149 m 0,0,1
 397 -10 397 -10 211.5 -10 c 0,2,3
 116 -10 116 -10 26 11 c 1,4,-1
 39 158 l 1,5,6
 164 128 164 128 205 128 c 0,7,8
 219 128 219 128 219 137 c 128,-1,9
 219 146 219 146 203 152 c 0,10,11
 100 187 100 187 53 226 c 128,-1,12
 6 265 6 265 6 338 c 128,-1,13
 6 411 6 411 57.5 451 c 128,-1,14
 109 491 109 491 196.5 491 c 128,-1,15
 284 491 284 491 389 471 c 1,16,-1
 368 320 l 1,17,18
 236 346 236 346 208 346 c 0,19,20
 195 346 195 346 195 336 c 0,21,22
 195 328 195 328 212 322 c 0,23,24
 294.692307692 295.076923077 294.692307692 295.076923077 331.846153846 268.538461538 c 128,-1,25
 369 242 369 242 383 214 c 128,-1,26
 397 186 397 186 397 149 c 0,0,1
EndSplineSet
EndChar

StartChar: t
Encoding: 116 116 90
Width: 366
Flags: HMW
HStem: -10 154<155 352> 338 135<1 54 1 64 262 353> 542 20G<77 262 262 262>
LayerCount: 2
Fore
SplineSet
205 -10 m 0,0,1
 127 -10 127 -10 90.5 19.5 c 128,-1,2
 54 49 54 49 54 121 c 2,3,-1
 54 338 l 1,4,-1
 1 338 l 1,5,-1
 1 473 l 1,6,-1
 64 473 l 1,7,-1
 77 562 l 1,8,-1
 262 562 l 1,9,-1
 262 473 l 1,10,-1
 353 473 l 1,11,-1
 353 338 l 1,12,-1
 261 338 l 1,13,-1
 261 153 l 2,14,15
 261 140 261 140 273 140 c 0,16,17
 274 140 274 140 352 144 c 1,18,-1
 346 0 l 1,19,20
 246 -10 246 -10 205 -10 c 0,0,1
EndSplineSet
EndChar

StartChar: u
Encoding: 117 117 91
Width: 539
Flags: HMW
HStem: -10 21G<120 200> 459 20G<30 240 240 240 293 502 502 502>
LayerCount: 2
Fore
SplineSet
172 -10 m 0,0,1
 30 -10 30 -10 30 126 c 2,2,-1
 30 479 l 1,3,-1
 240 479 l 1,4,-1
 240 165 l 2,5,6
 240 149 240 149 254.5 149 c 0,7,8
 269 149 269 149 293 159 c 1,9,-1
 293 479 l 1,10,-1
 502 479 l 1,11,-1
 502 2 l 1,12,-1
 302 2 l 1,13,-1
 302 27 l 1,14,-1
 296 27 l 1,15,16
 238 -10 238 -10 172 -10 c 0,0,1
EndSplineSet
EndChar

StartChar: v
Encoding: 118 118 92
Width: 496
Flags: HMW
HStem: 0 21G<104 385 104 104> 459 20G<-12 205 205 205 296 500 500 500>
LayerCount: 2
Fore
SplineSet
500 479 m 1,0,-1
 385 0 l 1,1,-1
 104 0 l 1,2,-1
 -12 479 l 1,3,-1
 205 479 l 1,4,-1
 245 223 l 1,5,-1
 252 223 l 1,6,-1
 296 479 l 1,7,-1
 500 479 l 1,0,-1
EndSplineSet
EndChar

StartChar: w
Encoding: 119 119 93
Width: 668
Flags: HMW
HStem: 0 21G<72 291 72 72 362 585 362 362> 459 20G<2 196 196 196 248 415 415 415 468 655 655 655>
LayerCount: 2
Fore
SplineSet
655 479 m 1,0,-1
 585 0 l 1,1,-1
 362 0 l 1,2,-1
 328 164 l 1,3,-1
 323 164 l 1,4,-1
 291 0 l 1,5,-1
 72 0 l 1,6,-1
 2 479 l 1,7,-1
 196 479 l 1,8,-1
 214 266 l 1,9,-1
 220 266 l 1,10,-1
 248 479 l 1,11,-1
 415 479 l 1,12,-1
 441 266 l 1,13,-1
 448 266 l 1,14,-1
 468 479 l 1,15,-1
 655 479 l 1,0,-1
EndSplineSet
EndChar

StartChar: x
Encoding: 120 120 94
Width: 496
Flags: HMW
HStem: 0 21G<0 215 0 0 275 496 275 275> 459 20G<1 228 228 228 279 493 493 493>
LayerCount: 2
Fore
SplineSet
255 356 m 1,0,-1
 279 479 l 1,1,-1
 493 479 l 1,2,-1
 395 236 l 1,3,-1
 496 0 l 1,4,-1
 275 0 l 1,5,-1
 247 119 l 1,6,-1
 241 119 l 1,7,-1
 215 0 l 1,8,-1
 0 0 l 1,9,-1
 100 231 l 1,10,11
 95 243 95 243 57.5 338 c 128,-1,12
 20 433 20 433 1 479 c 1,13,-1
 228 479 l 1,14,-1
 249 356 l 1,15,-1
 255 356 l 1,0,-1
EndSplineSet
EndChar

StartChar: y
Encoding: 121 121 95
Width: 503
Flags: HMW
HStem: -137 143<45 102 102 110 22 165 45 45> 459 20G<-8 212 212 212 305 511 511 511>
LayerCount: 2
Fore
SplineSet
258 220 m 1,0,1
 304 473 304 473 305 479 c 1,2,-1
 511 479 l 1,3,-1
 372 -8 l 2,4,5
 351 -82 351 -82 307.5 -109.5 c 128,-1,6
 264 -137 264 -137 165 -137 c 2,7,-1
 45 -137 l 1,8,-1
 22 6 l 1,9,-1
 102 6 l 2,10,11
 128 6 128 6 128 23 c 0,12,13
 128 34 128 34 123 51 c 2,14,-1
 -8 479 l 1,15,-1
 212 479 l 1,16,-1
 254 220 l 1,17,-1
 258 220 l 1,0,1
EndSplineSet
EndChar

StartChar: z
Encoding: 122 122 96
Width: 446
Flags: HMW
HStem: 0 149<277 434 277 434> 322 157<5 167 5 424>
LayerCount: 2
Fore
SplineSet
434 0 m 1,0,-1
 15 0 l 1,1,-1
 10 113 l 1,2,-1
 167 322 l 1,3,-1
 5 322 l 1,4,-1
 5 479 l 1,5,-1
 424 479 l 1,6,-1
 430 374 l 1,7,-1
 277 149 l 1,8,-1
 434 149 l 1,9,-1
 434 0 l 1,0,-1
EndSplineSet
EndChar

StartChar: eth
Encoding: 240 240 97
Width: 521
Flags: HMW
HStem: -10 130<245.5 275.5 245.5 341> 283 117<151 277.5> 651 20G<413 413>
LayerCount: 2
Fore
SplineSet
215 400 m 0,0,1
 253 400 253 400 276 396 c 1,2,-1
 280 400 l 1,3,4
 267 430 267 430 240 447 c 1,5,-1
 124 394 l 1,6,-1
 124 491 l 1,7,-1
 139 500 l 1,8,-1
 139 504 l 1,9,10
 117 508 117 508 65 508 c 1,11,-1
 65 655 l 1,12,13
 202 655 202 655 302 621 c 1,14,-1
 413 671 l 1,15,-1
 413 554 l 1,16,-1
 395 543 l 1,17,18
 506 446 506 446 506 265 c 0,19,20
 506 134 506 134 443.5 62 c 128,-1,21
 381 -10 381 -10 258.5 -10 c 128,-1,22
 136 -10 136 -10 75.5 41.5 c 128,-1,23
 15 93 15 93 15 208 c 0,24,25
 15 302 15 302 66.5 351 c 128,-1,26
 118 400 118 400 215 400 c 0,0,1
289 266 m 128,-1,28
 283 283 283 283 262 283 c 128,-1,29
 241 283 241 283 234 261 c 128,-1,30
 227 239 227 239 227 196.5 c 128,-1,31
 227 154 227 154 233.5 137 c 128,-1,32
 240 120 240 120 261 120 c 128,-1,33
 282 120 282 120 288.5 141.5 c 128,-1,34
 295 163 295 163 295 206 c 128,-1,27
 295 249 295 249 289 266 c 128,-1,28
EndSplineSet
EndChar

StartChar: thorn
Encoding: 254 254 98
Width: 519
Flags: HMW
HStem: -137 21G<30 238 30 30> -10 142<263 391> 337 154<261.5 397.5> 621 20G<30 231 231 231>
LayerCount: 2
Fore
SplineSet
312 -10 m 0,0,1
 275 -10 275 -10 238 4 c 1,2,-1
 238 -137 l 1,3,-1
 30 -137 l 1,4,-1
 30 641 l 1,5,-1
 231 641 l 1,6,-1
 231 470 l 1,7,8
 271 491 271 491 323 491 c 0,9,10
 431 491 431 491 469 435.5 c 128,-1,11
 507 380 507 380 507 246.5 c 128,-1,12
 507 113 507 113 466 51.5 c 128,-1,13
 425 -10 425 -10 312 -10 c 0,0,1
294 154.5 m 128,-1,15
 299 177 299 177 299 233.5 c 128,-1,16
 299 290 299 290 293 313.5 c 128,-1,17
 287 337 287 337 267 337 c 0,18,19
 254 337 254 337 236 329 c 1,20,-1
 236 136 l 1,21,22
 254 132 254 132 268 132 c 0,23,14
 289 132 289 132 294 154.5 c 128,-1,15
EndSplineSet
EndChar

StartChar: germandbls
Encoding: 223 223 99
Width: 567
Flags: HMW
HStem: -6 150<302 433> 0 21G<49 259 49 49 277 277> 488 161<278.5 303.5>
LayerCount: 2
Fore
SplineSet
259 459 m 2,0,-1
 259 0 l 1,1,-1
 49 0 l 1,2,-1
 49 330 l 1,3,-1
 1 330 l 1,4,-1
 1 465 l 1,5,-1
 49 465 l 1,6,-1
 49 473 l 2,7,8
 49 649 49 649 291 649 c 0,9,10
 415 649 415 649 476.5 601 c 128,-1,11
 538 553 538 553 538 463 c 0,12,13
 538 416 538 416 524.5 389 c 128,-1,14
 511 362 511 362 477 339 c 1,15,-1
 477 334 l 1,16,17
 561 296 561 296 561 186 c 0,18,19
 561 -6 561 -6 365 -6 c 0,20,21
 326 -6 326 -6 277 0 c 1,22,-1
 277 145 l 1,23,24
 292 144 292 144 305 144 c 0,25,26
 351 144 351 144 351 191 c 0,27,28
 351 221 351 221 332.5 233.5 c 128,-1,29
 314 246 314 246 277 246 c 1,30,-1
 277 383 l 1,31,32
 330 383 330 383 330 435.5 c 0,33,34
 330 488 330 488 288 488 c 0,35,36
 259 488 259 488 259 459 c 2,0,-1
EndSplineSet
EndChar

StartChar: ae
Encoding: 230 230 100
Width: 731
Flags: HMW
HStem: -10 141<500 527> 186 91<455 523 451 706 455 455> 330 161<235 237.5 473.5 501.5>
VStem: 14 190<138 159.5 138 194.5>
LayerCount: 2
Fore
SplineSet
491 491 m 0,0,1
 611 491 611 491 662.5 441 c 128,-1,2
 714 391 714 391 714 298 c 0,3,4
 714 267 714 267 706 186 c 1,5,-1
 455 186 l 1,6,7
 459 131 459 131 520 131 c 0,8,9
 568 131 568 131 673 153 c 1,10,-1
 690 18 l 1,11,12
 584 -10 584 -10 487.5 -10 c 0,13,14
 391 -10 391 -10 333 39 c 1,15,16
 258 -10 258 -10 160 -10 c 0,17,18
 89 -10 89 -10 51.5 28.5 c 128,-1,19
 14 67 14 67 14 135 c 0,20,21
 14 219 14 219 70.5 252 c 128,-1,22
 127 285 127 285 250 294 c 1,23,-1
 250 312 l 2,24,25
 250 330 250 330 231 330 c 0,26,27
 180 330 180 330 56 299 c 1,28,-1
 25 457 l 1,29,30
 168 491 168 491 280 491 c 0,31,32
 342 491 342 491 381 466 c 1,33,34
 424 491 424 491 491 491 c 0,0,1
227 119 m 0,35,36
 256 119 256 119 256 149 c 2,37,-1
 256 187 l 1,38,39
 204 180 204 180 204 147 c 0,40,41
 204 119 204 119 227 119 c 0,35,36
488 330 m 0,42,43
 451 330 451 330 451 277 c 1,44,-1
 523 277 l 1,45,-1
 523 292 l 2,46,47
 523 330 523 330 488 330 c 0,42,43
EndSplineSet
EndChar

StartChar: oe
Encoding: 339 339 101
Width: 775
Flags: HMW
HStem: -10 141<544 571> 186 91<499 567 495 750 499 499> 330 161<517.5 545.5> 344 147<241.5 271>
LayerCount: 2
Fore
SplineSet
258 491 m 0,0,1
 344 491 344 491 397 463 c 1,2,3
 453 491 453 491 535 491 c 0,4,5
 655 491 655 491 706.5 441 c 128,-1,6
 758 391 758 391 758 298 c 0,7,8
 758 267 758 267 750 186 c 1,9,-1
 499 186 l 1,10,11
 503 131 503 131 564 131 c 0,12,13
 612 131 612 131 717 153 c 1,14,-1
 734 18 l 1,15,16
 628 -10 628 -10 543.5 -10 c 0,17,18
 459 -10 459 -10 402 20 c 1,19,20
 348 -10 348 -10 258 -10 c 0,21,22
 131 -10 131 -10 73 50 c 128,-1,23
 15 110 15 110 15 241.5 c 0,24,25
 15 373 15 373 73.5 432 c 128,-1,26
 132 491 132 491 258 491 c 0,0,1
256 344 m 128,-1,28
 235 344 235 344 229.5 326.5 c 128,-1,29
 224 309 224 309 224 252 c 2,30,-1
 224 228 l 2,31,32
 224 164 224 164 229.5 145.5 c 128,-1,33
 235 127 235 127 256 127 c 0,34,35
 277 127 277 127 282.5 145.5 c 128,-1,36
 288 164 288 164 288 223 c 2,37,-1
 288 251 l 2,38,39
 288 309 288 309 282.5 326.5 c 128,-1,27
 277 344 277 344 256 344 c 128,-1,28
532 330 m 0,40,41
 495 330 495 330 495 277 c 1,42,-1
 567 277 l 1,43,-1
 567 292 l 2,44,45
 567 330 567 330 532 330 c 0,40,41
EndSplineSet
EndChar

StartChar: ff
Encoding: 64256 64256 102
Width: 628
Flags: HMW
HStem: 0 21G<49 258 49 49 345 554 345 345> 330 135<1 49 1 49 258 345 258 258 554 626 554 554> 489 159<155.5 325>
LayerCount: 2
Fore
SplineSet
506 648 m 0,0,1
 573 648 573 648 655 643 c 1,2,-1
 639 486 l 1,3,4
 571 492 571 492 561.5 492 c 0,5,6
 552 492 552 492 552 482 c 2,7,-1
 552 465 l 1,8,-1
 637 465 l 1,9,-1
 626 330 l 1,10,-1
 554 330 l 1,11,-1
 554 0 l 1,12,-1
 345 0 l 1,13,-1
 345 330 l 1,14,-1
 258 330 l 1,15,-1
 258 0 l 1,16,-1
 49 0 l 1,17,-1
 49 330 l 1,18,-1
 1 330 l 1,19,-1
 1 465 l 1,20,-1
 49 465 l 1,21,-1
 49 513 l 2,22,23
 49 648 49 648 210 648 c 0,24,25
 249 648 249 648 339 644 c 1,26,-1
 325 489 l 1,27,28
 286 492 286 492 266 492 c 0,29,30
 256 492 256 492 256 482 c 2,31,-1
 256 465 l 1,32,-1
 345 465 l 1,33,-1
 345 513 l 2,34,35
 345 648 345 648 506 648 c 0,0,1
EndSplineSet
EndChar

StartChar: fi
Encoding: 64257 64257 103
Width: 589
Flags: HMW
HStem: 0 21G<49 258 49 49 345 553 345 345> 330 135<1 49 1 49 258 345 258 258> 488 160 635 20G<414.5 483>
LayerCount: 2
Fore
SplineSet
553 0 m 1,0,-1
 345 0 l 1,1,-1
 345 330 l 1,2,-1
 258 330 l 1,3,-1
 258 0 l 1,4,-1
 49 0 l 1,5,-1
 49 330 l 1,6,-1
 1 330 l 1,7,-1
 1 465 l 1,8,-1
 49 465 l 1,9,-1
 49 513 l 2,10,11
 49 648 49 648 210 648 c 0,12,13
 272 648 272 648 331 645 c 1,14,-1
 319 489 l 1,15,16
 280 492 280 492 268 492 c 0,17,18
 256 492 256 492 256 482 c 2,19,-1
 256 465 l 1,20,-1
 553 465 l 1,21,-1
 553 0 l 1,0,-1
341 570 m 0,22,23
 341 655 341 655 448 655 c 128,-1,24
 555 655 555 655 555 570 c 0,25,26
 555 526 555 526 528.5 507 c 128,-1,27
 502 488 502 488 448 488 c 128,-1,28
 394 488 394 488 367.5 506.5 c 128,-1,29
 341 525 341 525 341 570 c 0,22,23
EndSplineSet
EndChar

StartChar: fj
Encoding: 65537 -1 104
Width: 587
Flags: HMW
HStem: -142 149<295 328 328 336 278 361 295 295> 0 21G<49 258 49 49> 330 135<1 49 1 49 258 346 258 258> 488 160 635 20G<412.5 481>
LayerCount: 2
Fore
SplineSet
553 465 m 1,0,-1
 553 -4 l 2,1,2
 553 -83 553 -83 512.5 -112.5 c 128,-1,3
 472 -142 472 -142 361 -142 c 2,4,-1
 295 -142 l 1,5,-1
 278 7 l 1,6,-1
 328 7 l 2,7,8
 340 7 340 7 343 10 c 128,-1,9
 346 13 346 13 346 22 c 2,10,-1
 346 330 l 1,11,-1
 258 330 l 1,12,-1
 258 0 l 1,13,-1
 49 0 l 1,14,-1
 49 330 l 1,15,-1
 1 330 l 1,16,-1
 1 465 l 1,17,-1
 49 465 l 1,18,-1
 49 513 l 2,19,20
 49 648 49 648 210 648 c 0,21,22
 274 648 274 648 331 645 c 1,23,-1
 319 489 l 1,24,25
 281 492 281 492 268.5 492 c 0,26,27
 256 492 256 492 256 482 c 2,28,-1
 256 465 l 1,29,-1
 553 465 l 1,0,-1
339 570 m 0,30,31
 339 655 339 655 446 655 c 128,-1,32
 553 655 553 655 553 570 c 0,33,34
 553 526 553 526 526.5 507 c 128,-1,35
 500 488 500 488 446 488 c 128,-1,36
 392 488 392 488 365.5 506.5 c 128,-1,37
 339 525 339 525 339 570 c 0,30,31
EndSplineSet
EndChar

StartChar: fl
Encoding: 64258 64258 105
Width: 599
Flags: HMW
HStem: -10 21G<441.5 490 490 572> 0 21G<49 258 49 49> 330 135<1 49 1 49 258 345 258 258> 628 20G<155.5 232>
LayerCount: 2
Fore
SplineSet
345 124 m 2,0,-1
 345 330 l 1,1,-1
 258 330 l 1,2,-1
 258 0 l 1,3,-1
 49 0 l 1,4,-1
 49 330 l 1,5,-1
 1 330 l 1,6,-1
 1 465 l 1,7,-1
 49 465 l 1,8,-1
 49 513 l 2,9,10
 49 648 49 648 210 648 c 0,11,12
 247 648 247 648 331 641 c 1,13,-1
 319 489 l 1,14,15
 285 492 285 492 270.5 492 c 0,16,17
 256 492 256 492 256 482 c 2,18,-1
 256 465 l 1,19,-1
 345 465 l 1,20,-1
 345 641 l 1,21,-1
 550 641 l 1,22,-1
 550 170 l 2,23,24
 550 143 550 143 587 143 c 1,25,-1
 572 -10 l 1,26,-1
 490 -10 l 2,27,28
 345 -10 345 -10 345 124 c 2,0,-1
EndSplineSet
EndChar

StartChar: ffi
Encoding: 64259 64259 106
Width: 885
Flags: HMW
HStem: 0 21G<49 258 49 49 346 555 346 346 642 850 642 642> 330 135<1 49 1 49 258 346 258 258 555 642 555 555> 468 20G<710 779> 489 159<155.5 325> 635 20G<710.5 779>
LayerCount: 2
Fore
SplineSet
850 0 m 1,0,-1
 642 0 l 1,1,-1
 642 330 l 1,2,-1
 555 330 l 1,3,-1
 555 0 l 1,4,-1
 346 0 l 1,5,-1
 346 330 l 1,6,-1
 258 330 l 1,7,-1
 258 0 l 1,8,-1
 49 0 l 1,9,-1
 49 330 l 1,10,-1
 1 330 l 1,11,-1
 1 465 l 1,12,-1
 49 465 l 1,13,-1
 49 513 l 2,14,15
 49 648 49 648 210 648 c 0,16,17
 249 648 249 648 339 644 c 1,18,-1
 325 489 l 1,19,20
 286 492 286 492 266 492 c 0,21,22
 256 492 256 492 256 482 c 2,23,-1
 256 465 l 1,24,-1
 346 465 l 1,25,-1
 346 513 l 2,26,27
 346 648 346 648 507 648 c 0,28,29
 570 648 570 648 628 645 c 1,30,-1
 616 489 l 1,31,32
 577 492 577 492 565 492 c 0,33,34
 553 492 553 492 553 482 c 2,35,-1
 553 465 l 1,36,-1
 850 465 l 1,37,-1
 850 0 l 1,0,-1
637 570 m 0,38,39
 637 655 637 655 744 655 c 128,-1,40
 851 655 851 655 851 570 c 0,41,42
 851 526 851 526 824.5 507 c 128,-1,43
 798 488 798 488 744 488 c 128,-1,44
 690 488 690 488 663.5 506.5 c 128,-1,45
 637 525 637 525 637 570 c 0,38,39
EndSplineSet
EndChar

StartChar: ffl
Encoding: 64260 64260 107
Width: 895
Flags: HMW
HStem: -10 21G<737.5 786 786 868> 0 21G<49 258 49 49 345 554 345 345> 330 135<1 49 1 49 258 345 258 258 554 641 554 554> 489 159<155.5 325>
LayerCount: 2
Fore
SplineSet
506 648 m 0,0,1
 543 648 543 648 627 641 c 1,2,-1
 615 489 l 1,3,4
 581 492 581 492 566.5 492 c 0,5,6
 552 492 552 492 552 482 c 2,7,-1
 552 465 l 1,8,-1
 641 465 l 1,9,-1
 641 641 l 1,10,-1
 846 641 l 1,11,-1
 846 170 l 2,12,13
 846 143 846 143 883 143 c 1,14,-1
 868 -10 l 1,15,-1
 786 -10 l 2,16,17
 641 -10 641 -10 641 124 c 2,18,-1
 641 330 l 1,19,-1
 554 330 l 1,20,-1
 554 0 l 1,21,-1
 345 0 l 1,22,-1
 345 330 l 1,23,-1
 258 330 l 1,24,-1
 258 0 l 1,25,-1
 49 0 l 1,26,-1
 49 330 l 1,27,-1
 1 330 l 1,28,-1
 1 465 l 1,29,-1
 49 465 l 1,30,-1
 49 513 l 2,31,32
 49 648 49 648 210 648 c 0,33,34
 249 648 249 648 339 644 c 1,35,-1
 325 489 l 1,36,37
 286 492 286 492 266 492 c 0,38,39
 256 492 256 492 256 482 c 2,40,-1
 256 465 l 1,41,-1
 345 465 l 1,42,-1
 345 513 l 2,43,44
 345 648 345 648 506 648 c 0,0,1
EndSplineSet
EndChar

StartChar: agrave
Encoding: 224 224 108
Width: 501
Flags: HMW
HStem: -10 137<373 495> 330 161<237 237.5> 517 130<219 219 219 293 92 361>
VStem: 14 190<138 159.5 138 194.5> 250 197<140.5 312 140.5 317>
LayerCount: 2
Fore
SplineSet
453 350 m 1,0,-1
 447 150 l 2,1,2
 447 136 447 136 457.5 131.5 c 128,-1,3
 468 127 468 127 495 127 c 1,4,-1
 476 -6 l 1,5,6
 416 -10 416 -10 395 -10 c 0,7,8
 322 -10 322 -10 289 29 c 1,9,-1
 282 29 l 1,10,11
 234 -10 234 -10 161.5 -10 c 128,-1,12
 89 -10 89 -10 51.5 28.5 c 128,-1,13
 14 67 14 67 14 135 c 0,14,15
 14 219 14 219 70.5 252 c 128,-1,16
 127 285 127 285 250 294 c 1,17,-1
 250 312 l 2,18,19
 250 330 250 330 231 330 c 0,20,21
 180 330 180 330 56 299 c 1,22,-1
 25 457 l 1,23,24
 168 491 168 491 271 491 c 128,-1,25
 374 491 374 491 413.5 457 c 128,-1,26
 453 423 453 423 453 350 c 1,0,-1
227 119 m 0,27,28
 256 119 256 119 256 149 c 2,29,-1
 256 187 l 1,30,31
 204 180 204 180 204 147 c 0,32,33
 204 119 204 119 227 119 c 0,27,28
219 517 m 1,34,-1
 92 647 l 1,35,-1
 293 647 l 1,36,-1
 361 517 l 1,37,-1
 219 517 l 1,34,-1
EndSplineSet
EndChar

StartChar: acircumflex
Encoding: 226 226 109
Width: 501
Flags: HMW
HStem: -10 137<373 495> 330 161<237 237.5> 511 131<157 211 79 335 282 335 157 413 282 282>
VStem: 14 190<138 159.5 138 194.5> 250 197<140.5 312 140.5 317>
LayerCount: 2
Fore
SplineSet
453 350 m 1,0,-1
 447 150 l 2,1,2
 447 136 447 136 457.5 131.5 c 128,-1,3
 468 127 468 127 495 127 c 1,4,-1
 476 -6 l 1,5,6
 416 -10 416 -10 395 -10 c 0,7,8
 322 -10 322 -10 289 29 c 1,9,-1
 282 29 l 1,10,11
 234 -10 234 -10 161.5 -10 c 128,-1,12
 89 -10 89 -10 51.5 28.5 c 128,-1,13
 14 67 14 67 14 135 c 0,14,15
 14 219 14 219 70.5 252 c 128,-1,16
 127 285 127 285 250 294 c 1,17,-1
 250 312 l 2,18,19
 250 330 250 330 231 330 c 0,20,21
 180 330 180 330 56 299 c 1,22,-1
 25 457 l 1,23,24
 168 491 168 491 271 491 c 128,-1,25
 374 491 374 491 413.5 457 c 128,-1,26
 453 423 453 423 453 350 c 1,0,-1
227 119 m 0,27,28
 256 119 256 119 256 149 c 2,29,-1
 256 187 l 1,30,31
 204 180 204 180 204 147 c 0,32,33
 204 119 204 119 227 119 c 0,27,28
335 642 m 1,34,-1
 413 511 l 1,35,-1
 282 511 l 1,36,-1
 247 563 l 1,37,-1
 211 511 l 1,38,-1
 79 511 l 1,39,-1
 157 642 l 1,40,-1
 335 642 l 1,34,-1
EndSplineSet
EndChar

StartChar: aacute
Encoding: 225 225 110
Width: 501
Flags: HMW
HStem: -10 137<373 495> 330 161<237 237.5> 517 130<241 316 177 455>
VStem: 14 190<138 159.5 138 194.5> 250 197<140.5 312 140.5 317>
LayerCount: 2
Fore
SplineSet
453 350 m 1,0,-1
 447 150 l 2,1,2
 447 136 447 136 457.5 131.5 c 128,-1,3
 468 127 468 127 495 127 c 1,4,-1
 476 -6 l 1,5,6
 416 -10 416 -10 395 -10 c 0,7,8
 322 -10 322 -10 289 29 c 1,9,-1
 282 29 l 1,10,11
 234 -10 234 -10 161.5 -10 c 128,-1,12
 89 -10 89 -10 51.5 28.5 c 128,-1,13
 14 67 14 67 14 135 c 0,14,15
 14 219 14 219 70.5 252 c 128,-1,16
 127 285 127 285 250 294 c 1,17,-1
 250 312 l 2,18,19
 250 330 250 330 231 330 c 0,20,21
 180 330 180 330 56 299 c 1,22,-1
 25 457 l 1,23,24
 168 491 168 491 271 491 c 128,-1,25
 374 491 374 491 413.5 457 c 128,-1,26
 453 423 453 423 453 350 c 1,0,-1
227 119 m 0,27,28
 256 119 256 119 256 149 c 2,29,-1
 256 187 l 1,30,31
 204 180 204 180 204 147 c 0,32,33
 204 119 204 119 227 119 c 0,27,28
455 647 m 1,34,-1
 316 517 l 1,35,-1
 177 517 l 1,36,-1
 241 647 l 1,37,-1
 455 647 l 1,34,-1
EndSplineSet
EndChar

StartChar: adieresis
Encoding: 228 228 111
Width: 501
Flags: HMW
HStem: -10 137<373 495> 330 161<237 237.5> 510 131<125 175.5 311 361.5>
VStem: 14 190<138 159.5 138 194.5> 73 155<553 597.5 553 597.5> 250 164 250 197<140.5 312 140.5 317>
LayerCount: 2
Fore
SplineSet
453 350 m 1,0,-1
 447 150 l 2,1,2
 447 136 447 136 457.5 131.5 c 128,-1,3
 468 127 468 127 495 127 c 1,4,-1
 476 -6 l 1,5,6
 416 -10 416 -10 395 -10 c 0,7,8
 322 -10 322 -10 289 29 c 1,9,-1
 282 29 l 1,10,11
 234 -10 234 -10 161.5 -10 c 128,-1,12
 89 -10 89 -10 51.5 28.5 c 128,-1,13
 14 67 14 67 14 135 c 0,14,15
 14 219 14 219 70.5 252 c 128,-1,16
 127 285 127 285 250 294 c 1,17,-1
 250 312 l 2,18,19
 250 330 250 330 231 330 c 0,20,21
 180 330 180 330 56 299 c 1,22,-1
 25 457 l 1,23,24
 168 491 168 491 271 491 c 128,-1,25
 374 491 374 491 413.5 457 c 128,-1,26
 453 423 453 423 453 350 c 1,0,-1
227 119 m 0,27,28
 256 119 256 119 256 149 c 2,29,-1
 256 187 l 1,30,31
 204 180 204 180 204 147 c 0,32,33
 204 119 204 119 227 119 c 0,27,28
73 576 m 0,34,35
 73 608 73 608 93 624.5 c 128,-1,36
 113 641 113 641 148 641 c 0,37,38
 228 641 228 641 228 576 c 0,39,40
 228 542 228 542 208.5 526 c 128,-1,41
 189 510 189 510 148 510 c 0,42,43
 73 510 73 510 73 576 c 0,34,35
259 576 m 0,44,45
 259 608 259 608 279 624.5 c 128,-1,46
 299 641 299 641 334 641 c 0,47,48
 414 641 414 641 414 576 c 0,49,50
 414 542 414 542 394.5 526 c 128,-1,51
 375 510 375 510 334 510 c 0,52,53
 259 510 259 510 259 576 c 0,44,45
EndSplineSet
EndChar

StartChar: atilde
Encoding: 227 227 112
Width: 501
Flags: HMW
HStem: -10 137<373 495> 330 161<237 237.5> 503 154<66 417>
VStem: 14 190<138 159.5 138 194.5> 66 138 250 197<140.5 312 140.5 317>
LayerCount: 2
Fore
SplineSet
453 350 m 1,0,-1
 447 150 l 2,1,2
 447 136 447 136 457.5 131.5 c 128,-1,3
 468 127 468 127 495 127 c 1,4,-1
 476 -6 l 1,5,6
 416 -10 416 -10 395 -10 c 0,7,8
 322 -10 322 -10 289 29 c 1,9,-1
 282 29 l 1,10,11
 234 -10 234 -10 161.5 -10 c 128,-1,12
 89 -10 89 -10 51.5 28.5 c 128,-1,13
 14 67 14 67 14 135 c 0,14,15
 14 219 14 219 70.5 252 c 128,-1,16
 127 285 127 285 250 294 c 1,17,-1
 250 312 l 2,18,19
 250 330 250 330 231 330 c 0,20,21
 180 330 180 330 56 299 c 1,22,-1
 25 457 l 1,23,24
 168 491 168 491 271 491 c 128,-1,25
 374 491 374 491 413.5 457 c 128,-1,26
 453 423 453 423 453 350 c 1,0,-1
227 119 m 0,27,28
 256 119 256 119 256 149 c 2,29,-1
 256 187 l 1,30,31
 204 180 204 180 204 147 c 0,32,33
 204 119 204 119 227 119 c 0,27,28
417 657 m 1,34,-1
 417 645 l 2,35,36
 417 579 417 579 395.5 544 c 128,-1,37
 374 509 374 509 310 509 c 0,38,39
 273 509 273 509 199 535 c 1,40,-1
 199 503 l 1,41,-1
 66 503 l 1,42,-1
 66 516 l 2,43,44
 66 583 66 583 88.5 617.5 c 128,-1,45
 111 652 111 652 168 652 c 0,46,47
 198 652 198 652 284 626 c 1,48,-1
 284 657 l 1,49,-1
 417 657 l 1,34,-1
EndSplineSet
EndChar

StartChar: aring
Encoding: 229 229 113
Width: 501
Flags: HMW
HStem: -10 137<373 495> 330 161<237 237.5> 505 55<237.5 253.5 237.5 280.5> 614 54<237.5 253>
VStem: 14 190<138 159.5 138 194.5> 250 197<140.5 312 140.5 317> 265 83<578.5 593.5>
LayerCount: 2
Fore
SplineSet
453 350 m 1,0,-1
 447 150 l 2,1,2
 447 136 447 136 457.5 131.5 c 128,-1,3
 468 127 468 127 495 127 c 1,4,-1
 476 -6 l 1,5,6
 416 -10 416 -10 395 -10 c 0,7,8
 322 -10 322 -10 289 29 c 1,9,-1
 282 29 l 1,10,11
 234 -10 234 -10 161.5 -10 c 128,-1,12
 89 -10 89 -10 51.5 28.5 c 128,-1,13
 14 67 14 67 14 135 c 0,14,15
 14 219 14 219 70.5 252 c 128,-1,16
 127 285 127 285 250 294 c 1,17,-1
 250 312 l 2,18,19
 250 330 250 330 231 330 c 0,20,21
 180 330 180 330 56 299 c 1,22,-1
 25 457 l 1,23,24
 168 491 168 491 271 491 c 128,-1,25
 374 491 374 491 413.5 457 c 128,-1,26
 453 423 453 423 453 350 c 1,0,-1
227 119 m 0,27,28
 256 119 256 119 256 149 c 2,29,-1
 256 187 l 1,30,31
 204 180 204 180 204 147 c 0,32,33
 204 119 204 119 227 119 c 0,27,28
245 614 m 128,-1,35
 225 614 225 614 225 587 c 128,-1,36
 225 560 225 560 245 560 c 128,-1,37
 265 560 265 560 265 587 c 128,-1,34
 265 614 265 614 245 614 c 128,-1,35
143 584 m 0,38,39
 143 668 143 668 245.5 668 c 128,-1,40
 348 668 348 668 348 589 c 0,41,42
 348 505 348 505 245 505 c 0,43,44
 195 505 195 505 169 526 c 128,-1,45
 143 547 143 547 143 584 c 0,38,39
EndSplineSet
EndChar

StartChar: ccedilla
Encoding: 231 231 114
Width: 394
Flags: HMW
HStem: -168 21G<188 243.5> 334 157<245 270.5 162.5 276>
LayerCount: 2
Fore
SplineSet
239 491 m 0,0,1
 320 491 320 491 392 464 c 1,2,-1
 371 306 l 1,3,4
 293 334 293 334 265.5 334 c 0,5,6
 238 334 238 334 229.5 310 c 128,-1,7
 221 286 221 286 221 236 c 0,8,9
 221 186 221 186 229 163.5 c 128,-1,10
 237 141 237 141 267 141 c 0,11,12
 297 141 297 141 362 154 c 1,13,-1
 384 15 l 1,14,15
 308 -8 308 -8 253 -10 c 1,16,17
 248 -17 248 -17 248 -20.5 c 0,18,19
 248 -24 248 -24 265.5 -31 c 128,-1,20
 283 -38 283 -38 300.5 -53.5 c 128,-1,21
 318 -69 318 -69 318 -94 c 0,22,23
 318 -168 318 -168 209 -168 c 0,24,25
 144 -168 144 -168 100 -138 c 1,26,-1
 137 -67 l 1,27,28
 183 -98 183 -98 207 -98 c 0,29,30
 214 -98 214 -98 214 -92 c 0,31,32
 214 -88 214 -88 201 -81 c 2,33,-1
 175 -69 l 1,34,35
 152 -56 152 -56 152 -37 c 128,-1,36
 152 -18 152 -18 170 -3 c 1,37,38
 92 15 92 15 52 76 c 128,-1,39
 12 137 12 137 12 231 c 0,40,41
 12 348 12 348 70 419.5 c 128,-1,42
 128 491 128 491 239 491 c 0,0,1
EndSplineSet
EndChar

StartChar: egrave
Encoding: 232 232 115
Width: 498
Flags: HMW
HStem: -10 142<268 294> 186 91<222 290 218 473 222 222> 330 161<240 268.5> 517 130<223 223 223 297 96 365>
LayerCount: 2
Fore
SplineSet
255 330 m 0,0,1
 234 330 234 330 226 317 c 128,-1,2
 218 304 218 304 218 277 c 1,3,-1
 290 277 l 1,4,-1
 290 293 l 2,5,6
 290 330 290 330 255 330 c 0,0,1
74.5 425.5 m 128,-1,8
 137 491 137 491 258.5 491 c 128,-1,9
 380 491 380 491 430.5 441 c 128,-1,10
 481 391 481 391 481 298 c 0,11,12
 481 261 481 261 473 186 c 1,13,-1
 222 186 l 1,14,15
 226 132 226 132 288 132 c 0,16,17
 317 132 317 132 440 153 c 1,18,-1
 457 18 l 1,19,20
 351 -10 351 -10 259 -10 c 0,21,22
 139 -10 139 -10 75.5 56 c 128,-1,23
 12 122 12 122 12 241 c 128,-1,7
 12 360 12 360 74.5 425.5 c 128,-1,8
223 517 m 1,24,-1
 96 647 l 1,25,-1
 297 647 l 1,26,-1
 365 517 l 1,27,-1
 223 517 l 1,24,-1
EndSplineSet
EndChar

StartChar: ecircumflex
Encoding: 234 234 116
Width: 498
Flags: HMW
HStem: -10 142<268 294> 186 91<222 290 218 473 222 222> 330 161<240 268.5> 511 131<167 221 89 345 292 345 167 423 292 292>
LayerCount: 2
Fore
SplineSet
255 330 m 0,0,1
 234 330 234 330 226 317 c 128,-1,2
 218 304 218 304 218 277 c 1,3,-1
 290 277 l 1,4,-1
 290 293 l 2,5,6
 290 330 290 330 255 330 c 0,0,1
74.5 425.5 m 128,-1,8
 137 491 137 491 258.5 491 c 128,-1,9
 380 491 380 491 430.5 441 c 128,-1,10
 481 391 481 391 481 298 c 0,11,12
 481 261 481 261 473 186 c 1,13,-1
 222 186 l 1,14,15
 226 132 226 132 288 132 c 0,16,17
 317 132 317 132 440 153 c 1,18,-1
 457 18 l 1,19,20
 351 -10 351 -10 259 -10 c 0,21,22
 139 -10 139 -10 75.5 56 c 128,-1,23
 12 122 12 122 12 241 c 128,-1,7
 12 360 12 360 74.5 425.5 c 128,-1,8
345 642 m 1,24,-1
 423 511 l 1,25,-1
 292 511 l 1,26,-1
 257 563 l 1,27,-1
 221 511 l 1,28,-1
 89 511 l 1,29,-1
 167 642 l 1,30,-1
 345 642 l 1,24,-1
EndSplineSet
EndChar

StartChar: eacute
Encoding: 233 233 117
Width: 498
Flags: HMW
HStem: -10 142<268 294> 186 91<222 290 218 473 222 222> 330 161<240 268.5> 517 130<241 316 177 455>
LayerCount: 2
Fore
SplineSet
255 330 m 0,0,1
 234 330 234 330 226 317 c 128,-1,2
 218 304 218 304 218 277 c 1,3,-1
 290 277 l 1,4,-1
 290 293 l 2,5,6
 290 330 290 330 255 330 c 0,0,1
74.5 425.5 m 128,-1,8
 137 491 137 491 258.5 491 c 128,-1,9
 380 491 380 491 430.5 441 c 128,-1,10
 481 391 481 391 481 298 c 0,11,12
 481 261 481 261 473 186 c 1,13,-1
 222 186 l 1,14,15
 226 132 226 132 288 132 c 0,16,17
 317 132 317 132 440 153 c 1,18,-1
 457 18 l 1,19,20
 351 -10 351 -10 259 -10 c 0,21,22
 139 -10 139 -10 75.5 56 c 128,-1,23
 12 122 12 122 12 241 c 128,-1,7
 12 360 12 360 74.5 425.5 c 128,-1,8
455 647 m 1,24,-1
 316 517 l 1,25,-1
 177 517 l 1,26,-1
 241 647 l 1,27,-1
 455 647 l 1,24,-1
EndSplineSet
EndChar

StartChar: edieresis
Encoding: 235 235 118
Width: 498
Flags: HMW
HStem: -10 142<268 294> 186 91<222 290 218 473 222 222> 330 161<240 268.5> 510 131<138 188.5 324 374.5>
VStem: 86 155<553 597.5 553 597.5> 272 155<553 597.5 553 597.5>
LayerCount: 2
Fore
SplineSet
255 330 m 0,0,1
 234 330 234 330 226 317 c 128,-1,2
 218 304 218 304 218 277 c 1,3,-1
 290 277 l 1,4,-1
 290 293 l 2,5,6
 290 330 290 330 255 330 c 0,0,1
74.5 425.5 m 128,-1,8
 137 491 137 491 258.5 491 c 128,-1,9
 380 491 380 491 430.5 441 c 128,-1,10
 481 391 481 391 481 298 c 0,11,12
 481 261 481 261 473 186 c 1,13,-1
 222 186 l 1,14,15
 226 132 226 132 288 132 c 0,16,17
 317 132 317 132 440 153 c 1,18,-1
 457 18 l 1,19,20
 351 -10 351 -10 259 -10 c 0,21,22
 139 -10 139 -10 75.5 56 c 128,-1,23
 12 122 12 122 12 241 c 128,-1,7
 12 360 12 360 74.5 425.5 c 128,-1,8
86 576 m 0,24,25
 86 608 86 608 106 624.5 c 128,-1,26
 126 641 126 641 161 641 c 0,27,28
 241 641 241 641 241 576 c 0,29,30
 241 542 241 542 221.5 526 c 128,-1,31
 202 510 202 510 161 510 c 0,32,33
 86 510 86 510 86 576 c 0,24,25
272 576 m 0,34,35
 272 608 272 608 292 624.5 c 128,-1,36
 312 641 312 641 347 641 c 0,37,38
 427 641 427 641 427 576 c 0,39,40
 427 542 427 542 407.5 526 c 128,-1,41
 388 510 388 510 347 510 c 0,42,43
 272 510 272 510 272 576 c 0,34,35
EndSplineSet
EndChar

StartChar: hbar
Encoding: 295 295 119
Width: 539
Flags: HMW
HStem: 0 21G<30 238 30 30 291 502 291 291> 471 20G<335 414.5> 506 101<0 30 0 30 231 305> 621 20G<30 231 231 231>
LayerCount: 2
Fore
SplineSet
366 491 m 0,0,1
 502 491 502 491 502 365 c 2,2,-1
 502 0 l 1,3,-1
 291 0 l 1,4,-1
 291 310 l 2,5,6
 291 326 291 326 274.5 326 c 0,7,8
 258 326 258 326 238 316 c 1,9,-1
 238 0 l 1,10,-1
 30 0 l 1,11,-1
 30 506 l 1,12,-1
 0 506 l 1,13,-1
 0 607 l 1,14,-1
 30 607 l 1,15,-1
 30 641 l 1,16,-1
 231 641 l 1,17,-1
 231 607 l 1,18,-1
 305 607 l 1,19,-1
 305 506 l 1,20,-1
 231 506 l 1,21,-1
 231 449 l 1,22,23
 292 491 292 491 366 491 c 0,0,1
EndSplineSet
EndChar

StartChar: dotlessi
Encoding: 305 305 120
Width: 280
Flags: HMW
HStem: 0 21G<36 244 36 36> 449 20G<36 244 244 244>
LayerCount: 2
Fore
SplineSet
244 0 m 1,0,-1
 36 0 l 1,1,-1
 36 469 l 1,2,-1
 244 469 l 1,3,-1
 244 0 l 1,0,-1
EndSplineSet
EndChar

StartChar: igrave
Encoding: 236 236 121
Width: 280
Flags: HMW
HStem: 0 21G<37 245 37 37> 517 130<97 97 97 171 -30 239>
LayerCount: 2
Fore
SplineSet
245 0 m 1,0,-1
 37 0 l 1,1,-1
 37 469 l 1,2,-1
 245 469 l 1,3,-1
 245 0 l 1,0,-1
97 517 m 1,4,-1
 -30 647 l 1,5,-1
 171 647 l 1,6,-1
 239 517 l 1,7,-1
 97 517 l 1,4,-1
EndSplineSet
EndChar

StartChar: icircumflex
Encoding: 238 238 122
Width: 280
Flags: HMW
HStem: 0 21G<38 246 38 38> 511 131<52 106 -26 230 177 230 52 308 177 177>
LayerCount: 2
Fore
SplineSet
246 0 m 1,0,-1
 38 0 l 1,1,-1
 38 469 l 1,2,-1
 246 469 l 1,3,-1
 246 0 l 1,0,-1
230 642 m 1,4,-1
 308 511 l 1,5,-1
 177 511 l 1,6,-1
 142 563 l 1,7,-1
 106 511 l 1,8,-1
 -26 511 l 1,9,-1
 52 642 l 1,10,-1
 230 642 l 1,4,-1
EndSplineSet
EndChar

StartChar: iacute
Encoding: 237 237 123
Width: 280
Flags: HMW
HStem: 0 21G<38 246 38 38> 517 130<105 180 41 319>
LayerCount: 2
Fore
SplineSet
246 0 m 1,0,-1
 38 0 l 1,1,-1
 38 469 l 1,2,-1
 246 469 l 1,3,-1
 246 0 l 1,0,-1
319 647 m 1,4,-1
 180 517 l 1,5,-1
 41 517 l 1,6,-1
 105 647 l 1,7,-1
 319 647 l 1,4,-1
EndSplineSet
EndChar

StartChar: idieresis
Encoding: 239 239 124
Width: 280
Flags: HMW
HStem: 0 21G<37 245 37 37> 510 131<24 74.5 210 260.5>
VStem: -28 155<553 597.5 553 597.5> 158 155<553 597.5 553 597.5>
LayerCount: 2
Fore
SplineSet
245 0 m 1,0,-1
 37 0 l 1,1,-1
 37 469 l 1,2,-1
 245 469 l 1,3,-1
 245 0 l 1,0,-1
-28 576 m 0,4,5
 -28 608 -28 608 -8 624.5 c 128,-1,6
 12 641 12 641 47 641 c 0,7,8
 127 641 127 641 127 576 c 0,9,10
 127 542 127 542 107.5 526 c 128,-1,11
 88 510 88 510 47 510 c 0,12,13
 -28 510 -28 510 -28 576 c 0,4,5
158 576 m 0,14,15
 158 608 158 608 178 624.5 c 128,-1,16
 198 641 198 641 233 641 c 0,17,18
 313 641 313 641 313 576 c 0,19,20
 313 542 313 542 293.5 526 c 128,-1,21
 274 510 274 510 233 510 c 0,22,23
 158 510 158 510 158 576 c 0,14,15
EndSplineSet
EndChar

StartChar: itilde
Encoding: 297 297 125
Width: 280
Flags: HMW
HStem: 0 21G<36 244 36 36> 503 154<-35 316>
LayerCount: 2
Fore
SplineSet
244 0 m 1,0,-1
 36 0 l 1,1,-1
 36 469 l 1,2,-1
 244 469 l 1,3,-1
 244 0 l 1,0,-1
316 657 m 1,4,-1
 316 645 l 2,5,6
 316 579 316 579 294.5 544 c 128,-1,7
 273 509 273 509 209 509 c 0,8,9
 172 509 172 509 98 535 c 1,10,-1
 98 503 l 1,11,-1
 -35 503 l 1,12,-1
 -35 516 l 2,13,14
 -35 583 -35 583 -12.5 617.5 c 128,-1,15
 10 652 10 652 67 652 c 0,16,17
 97 652 97 652 183 626 c 1,18,-1
 183 657 l 1,19,-1
 316 657 l 1,4,-1
EndSplineSet
EndChar

StartChar: ij
Encoding: 307 307 126
Width: 565
Flags: HMW
HStem: -142 149<261 294 294 302 245 327 261 261> 0 21G<37 245 37 37> 488 167<106.5 175 106.5 175 380.5 449>
LayerCount: 2
Fore
SplineSet
519 469 m 1,0,-1
 519 -4 l 2,1,2
 519 -83 519 -83 478.5 -112.5 c 128,-1,3
 438 -142 438 -142 327 -142 c 2,4,-1
 261 -142 l 1,5,-1
 245 0 l 1,6,-1
 37 0 l 1,7,-1
 37 469 l 1,8,-1
 245 469 l 1,9,-1
 245 7 l 1,10,-1
 294 7 l 2,11,12
 306 7 306 7 309 10 c 128,-1,13
 312 13 312 13 312 22 c 2,14,-1
 312 469 l 1,15,-1
 519 469 l 1,0,-1
33 570 m 0,16,17
 33 655 33 655 140 655 c 128,-1,18
 247 655 247 655 247 570 c 0,19,20
 247 526 247 526 220.5 507 c 128,-1,21
 194 488 194 488 140 488 c 128,-1,22
 86 488 86 488 59.5 506.5 c 128,-1,23
 33 525 33 525 33 570 c 0,16,17
307 570 m 0,24,25
 307 655 307 655 414 655 c 128,-1,26
 521 655 521 655 521 570 c 0,27,28
 521 526 521 526 494.5 507 c 128,-1,29
 468 488 468 488 414 488 c 128,-1,30
 360 488 360 488 333.5 506.5 c 128,-1,31
 307 525 307 525 307 570 c 0,24,25
EndSplineSet
EndChar

StartChar: jcircumflex
Encoding: 309 309 127
Width: 285
Flags: HMW
HStem: -142 149<-8 25 25 33 -25 58 -8 -8> 511 131<54 108 -24 232 179 232 54 310 179 179>
LayerCount: 2
Fore
SplineSet
250 469 m 1,0,-1
 250 -4 l 2,1,2
 250 -83 250 -83 209.5 -112.5 c 128,-1,3
 169 -142 169 -142 58 -142 c 2,4,-1
 -8 -142 l 1,5,-1
 -25 7 l 1,6,-1
 25 7 l 2,7,8
 37 7 37 7 40 10 c 128,-1,9
 43 13 43 13 43 22 c 2,10,-1
 43 469 l 1,11,-1
 250 469 l 1,0,-1
232 642 m 1,12,-1
 310 511 l 1,13,-1
 179 511 l 1,14,-1
 144 563 l 1,15,-1
 108 511 l 1,16,-1
 -24 511 l 1,17,-1
 54 642 l 1,18,-1
 232 642 l 1,12,-1
EndSplineSet
EndChar

StartChar: kcommaaccent
Encoding: 311 311 128
Width: 514
Flags: HMW
HStem: -164 21G<262 262> -10 21G<235.5 286.5> 0 21G<30 235 30 30 297 522 297 297> 459 20G<309 526 526 526> 621 20G<30 235 235 235>
VStem: 179 56<-79.5 157> 179 164<-79.5 -54 -96 -47>
LayerCount: 2
Fore
SplineSet
522 0 m 1,0,-1
 297 0 l 1,1,-1
 239 157 l 1,2,-1
 235 157 l 1,3,-1
 235 0 l 1,4,-1
 30 0 l 1,5,-1
 30 641 l 1,6,-1
 235 641 l 1,7,-1
 235 311 l 1,8,-1
 239 311 l 1,9,-1
 309 479 l 1,10,-1
 526 479 l 1,11,-1
 414 230 l 1,12,13
 433 189 433 189 469.5 111.5 c 128,-1,14
 506 34 506 34 522 0 c 1,0,-1
261 -10 m 0,15,16
 299 -10 299 -10 321 -27 c 128,-1,17
 343 -44 343 -44 343 -74 c 0,18,19
 343 -130 343 -130 262 -164 c 1,20,-1
 187 -155 l 1,21,-1
 229 -113 l 1,22,23
 179 -104 179 -104 179 -65 c 0,24,25
 179 -10 179 -10 261 -10 c 0,15,16
EndSplineSet
EndChar

StartChar: kgreenlandic
Encoding: 312 312 129
Width: 519
Flags: HMW
HStem: 0 21G<30 240 30 30 306 523 306 306> 459 20G<30 240 240 240> 471 20G<470 500 500 500>
LayerCount: 2
Fore
SplineSet
523 0 m 1,0,-1
 306 0 l 1,1,-1
 244 170 l 1,2,-1
 240 170 l 1,3,-1
 240 0 l 1,4,-1
 30 0 l 1,5,-1
 30 479 l 1,6,-1
 240 479 l 1,7,-1
 240 288 l 1,8,-1
 244 288 l 1,9,10
 288.526315789 399.315789474 288.526315789 399.315789474 303.263157895 416.157894737 c 128,-1,11
 318 433 318 433 334.5 449.5 c 0,12,13
 376 491 376 491 470 491 c 2,14,-1
 500 491 l 1,15,-1
 493 300 l 1,16,17
 469 300 469 300 455.5 288.5 c 128,-1,18
 442 277 442 277 424 244 c 1,19,-1
 523 0 l 1,0,-1
EndSplineSet
EndChar

StartChar: ldot
Encoding: 320 320 130
Width: 515
Flags: HMW
HStem: -10 21G<128.5 177 177 259> 214 182<348.5 426.5> 621 20G<32 237 237 237>
LayerCount: 2
Fore
SplineSet
32 124 m 2,0,-1
 32 641 l 1,1,-1
 237 641 l 1,2,-1
 237 170 l 2,3,4
 237 143 237 143 274 143 c 1,5,-1
 259 -10 l 1,6,-1
 177 -10 l 2,7,8
 32 -10 32 -10 32 124 c 2,0,-1
270 305 m 0,9,10
 270 396 270 396 387 396 c 0,11,12
 447 396 447 396 475 374.5 c 128,-1,13
 503 353 503 353 503 304 c 0,14,15
 503 255 503 255 475.5 234.5 c 128,-1,16
 448 214 448 214 387.5 214 c 0,17,18
 327 214 327 214 298.5 235 c 128,-1,19
 270 256 270 256 270 305 c 0,9,10
EndSplineSet
EndChar

StartChar: lslash
Encoding: 322 322 131
Width: 286
Flags: HMW
HStem: -10 21G<128.5 177 177 259> 621 20G<32 237 237 237>
LayerCount: 2
Fore
SplineSet
32 124 m 2,0,-1
 32 170 l 1,1,-1
 0 151 l 1,2,-1
 0 308 l 1,3,-1
 32 327 l 1,4,-1
 32 641 l 1,5,-1
 237 641 l 1,6,-1
 237 451 l 1,7,-1
 273 473 l 1,8,-1
 273 317 l 1,9,-1
 237 295 l 1,10,-1
 237 170 l 2,11,12
 237 143 237 143 274 143 c 1,13,-1
 259 -10 l 1,14,-1
 177 -10 l 2,15,16
 32 -10 32 -10 32 124 c 2,0,-1
EndSplineSet
EndChar

StartChar: nacute
Encoding: 324 324 132
Width: 532
Flags: HMW
HStem: 0 21G<30 238 30 30 291 502 291 291> 459 20G<30 219 219 219> 471 20G<333 414.5> 517 130<241 316 177 455>
LayerCount: 2
Fore
SplineSet
362 491 m 0,0,1
 502 491 502 491 502 355 c 2,2,-1
 502 0 l 1,3,-1
 291 0 l 1,4,-1
 291 310 l 2,5,6
 291 326 291 326 274.5 326 c 0,7,8
 258 326 258 326 238 316 c 1,9,-1
 238 0 l 1,10,-1
 30 0 l 1,11,-1
 30 479 l 1,12,-1
 219 479 l 1,13,-1
 225 448 l 1,14,15
 288 491 288 491 362 491 c 0,0,1
455 647 m 1,16,-1
 316 517 l 1,17,-1
 177 517 l 1,18,-1
 241 647 l 1,19,-1
 455 647 l 1,16,-1
EndSplineSet
EndChar

StartChar: ntilde
Encoding: 241 241 133
Width: 539
Flags: HMW
HStem: 0 21G<30 238 30 30 291 502 291 291> 459 20G<30 219 219 219> 471 20G<333 414.5> 503 154<86 437>
LayerCount: 2
Fore
SplineSet
362 491 m 0,0,1
 502 491 502 491 502 355 c 2,2,-1
 502 0 l 1,3,-1
 291 0 l 1,4,-1
 291 310 l 2,5,6
 291 326 291 326 274.5 326 c 0,7,8
 258 326 258 326 238 316 c 1,9,-1
 238 0 l 1,10,-1
 30 0 l 1,11,-1
 30 479 l 1,12,-1
 219 479 l 1,13,-1
 225 448 l 1,14,15
 288 491 288 491 362 491 c 0,0,1
437 657 m 1,16,-1
 437 645 l 2,17,18
 437 579 437 579 415.5 544 c 128,-1,19
 394 509 394 509 330 509 c 0,20,21
 293 509 293 509 219 535 c 1,22,-1
 219 503 l 1,23,-1
 86 503 l 1,24,-1
 86 516 l 2,25,26
 86 583 86 583 108.5 617.5 c 128,-1,27
 131 652 131 652 188 652 c 0,28,29
 218 652 218 652 304 626 c 1,30,-1
 304 657 l 1,31,-1
 437 657 l 1,16,-1
EndSplineSet
EndChar

StartChar: ograve
Encoding: 242 242 134
Width: 504
Flags: HMW
HStem: -10 137<239.5 268.5 239.5 338.5> 344 147<238.5 268> 517 130<218 218 218 292 91 360>
LayerCount: 2
Fore
SplineSet
70.5 432 m 128,-1,1
 129 491 129 491 253.5 491 c 128,-1,2
 378 491 378 491 435 433 c 128,-1,3
 492 375 492 375 492 242.5 c 128,-1,4
 492 110 492 110 436.5 50 c 128,-1,5
 381 -10 381 -10 254.5 -10 c 128,-1,6
 128 -10 128 -10 70 50 c 128,-1,7
 12 110 12 110 12 241.5 c 128,-1,0
 12 373 12 373 70.5 432 c 128,-1,1
253 344 m 128,-1,9
 232 344 232 344 226.5 326.5 c 128,-1,10
 221 309 221 309 221 252 c 2,11,-1
 221 228 l 2,12,13
 221 164 221 164 226.5 145.5 c 128,-1,14
 232 127 232 127 253 127 c 128,-1,15
 274 127 274 127 279.5 145.5 c 128,-1,16
 285 164 285 164 285 223 c 2,17,-1
 285 251 l 2,18,19
 285 309 285 309 279.5 326.5 c 128,-1,8
 274 344 274 344 253 344 c 128,-1,9
218 517 m 1,20,-1
 91 647 l 1,21,-1
 292 647 l 1,22,-1
 360 517 l 1,23,-1
 218 517 l 1,20,-1
EndSplineSet
EndChar

StartChar: ocircumflex
Encoding: 244 244 135
Width: 504
Flags: HMW
HStem: -10 137<239.5 268.5 239.5 338.5> 344 147<238.5 268> 511 131<164 218 86 342 289 342 164 420 289 289>
LayerCount: 2
Fore
SplineSet
70.5 432 m 128,-1,1
 129 491 129 491 253.5 491 c 128,-1,2
 378 491 378 491 435 433 c 128,-1,3
 492 375 492 375 492 242.5 c 128,-1,4
 492 110 492 110 436.5 50 c 128,-1,5
 381 -10 381 -10 254.5 -10 c 128,-1,6
 128 -10 128 -10 70 50 c 128,-1,7
 12 110 12 110 12 241.5 c 128,-1,0
 12 373 12 373 70.5 432 c 128,-1,1
253 344 m 128,-1,9
 232 344 232 344 226.5 326.5 c 128,-1,10
 221 309 221 309 221 252 c 2,11,-1
 221 228 l 2,12,13
 221 164 221 164 226.5 145.5 c 128,-1,14
 232 127 232 127 253 127 c 128,-1,15
 274 127 274 127 279.5 145.5 c 128,-1,16
 285 164 285 164 285 223 c 2,17,-1
 285 251 l 2,18,19
 285 309 285 309 279.5 326.5 c 128,-1,8
 274 344 274 344 253 344 c 128,-1,9
342 642 m 1,20,-1
 420 511 l 1,21,-1
 289 511 l 1,22,-1
 254 563 l 1,23,-1
 218 511 l 1,24,-1
 86 511 l 1,25,-1
 164 642 l 1,26,-1
 342 642 l 1,20,-1
EndSplineSet
EndChar

StartChar: oacute
Encoding: 243 243 136
Width: 504
Flags: HMW
HStem: -10 137<239.5 268.5 239.5 338.5> 344 147<238.5 268> 517 130<231 306 167 445>
LayerCount: 2
Fore
SplineSet
70.5 432 m 128,-1,1
 129 491 129 491 253.5 491 c 128,-1,2
 378 491 378 491 435 433 c 128,-1,3
 492 375 492 375 492 242.5 c 128,-1,4
 492 110 492 110 436.5 50 c 128,-1,5
 381 -10 381 -10 254.5 -10 c 128,-1,6
 128 -10 128 -10 70 50 c 128,-1,7
 12 110 12 110 12 241.5 c 128,-1,0
 12 373 12 373 70.5 432 c 128,-1,1
253 344 m 128,-1,9
 232 344 232 344 226.5 326.5 c 128,-1,10
 221 309 221 309 221 252 c 2,11,-1
 221 228 l 2,12,13
 221 164 221 164 226.5 145.5 c 128,-1,14
 232 127 232 127 253 127 c 128,-1,15
 274 127 274 127 279.5 145.5 c 128,-1,16
 285 164 285 164 285 223 c 2,17,-1
 285 251 l 2,18,19
 285 309 285 309 279.5 326.5 c 128,-1,8
 274 344 274 344 253 344 c 128,-1,9
445 647 m 1,20,-1
 306 517 l 1,21,-1
 167 517 l 1,22,-1
 231 647 l 1,23,-1
 445 647 l 1,20,-1
EndSplineSet
EndChar

StartChar: odieresis
Encoding: 246 246 137
Width: 504
Flags: HMW
HStem: -10 137<239.5 268.5 239.5 338.5> 344 147<238.5 268> 510 131<134 184.5 320 370.5>
VStem: 82 155<553 597.5 553 597.5> 268 155<553 597.5 553 597.5>
LayerCount: 2
Fore
SplineSet
70.5 432 m 128,-1,1
 129 491 129 491 253.5 491 c 128,-1,2
 378 491 378 491 435 433 c 128,-1,3
 492 375 492 375 492 242.5 c 128,-1,4
 492 110 492 110 436.5 50 c 128,-1,5
 381 -10 381 -10 254.5 -10 c 128,-1,6
 128 -10 128 -10 70 50 c 128,-1,7
 12 110 12 110 12 241.5 c 128,-1,0
 12 373 12 373 70.5 432 c 128,-1,1
253 344 m 128,-1,9
 232 344 232 344 226.5 326.5 c 128,-1,10
 221 309 221 309 221 252 c 2,11,-1
 221 228 l 2,12,13
 221 164 221 164 226.5 145.5 c 128,-1,14
 232 127 232 127 253 127 c 128,-1,15
 274 127 274 127 279.5 145.5 c 128,-1,16
 285 164 285 164 285 223 c 2,17,-1
 285 251 l 2,18,19
 285 309 285 309 279.5 326.5 c 128,-1,8
 274 344 274 344 253 344 c 128,-1,9
82 576 m 0,20,21
 82 608 82 608 102 624.5 c 128,-1,22
 122 641 122 641 157 641 c 0,23,24
 237 641 237 641 237 576 c 0,25,26
 237 542 237 542 217.5 526 c 128,-1,27
 198 510 198 510 157 510 c 0,28,29
 82 510 82 510 82 576 c 0,20,21
268 576 m 0,30,31
 268 608 268 608 288 624.5 c 128,-1,32
 308 641 308 641 343 641 c 0,33,34
 423 641 423 641 423 576 c 0,35,36
 423 542 423 542 403.5 526 c 128,-1,37
 384 510 384 510 343 510 c 0,38,39
 268 510 268 510 268 576 c 0,30,31
EndSplineSet
EndChar

StartChar: otilde
Encoding: 245 245 138
Width: 504
Flags: HMW
HStem: -10 137<239.5 268.5 239.5 338.5> 344 147<238.5 268> 503 154<72 423>
VStem: 285 138
LayerCount: 2
Fore
SplineSet
70.5 432 m 128,-1,1
 129 491 129 491 253.5 491 c 128,-1,2
 378 491 378 491 435 433 c 128,-1,3
 492 375 492 375 492 242.5 c 128,-1,4
 492 110 492 110 436.5 50 c 128,-1,5
 381 -10 381 -10 254.5 -10 c 128,-1,6
 128 -10 128 -10 70 50 c 128,-1,7
 12 110 12 110 12 241.5 c 128,-1,0
 12 373 12 373 70.5 432 c 128,-1,1
253 344 m 128,-1,9
 232 344 232 344 226.5 326.5 c 128,-1,10
 221 309 221 309 221 252 c 2,11,-1
 221 228 l 2,12,13
 221 164 221 164 226.5 145.5 c 128,-1,14
 232 127 232 127 253 127 c 128,-1,15
 274 127 274 127 279.5 145.5 c 128,-1,16
 285 164 285 164 285 223 c 2,17,-1
 285 251 l 2,18,19
 285 309 285 309 279.5 326.5 c 128,-1,8
 274 344 274 344 253 344 c 128,-1,9
423 657 m 1,20,-1
 423 645 l 2,21,22
 423 579 423 579 401.5 544 c 128,-1,23
 380 509 380 509 316 509 c 0,24,25
 279 509 279 509 205 535 c 1,26,-1
 205 503 l 1,27,-1
 72 503 l 1,28,-1
 72 516 l 2,29,30
 72 583 72 583 94.5 617.5 c 128,-1,31
 117 652 117 652 174 652 c 0,32,33
 204 652 204 652 290 626 c 1,34,-1
 290 657 l 1,35,-1
 423 657 l 1,20,-1
EndSplineSet
EndChar

StartChar: oslash
Encoding: 248 248 139
Width: 510
Flags: HMW
HStem: -69 21G<34 206 34 34> -10 137<253.5 271.5 242.5 341.5> 344 147<241.5 263 175 271> 528 20G<313 482 482 482>
LayerCount: 2
Fore
SplineSet
258 491 m 0,0,1
 277 491 277 491 287 490 c 1,2,-1
 313 548 l 1,3,-1
 482 548 l 1,4,-1
 433 438 l 1,5,6
 495 379 495 379 495 244.5 c 0,7,8
 495 110 495 110 439.5 50 c 128,-1,9
 384 -10 384 -10 258 -10 c 0,10,11
 241 -10 241 -10 233 -9 c 1,12,-1
 206 -69 l 1,13,-1
 34 -69 l 1,14,-1
 83 40 l 1,15,16
 15 98 15 98 15 235.5 c 0,17,18
 15 373 15 373 73.5 432 c 128,-1,19
 132 491 132 491 258 491 c 0,0,1
256 344 m 128,-1,21
 235 344 235 344 229.5 326.5 c 128,-1,22
 224 309 224 309 224 252 c 2,23,-1
 224 228 l 2,24,25
 224 164 224 164 229.5 145.5 c 128,-1,26
 235 127 235 127 256 127 c 0,27,28
 277 127 277 127 282.5 145.5 c 128,-1,29
 288 164 288 164 288 223 c 2,30,-1
 288 251 l 2,31,32
 288 309 288 309 282.5 326.5 c 128,-1,20
 277 344 277 344 256 344 c 128,-1,21
EndSplineSet
EndChar

StartChar: rcaron
Encoding: 345 345 140
Width: 378
Flags: HMW
HStem: 0 21G<32 238 32 32> 320 159<32 292 32 360> 466 20G<325.5 366> 515 131<100 100 100 153 224 278>
LayerCount: 2
Fore
SplineSet
238 268 m 2,0,-1
 238 0 l 1,1,-1
 32 0 l 1,2,-1
 32 479 l 1,3,-1
 210 479 l 1,4,-1
 216 447 l 1,5,-1
 220 447 l 1,6,7
 244 469 244 469 275 477.5 c 128,-1,8
 306 486 306 486 366 486 c 1,9,-1
 360 320 l 1,10,-1
 292 320 l 2,11,12
 262 320 262 320 250 309 c 128,-1,13
 238 298 238 298 238 268 c 2,0,-1
100 515 m 1,14,-1
 22 646 l 1,15,-1
 153 646 l 1,16,-1
 188 594 l 1,17,-1
 224 646 l 1,18,-1
 356 646 l 1,19,-1
 278 515 l 1,20,-1
 100 515 l 1,14,-1
EndSplineSet
EndChar

StartChar: rcommaaccent
Encoding: 343 343 141
Width: 378
Flags: HMW
HStem: -164 21G<170 170> -10 21G<143.5 194.5> 0 21G<32 238 32 32> 320 159<32 292 32 360> 466 20G<325.5 366>
VStem: 87 151<-79.5 268> 87 164<-79.5 -54 -96 -47>
LayerCount: 2
Fore
SplineSet
238 268 m 2,0,-1
 238 0 l 1,1,-1
 32 0 l 1,2,-1
 32 479 l 1,3,-1
 210 479 l 1,4,-1
 216 447 l 1,5,-1
 220 447 l 1,6,7
 244 469 244 469 275 477.5 c 128,-1,8
 306 486 306 486 366 486 c 1,9,-1
 360 320 l 1,10,-1
 292 320 l 2,11,12
 262 320 262 320 250 309 c 128,-1,13
 238 298 238 298 238 268 c 2,0,-1
169 -10 m 0,14,15
 207 -10 207 -10 229 -27 c 128,-1,16
 251 -44 251 -44 251 -74 c 0,17,18
 251 -130 251 -130 170 -164 c 1,19,-1
 95 -155 l 1,20,-1
 137 -113 l 1,21,22
 87 -104 87 -104 87 -65 c 0,23,24
 87 -10 87 -10 169 -10 c 0,14,15
EndSplineSet
EndChar

StartChar: scaron
Encoding: 353 353 142
Width: 403
Flags: HMW
HStem: -10 138<188.5 209.5 188.5 275.5> 346 145<203.5 220> 515 131<110 110 110 163 234 288>
LayerCount: 2
Fore
SplineSet
397 149 m 0,0,1
 397 -10 397 -10 211.5 -10 c 0,2,3
 116 -10 116 -10 26 11 c 1,4,-1
 39 158 l 1,5,6
 164 128 164 128 205 128 c 0,7,8
 219 128 219 128 219 137 c 128,-1,9
 219 146 219 146 203 152 c 0,10,11
 100 187 100 187 53 226 c 128,-1,12
 6 265 6 265 6 338 c 128,-1,13
 6 411 6 411 57.5 451 c 128,-1,14
 109 491 109 491 196.5 491 c 128,-1,15
 284 491 284 491 389 471 c 1,16,-1
 368 320 l 1,17,18
 236 346 236 346 208 346 c 0,19,20
 195 346 195 346 195 336 c 0,21,22
 195 328 195 328 212 322 c 0,23,24
 294.692307692 295.076923077 294.692307692 295.076923077 331.846153846 268.538461538 c 128,-1,25
 369 242 369 242 383 214 c 128,-1,26
 397 186 397 186 397 149 c 0,0,1
110 515 m 1,27,-1
 32 646 l 1,28,-1
 163 646 l 1,29,-1
 198 594 l 1,30,-1
 234 646 l 1,31,-1
 366 646 l 1,32,-1
 288 515 l 1,33,-1
 110 515 l 1,27,-1
EndSplineSet
EndChar

StartChar: ugrave
Encoding: 249 249 143
Width: 539
Flags: HMW
HStem: -10 21G<120 200> 459 20G<30 240 240 240 293 502 502 502> 517 130<217 217 217 291 90 359>
LayerCount: 2
Fore
SplineSet
172 -10 m 0,0,1
 30 -10 30 -10 30 126 c 2,2,-1
 30 479 l 1,3,-1
 240 479 l 1,4,-1
 240 165 l 2,5,6
 240 149 240 149 254.5 149 c 0,7,8
 269 149 269 149 293 159 c 1,9,-1
 293 479 l 1,10,-1
 502 479 l 1,11,-1
 502 2 l 1,12,-1
 302 2 l 1,13,-1
 302 27 l 1,14,-1
 296 27 l 1,15,16
 238 -10 238 -10 172 -10 c 0,0,1
217 517 m 1,17,-1
 90 647 l 1,18,-1
 291 647 l 1,19,-1
 359 517 l 1,20,-1
 217 517 l 1,17,-1
EndSplineSet
EndChar

StartChar: ucircumflex
Encoding: 251 251 144
Width: 539
Flags: HMW
HStem: -10 21G<120 200> 459 20G<30 240 240 240 293 502 502 502> 511 131<176 230 98 354 301 354 176 432 301 301>
LayerCount: 2
Fore
SplineSet
172 -10 m 0,0,1
 30 -10 30 -10 30 126 c 2,2,-1
 30 479 l 1,3,-1
 240 479 l 1,4,-1
 240 165 l 2,5,6
 240 149 240 149 254.5 149 c 0,7,8
 269 149 269 149 293 159 c 1,9,-1
 293 479 l 1,10,-1
 502 479 l 1,11,-1
 502 2 l 1,12,-1
 302 2 l 1,13,-1
 302 27 l 1,14,-1
 296 27 l 1,15,16
 238 -10 238 -10 172 -10 c 0,0,1
354 642 m 1,17,-1
 432 511 l 1,18,-1
 301 511 l 1,19,-1
 266 563 l 1,20,-1
 230 511 l 1,21,-1
 98 511 l 1,22,-1
 176 642 l 1,23,-1
 354 642 l 1,17,-1
EndSplineSet
EndChar

StartChar: uacute
Encoding: 250 250 145
Width: 539
Flags: HMW
HStem: -10 21G<120 200> 459 20G<30 240 240 240 293 502 502 502> 517 130<261 336 197 475>
LayerCount: 2
Fore
SplineSet
172 -10 m 0,0,1
 30 -10 30 -10 30 126 c 2,2,-1
 30 479 l 1,3,-1
 240 479 l 1,4,-1
 240 165 l 2,5,6
 240 149 240 149 254.5 149 c 0,7,8
 269 149 269 149 293 159 c 1,9,-1
 293 479 l 1,10,-1
 502 479 l 1,11,-1
 502 2 l 1,12,-1
 302 2 l 1,13,-1
 302 27 l 1,14,-1
 296 27 l 1,15,16
 238 -10 238 -10 172 -10 c 0,0,1
475 647 m 1,17,-1
 336 517 l 1,18,-1
 197 517 l 1,19,-1
 261 647 l 1,20,-1
 475 647 l 1,17,-1
EndSplineSet
EndChar

StartChar: udieresis
Encoding: 252 252 146
Width: 539
Flags: HMW
HStem: -10 21G<120 200> 459 20G<30 240 240 240 293 502 502 502> 510 131<146 196.5 332 382.5>
VStem: 94 146 280 155<553 597.5 553 597.5> 293 142<159 597.5 479 597.5>
LayerCount: 2
Fore
SplineSet
172 -10 m 0,0,1
 30 -10 30 -10 30 126 c 2,2,-1
 30 479 l 1,3,-1
 240 479 l 1,4,-1
 240 165 l 2,5,6
 240 149 240 149 254.5 149 c 0,7,8
 269 149 269 149 293 159 c 1,9,-1
 293 479 l 1,10,-1
 502 479 l 1,11,-1
 502 2 l 1,12,-1
 302 2 l 1,13,-1
 302 27 l 1,14,-1
 296 27 l 1,15,16
 238 -10 238 -10 172 -10 c 0,0,1
94 576 m 0,17,18
 94 608 94 608 114 624.5 c 128,-1,19
 134 641 134 641 169 641 c 0,20,21
 249 641 249 641 249 576 c 0,22,23
 249 542 249 542 229.5 526 c 128,-1,24
 210 510 210 510 169 510 c 0,25,26
 94 510 94 510 94 576 c 0,17,18
280 576 m 0,27,28
 280 608 280 608 300 624.5 c 128,-1,29
 320 641 320 641 355 641 c 0,30,31
 435 641 435 641 435 576 c 0,32,33
 435 542 435 542 415.5 526 c 128,-1,34
 396 510 396 510 355 510 c 0,35,36
 280 510 280 510 280 576 c 0,27,28
EndSplineSet
EndChar

StartChar: yacute
Encoding: 253 253 147
Width: 519
Flags: HMW
HStem: -137 143<53 110 110 118 30 173 53 53> 459 20G<0 220 220 220 313 519 519 519> 517 130<255 330 191 469>
LayerCount: 2
Fore
SplineSet
266 220 m 1,0,1
 312 473 312 473 313 479 c 1,2,-1
 519 479 l 1,3,-1
 380 -8 l 2,4,5
 359 -82 359 -82 315.5 -109.5 c 128,-1,6
 272 -137 272 -137 173 -137 c 2,7,-1
 53 -137 l 1,8,-1
 30 6 l 1,9,-1
 110 6 l 2,10,11
 136 6 136 6 136 23 c 0,12,13
 136 34 136 34 131 51 c 2,14,-1
 0 479 l 1,15,-1
 220 479 l 1,16,-1
 262 220 l 1,17,-1
 266 220 l 1,0,1
469 647 m 1,18,-1
 330 517 l 1,19,-1
 191 517 l 1,20,-1
 255 647 l 1,21,-1
 469 647 l 1,18,-1
EndSplineSet
EndChar

StartChar: ydieresis
Encoding: 255 255 148
Width: 519
Flags: HMW
HStem: -137 143<53 110 110 118 30 173 53 53> 459 20G<0 220 220 220 313 519 519 519> 510 131<139 189.5 325 375.5>
VStem: 87 155<553 597.5 553 597.5> 273 155<553 597.5 553 597.5>
LayerCount: 2
Fore
SplineSet
266 220 m 1,0,1
 312 473 312 473 313 479 c 1,2,-1
 519 479 l 1,3,-1
 380 -8 l 2,4,5
 359 -82 359 -82 315.5 -109.5 c 128,-1,6
 272 -137 272 -137 173 -137 c 2,7,-1
 53 -137 l 1,8,-1
 30 6 l 1,9,-1
 110 6 l 2,10,11
 136 6 136 6 136 23 c 0,12,13
 136 34 136 34 131 51 c 2,14,-1
 0 479 l 1,15,-1
 220 479 l 1,16,-1
 262 220 l 1,17,-1
 266 220 l 1,0,1
87 576 m 0,18,19
 87 608 87 608 107 624.5 c 128,-1,20
 127 641 127 641 162 641 c 0,21,22
 242 641 242 641 242 576 c 0,23,24
 242 542 242 542 222.5 526 c 128,-1,25
 203 510 203 510 162 510 c 0,26,27
 87 510 87 510 87 576 c 0,18,19
273 576 m 0,28,29
 273 608 273 608 293 624.5 c 128,-1,30
 313 641 313 641 348 641 c 0,31,32
 428 641 428 641 428 576 c 0,33,34
 428 542 428 542 408.5 526 c 128,-1,35
 389 510 389 510 348 510 c 0,36,37
 273 510 273 510 273 576 c 0,28,29
EndSplineSet
EndChar

StartChar: zcaron
Encoding: 382 382 149
Width: 446
Flags: HMW
HStem: 0 149<277 434 277 434> 322 157<5 167 5 424> 515 131<128 128 128 181 252 306>
LayerCount: 2
Fore
SplineSet
434 0 m 1,0,-1
 15 0 l 1,1,-1
 10 113 l 1,2,-1
 167 322 l 1,3,-1
 5 322 l 1,4,-1
 5 479 l 1,5,-1
 424 479 l 1,6,-1
 430 374 l 1,7,-1
 277 149 l 1,8,-1
 434 149 l 1,9,-1
 434 0 l 1,0,-1
128 515 m 1,10,-1
 50 646 l 1,11,-1
 181 646 l 1,12,-1
 216 594 l 1,13,-1
 252 646 l 1,14,-1
 384 646 l 1,15,-1
 306 515 l 1,16,-1
 128 515 l 1,10,-1
EndSplineSet
EndChar

StartChar: at
Encoding: 64 64 150
Width: 957
Flags: HMW
HStem: -180 136<383.5 504> -10 138<705.5 736 705.5 757.5> 330 161<479 479.5> 528 140<384 599>
VStem: 24 162<132 330.5 132 369.5> 256 190<138 159.5 138 194.5> 492 197<143 312 143 317> 771 162<235 355>
LayerCount: 2
Fore
SplineSet
458 -180 m 0,0,1
 24 -180 24 -180 24 232.5 c 0,2,3
 24 437 24 437 150 552.5 c 128,-1,4
 276 668 276 668 493.5 668 c 128,-1,5
 711 668 711 668 822 564.5 c 128,-1,6
 933 461 933 461 933 279 c 0,7,8
 933 -10 933 -10 667 -10 c 0,9,10
 615 -10 615 -10 585.5 -1.5 c 128,-1,11
 556 7 556 7 531 29 c 1,12,-1
 524 29 l 1,13,14
 476 -10 476 -10 403.5 -10 c 128,-1,15
 331 -10 331 -10 293.5 28.5 c 128,-1,16
 256 67 256 67 256 135 c 0,17,18
 256 219 256 219 312.5 252 c 128,-1,19
 369 285 369 285 492 294 c 1,20,-1
 492 312 l 2,21,22
 492 330 492 330 473 330 c 0,23,24
 422 330 422 330 298 299 c 1,25,-1
 276 453 l 1,26,27
 436 491 436 491 526 491 c 128,-1,28
 616 491 616 491 655.5 457 c 128,-1,29
 695 423 695 423 695 350 c 1,30,-1
 689 150 l 2,31,32
 689 128 689 128 713 128 c 0,33,34
 771 128 771 128 771 278 c 0,35,36
 771 399 771 399 707 463.5 c 128,-1,37
 643 528 643 528 487.5 528 c 128,-1,38
 332 528 332 528 259 455 c 128,-1,39
 186 382 186 382 186 233 c 128,-1,40
 186 84 186 84 258 20 c 128,-1,41
 330 -44 330 -44 478 -44 c 0,42,43
 568 -44 568 -44 688 -29 c 1,44,-1
 688 -158 l 1,45,46
 578 -180 578 -180 458 -180 c 0,0,1
469 119 m 0,47,48
 498 119 498 119 498 149 c 2,49,-1
 498 187 l 1,50,51
 446 180 446 180 446 147 c 0,52,53
 446 119 446 119 469 119 c 0,47,48
EndSplineSet
EndChar

StartChar: registered
Encoding: 174 174 151
Width: 999
Flags: HMW
HStem: -181 143<398.5 534.5 398.5 652> 502 150<403 595>
VStem: 48 175<136 329 136 371> 328 152<2 160 2 460> 532 164<282.5 312> 770 181<182.5 331>
LayerCount: 2
Fore
SplineSet
160.5 546 m 128,-1,1
 273 652 273 652 499 652 c 128,-1,2
 725 652 725 652 838 543.5 c 128,-1,3
 951 435 951 435 951 230.5 c 128,-1,4
 951 26 951 26 839.5 -77.5 c 128,-1,5
 728 -181 728 -181 496 -181 c 128,-1,6
 264 -181 264 -181 156 -77.5 c 128,-1,7
 48 26 48 26 48 233 c 128,-1,0
 48 440 48 440 160.5 546 c 128,-1,1
696 312 m 0,8,9
 696 267 696 267 684 240.5 c 128,-1,10
 672 214 672 214 644 195 c 1,11,-1
 702 19 l 1,12,13
 770 80 770 80 770 230 c 128,-1,14
 770 380 770 380 707.5 441 c 128,-1,15
 645 502 645 502 500 502 c 128,-1,16
 355 502 355 502 289 438.5 c 128,-1,17
 223 375 223 375 223 232 c 128,-1,18
 223 89 223 89 287 25.5 c 128,-1,19
 351 -38 351 -38 482.5 -38 c 128,-1,20
 614 -38 614 -38 679 2 c 1,21,-1
 537 2 l 1,22,-1
 495 160 l 1,23,-1
 480 160 l 1,24,-1
 480 2 l 1,25,-1
 328 2 l 1,26,-1
 328 460 l 1,27,-1
 529 460 l 2,28,29
 614 460 614 460 655 424 c 128,-1,30
 696 388 696 388 696 312 c 0,8,9
532 296 m 0,31,32
 532 339 532 339 501 339 c 2,33,-1
 477 339 l 1,34,-1
 477 249 l 1,35,-1
 501 249 l 2,36,37
 517 249 517 249 524.5 259 c 128,-1,38
 532 269 532 269 532 296 c 0,31,32
EndSplineSet
EndChar

StartChar: copyright
Encoding: 169 169 152
Width: 979
Flags: HMW
HStem: -181 143<402.5 599 402.5 652> -10 126<510.5 528.5> 326 138<509 539.5 439 540.5> 502 150<409 601>
VStem: 48 191<136 329 136 371> 307 167<185.5 257.5 185.5 297.5> 766 185<136 331>
LayerCount: 2
Fore
SplineSet
487 141 m 128,-1,1
 500 116 500 116 534 116 c 128,-1,2
 568 116 568 116 630 131 c 1,3,-1
 649 14 l 1,4,5
 572 -10 572 -10 503 -10 c 0,6,7
 307 -10 307 -10 307 223 c 0,8,9
 307 340 307 340 356 402 c 128,-1,10
 405 464 405 464 515 464 c 0,11,12
 583 464 583 464 649 438 c 1,13,-1
 629 307 l 1,14,15
 561 326 561 326 530 326 c 128,-1,16
 499 326 499 326 486.5 301.5 c 128,-1,17
 474 277 474 277 474 221.5 c 128,-1,0
 474 166 474 166 487 141 c 128,-1,1
708 442 m 128,-1,19
 650 502 650 502 506 502 c 128,-1,20
 362 502 362 502 300.5 439.5 c 128,-1,21
 239 377 239 377 239 232 c 128,-1,22
 239 87 239 87 297.5 24.5 c 128,-1,23
 356 -38 356 -38 502 -38 c 128,-1,24
 648 -38 648 -38 707 23.5 c 128,-1,25
 766 85 766 85 766 233.5 c 128,-1,18
 766 382 766 382 708 442 c 128,-1,19
160.5 546 m 128,-1,27
 273 652 273 652 499 652 c 128,-1,28
 725 652 725 652 838 543.5 c 128,-1,29
 951 435 951 435 951 230.5 c 128,-1,30
 951 26 951 26 839.5 -77.5 c 128,-1,31
 728 -181 728 -181 496 -181 c 128,-1,32
 264 -181 264 -181 156 -77.5 c 128,-1,33
 48 26 48 26 48 233 c 128,-1,26
 48 440 48 440 160.5 546 c 128,-1,27
EndSplineSet
EndChar

StartChar: paragraph
Encoding: 182 182 153
Width: 657
Flags: HMW
HStem: -137 21G<223 392 223 223 416 584 416 416> 609 20G<272 584 584 584>
VStem: 223 169<-137 187 187 187> 416 168<-137 478 478 478>
LayerCount: 2
Fore
SplineSet
584 -137 m 1,0,-1
 416 -137 l 1,1,-1
 416 478 l 1,2,-1
 392 478 l 1,3,-1
 392 -137 l 1,4,-1
 223 -137 l 1,5,-1
 223 187 l 1,6,7
 126 190 126 190 71 245.5 c 128,-1,8
 16 301 16 301 16 405.5 c 0,9,10
 16 510 16 510 84 569.5 c 128,-1,11
 152 629 152 629 272 629 c 2,12,-1
 584 629 l 1,13,-1
 584 -137 l 1,0,-1
EndSplineSet
EndChar

StartChar: section
Encoding: 167 167 154
Width: 495
Flags: HMW
HStem: -147 160<209.5 231 209.5 293> 481 160<267.5 283>
VStem: 66 193<456.5 473 449.5 524> 243 185<26.5 43 -24 59>
LayerCount: 2
Fore
SplineSet
187 313 m 1,0,1
 187 278 187 278 210 258.5 c 128,-1,2
 233 239 233 239 309 200 c 1,3,4
 309 232 309 232 284.5 253.5 c 128,-1,5
 260 275 260 275 187 313 c 1,0,1
467 248 m 0,6,7
 467 165 467 165 417 99 c 1,8,9
 428 73 428 73 428 32 c 0,10,11
 428 -53 428 -53 376.5 -100 c 128,-1,12
 325 -147 325 -147 226 -147 c 0,13,14
 152 -147 152 -147 45 -128 c 1,15,-1
 59 40 l 1,16,17
 175 13 175 13 226 13 c 0,18,19
 243 13 243 13 243 33.6666666667 c 0,20,21
 243 54.3333333333 243 54.3333333333 188.555555556 79.287037037 c 0,22,23
 134.111111111 104.240740741 134.111111111 104.240740741 84 146 c 0,24,25
 60 166 60 166 44 199 c 128,-1,26
 28 232 28 232 28 272 c 0,27,28
 28 350 28 350 80 407 c 1,29,30
 66 435 66 435 66 466 c 0,31,32
 66 550 66 550 123.5 595.5 c 128,-1,33
 181 641 181 641 273 641 c 0,34,35
 342 641 342 641 439 625 c 1,36,-1
 411 462 l 1,37,38
 316 481 316 481 272 481 c 0,39,40
 259 481 259 481 259 469 c 0,41,42
 259 453.130434783 259 453.130434783 312.595238095 432.158385093 c 0,43,44
 366.19047619 411.186335404 366.19047619 411.186335404 413 371.5 c 0,45,46
 436 352 436 352 451.5 320 c 128,-1,47
 467 288 467 288 467 248 c 0,6,7
EndSplineSet
EndChar

StartChar: asterisk
Encoding: 42 42 155
Width: 467
Flags: HMW
HStem: 279 21G<307 307> 637 20G<166 305 305 305>
LayerCount: 2
Fore
SplineSet
443 464 m 1,0,-1
 351 434 l 1,1,-1
 418 343 l 1,2,-1
 307 279 l 1,3,-1
 237 354 l 1,4,-1
 170 280 l 1,5,-1
 59 344 l 1,6,-1
 115 433 l 1,7,-1
 24 464 l 1,8,-1
 56 582 l 1,9,-1
 156 560 l 1,10,-1
 166 657 l 1,11,-1
 305 657 l 1,12,-1
 313 560 l 1,13,-1
 406 581 l 1,14,-1
 443 464 l 1,0,-1
EndSplineSet
EndChar

StartChar: dagger
Encoding: 8224 8224 156
Width: 449
Flags: HMW
HStem: -137 21G<131 313 131 131> 323 156<22 131 22 131 313 427> 587 20G<131 313 313 313>
VStem: 131 182<-137 323 -137 323 479 607>
LayerCount: 2
Fore
SplineSet
22 323 m 1,0,-1
 22 479 l 1,1,-1
 131 479 l 1,2,-1
 131 607 l 1,3,-1
 313 607 l 1,4,-1
 313 479 l 1,5,-1
 427 479 l 1,6,-1
 427 323 l 1,7,-1
 313 323 l 1,8,-1
 313 -137 l 1,9,-1
 131 -137 l 1,10,-1
 131 323 l 1,11,-1
 22 323 l 1,0,-1
EndSplineSet
EndChar

StartChar: daggerdbl
Encoding: 8225 8225 157
Width: 449
Flags: HMW
HStem: -137 21G<131 313 131 131> 0 156<22 131 22 131 313 427> 323 156<22 131 22 131 313 427> 587 20G<131 313 313 313>
VStem: 131 182<-137 0 -137 0 156 323 479 607>
LayerCount: 2
Fore
SplineSet
22 0 m 1,0,-1
 22 156 l 1,1,-1
 131 156 l 1,2,-1
 131 323 l 1,3,-1
 22 323 l 1,4,-1
 22 479 l 1,5,-1
 131 479 l 1,6,-1
 131 607 l 1,7,-1
 313 607 l 1,8,-1
 313 479 l 1,9,-1
 427 479 l 1,10,-1
 427 323 l 1,11,-1
 313 323 l 1,12,-1
 313 156 l 1,13,-1
 427 156 l 1,14,-1
 427 0 l 1,15,-1
 313 0 l 1,16,-1
 313 -137 l 1,17,-1
 131 -137 l 1,18,-1
 131 0 l 1,19,-1
 22 0 l 1,0,-1
EndSplineSet
EndChar

StartChar: ordfeminine
Encoding: 170 170 158
Width: 416
Flags: HMW
HStem: 288 96<295 380> 526 113<199.5 200.5>
VStem: 209 138<393.5 513 393.5 516.5>
LayerCount: 2
Fore
SplineSet
351 540 m 1,0,-1
 347 400 l 2,1,2
 347 384 347 384 380 384 c 1,3,-1
 367 291 l 1,4,5
 336 288 336 288 310 288 c 0,6,7
 260 288 260 288 236 315 c 1,8,-1
 231 315 l 1,9,10
 197 288 197 288 147 288 c 128,-1,11
 97 288 97 288 70.5 315 c 128,-1,12
 44 342 44 342 44 395 c 128,-1,13
 44 448 44 448 83.5 471 c 128,-1,14
 123 494 123 494 209 501 c 1,15,-1
 209 513 l 2,16,17
 209 526 209 526 196 526 c 0,18,19
 161 526 161 526 73 504 c 1,20,-1
 51 615 l 1,21,22
 152 639 152 639 224 639 c 128,-1,23
 296 639 296 639 323.5 615 c 128,-1,24
 351 591 351 591 351 540 c 1,0,-1
193 378 m 0,25,26
 213 378 213 378 213 399 c 2,27,-1
 213 426 l 1,28,29
 177 420 177 420 177 399 c 128,-1,30
 177 378 177 378 193 378 c 0,25,26
EndSplineSet
EndChar

StartChar: ordmasculine
Encoding: 186 186 159
Width: 424
Flags: HMW
HStem: 288 96<202.5 223 202.5 272> 536 103<202 222.5>
VStem: 43 147<426.5 455 455 471 426.5 526> 235 144<451 471 471 496.5>
LayerCount: 2
Fore
SplineSet
84 597.5 m 128,-1,1
 125 639 125 639 212.5 639 c 128,-1,2
 300 639 300 639 339.5 598.5 c 128,-1,3
 379 558 379 558 379 465.5 c 128,-1,4
 379 373 379 373 340 330.5 c 128,-1,5
 301 288 301 288 213 288 c 128,-1,6
 125 288 125 288 84 330 c 128,-1,7
 43 372 43 372 43 464 c 128,-1,0
 43 556 43 556 84 597.5 c 128,-1,1
231 523.5 m 128,-1,9
 227 536 227 536 212.5 536 c 128,-1,10
 198 536 198 536 194 523.5 c 128,-1,11
 190 511 190 511 190 471 c 2,12,-1
 190 455 l 2,13,14
 190 410 190 410 194 397 c 128,-1,15
 198 384 198 384 212.5 384 c 128,-1,16
 227 384 227 384 231 397 c 128,-1,17
 235 410 235 410 235 451 c 2,18,-1
 235 471 l 2,19,8
 235 511 235 511 231 523.5 c 128,-1,9
EndSplineSet
EndChar

StartChar: trademark
Encoding: 8482 8482 160
Width: 656
Flags: HMW
HStem: 276 21G<89 207 89 89 275 381 275 275 401 507 401 401 527 636 527 527> 526 95<26 89 20 275 207 269 207 207>
VStem: 89 118<276 526 276 526> 281 100 527 102
LayerCount: 2
Fore
SplineSet
636 276 m 1,0,-1
 527 276 l 1,1,-1
 527 431 l 1,2,-1
 521 431 l 1,3,-1
 507 276 l 1,4,-1
 401 276 l 1,5,-1
 387 431 l 1,6,-1
 381 431 l 1,7,-1
 381 276 l 1,8,-1
 275 276 l 1,9,-1
 287 621 l 1,10,-1
 437 621 l 1,11,-1
 454 472 l 1,12,-1
 458 472 l 1,13,-1
 473 621 l 1,14,-1
 622 621 l 1,15,-1
 636 276 l 1,0,-1
269 526 m 1,16,-1
 207 526 l 1,17,-1
 207 276 l 1,18,-1
 89 276 l 1,19,-1
 89 526 l 1,20,-1
 20 526 l 1,21,-1
 26 621 l 1,22,-1
 275 621 l 1,23,-1
 269 526 l 1,16,-1
EndSplineSet
EndChar

StartChar: numbersign
Encoding: 35 35 161
Width: 554
Flags: HMW
HStem: 0 21G<51 218 51 51 245 404 245 245> 149 136<20 76 20 98 447 511> 312 134<44 103 44 122 472 534> 572 20G<147 309 309 309 332 494 494 494>
LayerCount: 2
Fore
SplineSet
534 312 m 1,0,-1
 452 312 l 1,1,-1
 447 285 l 1,2,-1
 511 285 l 1,3,-1
 511 149 l 1,4,-1
 427 149 l 1,5,-1
 404 0 l 1,6,-1
 245 0 l 1,7,-1
 266 149 l 1,8,-1
 241 149 l 1,9,-1
 218 0 l 1,10,-1
 51 0 l 1,11,-1
 76 149 l 1,12,-1
 20 149 l 1,13,-1
 20 285 l 1,14,-1
 98 285 l 1,15,-1
 103 312 l 1,16,-1
 44 312 l 1,17,-1
 44 446 l 1,18,-1
 122 446 l 1,19,-1
 147 592 l 1,20,-1
 309 592 l 1,21,-1
 287 446 l 1,22,-1
 310 446 l 1,23,-1
 332 592 l 1,24,-1
 494 592 l 1,25,-1
 472 446 l 1,26,-1
 534 446 l 1,27,-1
 534 312 l 1,0,-1
293 317 m 1,28,-1
 265 317 l 1,29,-1
 258 280 l 1,30,-1
 286 280 l 1,31,-1
 293 317 l 1,28,-1
EndSplineSet
EndChar

StartChar: zero
Encoding: 48 48 162
Width: 539
Flags: HMW
HStem: -10 149<247.5 296 247.5 373.5> 464 167<245.5 294>
VStem: 319 200<300 319 319 365.5>
LayerCount: 2
Fore
SplineSet
319 300 m 2,0,-1
 319 319 l 2,1,2
 319 439.619047619 319 439.619047619 297.5 456 c 0,3,4
 287 464 287 464 272 464 c 128,-1,5
 257 464 257 464 249 460.5 c 128,-1,6
 241 457 241 457 236 446.5 c 128,-1,7
 231 436 231 436 228 427 c 0,8,9
 222 409 222 409 222 363 c 2,10,-1
 222 300 l 2,11,12
 222 217.111111111 222 217.111111111 227.5 186.555555556 c 128,-1,13
 233 156 233 156 243.5 147.5 c 128,-1,14
 254 139 254 139 273 139 c 0,15,16
 305 139 305 139 312 172 c 128,-1,17
 319 205 319 205 319 300 c 2,0,-1
509 447 m 128,-1,19
 519 392 519 392 519 309.5 c 128,-1,20
 519 227 519 227 509 172 c 128,-1,21
 499 117 499 117 472.5 73.5 c 0,22,23
 421.632183908 -10 421.632183908 -10 270.449812884 -10 c 128,-1,24
 119.26744186 -10 119.26744186 -10 67.5 74 c 0,25,26
 41 117 41 117 30.5 172 c 128,-1,27
 20 227 20 227 20 309 c 128,-1,28
 20 391 20 391 30 446.5 c 128,-1,29
 40 502 40 502 67 546 c 0,30,31
 119.159090909 631 119.159090909 631 270.232954545 631 c 128,-1,32
 421.306818182 631 421.306818182 631 472.5 546 c 0,33,18
 499 502 499 502 509 447 c 128,-1,19
EndSplineSet
EndChar

StartChar: one
Encoding: 49 49 163
Width: 325
Flags: HMW
HStem: 0 21G<74 281 74 74> 601 20G<115 281 281 281>
LayerCount: 2
Fore
SplineSet
281 0 m 1,0,-1
 74 0 l 1,1,-1
 74 452 l 1,2,-1
 4 452 l 1,3,-1
 4 565 l 1,4,-1
 115 621 l 1,5,-1
 281 621 l 1,6,-1
 281 0 l 1,0,-1
EndSplineSet
EndChar

StartChar: two
Encoding: 50 50 164
Width: 469
Flags: HMW
HStem: 0 154<308 455 308 455> 440 191<195.5 205>
LayerCount: 2
Fore
SplineSet
4 586 m 1,0,1
 122 631 122 631 232.5 631 c 128,-1,2
 343 631 343 631 398 581 c 128,-1,3
 453 531 453 531 453 444 c 128,-1,4
 453 357 453 357 419.5 298 c 128,-1,5
 386 239 386 239 308 158 c 1,6,-1
 308 154 l 1,7,-1
 455 154 l 1,8,-1
 455 0 l 1,9,-1
 28 0 l 1,10,-1
 18 108 l 1,11,12
 28 118 28 118 63 152 c 128,-1,13
 98 186 98 186 110 198 c 128,-1,14
 122 210 122 210 148.5 238 c 128,-1,15
 175 266 175 266 185.5 281 c 128,-1,16
 196 296 196 296 216 325.655172414 c 0,17,18
 236 355.310344828 236 355.310344828 236 392 c 0,19,20
 236 440 236 440 189 440 c 0,21,22
 145 440 145 440 37 411 c 1,23,-1
 4 586 l 1,0,1
EndSplineSet
EndChar

StartChar: three
Encoding: 51 51 165
Width: 469
Flags: HMW
HStem: -10 163<186.5 213 186.5 299.5> 240 140<104 191 191 192 104 191> 460 171<190.5 200.5>
LayerCount: 2
Fore
SplineSet
4 580 m 1,0,1
 110 631 110 631 221.5 631 c 128,-1,2
 333 631 333 631 390.5 585 c 128,-1,3
 448 539 448 539 448 456 c 0,4,5
 448 410 448 410 431 380 c 128,-1,6
 414 350 414 350 375 328 c 1,7,-1
 375 324 l 1,8,9
 457 288 457 288 457 182 c 0,10,11
 457 90 457 90 397 40 c 128,-1,12
 337 -10 337 -10 222 -10 c 0,13,14
 167 -10 167 -10 124.5 -1 c 128,-1,15
 82 8 82 8 18 32 c 1,16,-1
 62 186 l 1,17,18
 170 153 170 153 199 153 c 0,19,20
 238 153 238 153 238 196.5 c 128,-1,21
 238 240 238 240 192 240 c 2,22,-1
 104 240 l 1,23,-1
 104 380 l 1,24,-1
 191 380 l 2,25,26
 225 380 225 380 225 420 c 128,-1,27
 225 460 225 460 185 460 c 0,28,29
 157 460 157 460 49 423 c 1,30,-1
 4 580 l 1,0,1
EndSplineSet
EndChar

StartChar: four
Encoding: 52 52 166
Width: 548
Flags: HMW
HStem: 0 21G<266 473 266 266> 117 146<473 540 473 548> 596 20G<226 473 473 473>
LayerCount: 2
Fore
SplineSet
540 117 m 1,0,-1
 473 117 l 1,1,-1
 473 0 l 1,2,-1
 266 0 l 1,3,-1
 266 117 l 1,4,-1
 24 117 l 1,5,-1
 8 240 l 1,6,-1
 226 616 l 1,7,-1
 473 616 l 1,8,-1
 473 263 l 1,9,-1
 548 263 l 1,10,-1
 540 117 l 1,0,-1
271 259 m 1,11,-1
 271 389 l 1,12,-1
 267 389 l 1,13,-1
 197 259 l 1,14,-1
 271 259 l 1,11,-1
EndSplineSet
EndChar

StartChar: five
Encoding: 53 53 167
Width: 472
Flags: HMW
HStem: -10 167<196 228.5 196 312.5> 245 155<220 342> 457 159<226 426 226 226>
LayerCount: 2
Fore
SplineSet
456 212 m 0,0,1
 456 -10 456 -10 229 -10 c 0,2,3
 122 -10 122 -10 30 21 c 1,4,-1
 46 192 l 1,5,6
 181 157 181 157 208.5 157 c 0,7,8
 236 157 236 157 245 168 c 128,-1,9
 254 179 254 179 254 202 c 0,10,11
 254 245 254 245 225 245 c 0,12,13
 210 245 210 245 202 229 c 1,14,-1
 31 249 l 1,15,-1
 31 616 l 1,16,-1
 426 616 l 1,17,-1
 426 457 l 1,18,-1
 226 457 l 1,19,-1
 226 392 l 1,20,21
 253 400 253 400 287 400 c 0,22,23
 456 400 456 400 456 212 c 0,0,1
EndSplineSet
EndChar

StartChar: six
Encoding: 54 54 168
Width: 512
Flags: HMW
HStem: -10 145<255 287.5 255 357> 250 143<259.5 371.5> 467 164<384.5 442>
VStem: 314 194<173 213>
LayerCount: 2
Fore
SplineSet
266 250 m 128,-1,1
 241 250 241 250 224 246 c 1,2,3
 222 230 222 230 222 224 c 0,4,5
 222 135 222 135 273 135 c 0,6,7
 314 135 314 135 314 193 c 0,8,9
 314 223 314 223 302.5 236.5 c 128,-1,0
 291 250 291 250 266 250 c 128,-1,1
311 393 m 0,10,11
 405 393 405 393 456.5 347.5 c 128,-1,12
 508 302 508 302 508 201.5 c 0,13,14
 508 101 508 101 452 45.5 c 128,-1,15
 396 -10 396 -10 270 -10 c 0,16,17
 144 -10 144 -10 80 60.5 c 128,-1,18
 16 131 16 131 16 266 c 0,19,20
 16 455 16 455 118 543 c 128,-1,21
 220 631 220 631 455 631 c 1,22,-1
 442 467 l 1,23,24
 269 467 269 467 233 386 c 1,25,26
 265 393 265 393 311 393 c 0,10,11
EndSplineSet
EndChar

StartChar: seven
Encoding: 55 55 169
Width: 465
Flags: HMW
HStem: 0 21G<38 269 38 38> 447 169<2 222 2 461>
LayerCount: 2
Fore
SplineSet
461 519 m 1,0,-1
 269 0 l 1,1,-1
 38 0 l 1,2,-1
 222 447 l 1,3,-1
 2 447 l 1,4,-1
 2 616 l 1,5,-1
 461 616 l 1,6,-1
 461 519 l 1,0,-1
EndSplineSet
EndChar

StartChar: eight
Encoding: 56 56 170
Width: 519
Flags: HMW
HStem: -10 141<246.5 275 246.5 339> 479 152<249 278>
VStem: 20 196
LayerCount: 2
Fore
SplineSet
84 585 m 128,-1,1
 148 631 148 631 259.5 631 c 128,-1,2
 371 631 371 631 434 587 c 128,-1,3
 497 543 497 543 497 464 c 0,4,5
 497 409 497 409 480 376.5 c 128,-1,6
 463 344 463 344 421 316 c 1,7,-1
 421 312 l 1,8,9
 505 272 505 272 505 180 c 128,-1,10
 505 88 505 88 442 39 c 128,-1,11
 379 -10 379 -10 262 -10 c 128,-1,12
 145 -10 145 -10 79.5 37 c 128,-1,13
 14 84 14 84 14 173 c 0,14,15
 14 225 14 225 34.5 256 c 128,-1,16
 55 287 55 287 98 307 c 1,17,-1
 98 311 l 1,18,19
 57 339 57 339 38.5 373 c 128,-1,20
 20 407 20 407 20 460 c 0,21,0
 20 539 20 539 84 585 c 128,-1,1
261 131 m 0,22,23
 302 131 302 131 302 172 c 0,24,25
 302 192 302 192 290 205.5 c 128,-1,26
 278 219 278 219 249 237 c 1,27,28
 216 211 216 211 216 184 c 0,29,30
 216 131 216 131 261 131 c 0,22,23
263 479 m 0,31,32
 222 479 222 479 222 441 c 0,33,34
 222 421 222 421 233 409 c 128,-1,35
 244 397 244 397 270 380 c 1,36,37
 307 409 307 409 307 434 c 0,38,39
 307 479 307 479 263 479 c 0,31,32
EndSplineSet
EndChar

StartChar: nine
Encoding: 57 57 171
Width: 509
Flags: HMW
HStem: -10 151<59 127 59 218> 219 134<136.5 250.5> 470 161<224.5 262>
VStem: 4 193<393 433 393 480>
LayerCount: 2
Fore
SplineSet
207.5 367.5 m 128,-1,1
 218 353 218 353 244 353 c 128,-1,2
 270 353 270 353 289 359 c 1,3,-1
 289 377 l 2,4,5
 289 425 289 425 280 447.5 c 128,-1,6
 271 470 271 470 239 470 c 0,7,8
 197 470 197 470 197 414 c 0,9,0
 197 382 197 382 207.5 367.5 c 128,-1,1
197 219 m 0,10,11
 103 219 103 219 53.5 265.5 c 128,-1,12
 4 312 4 312 4 414 c 128,-1,13
 4 516 4 516 62 573.5 c 128,-1,14
 120 631 120 631 246 631 c 128,-1,15
 372 631 372 631 432.5 566 c 128,-1,16
 493 501 493 501 493 363 c 0,17,18
 493 269 493 269 470.5 201.5 c 128,-1,19
 448 134 448 134 397.5 85.5 c 0,20,21
 298.06185567 -10 298.06185567 -10 51 -10 c 1,22,-1
 59 141 l 1,23,24
 158 141 158 141 205.5 160.5 c 128,-1,25
 253 180 253 180 273 225 c 1,26,27
 237 219 237 219 197 219 c 0,10,11
EndSplineSet
EndChar

StartChar: onesuperior
Encoding: 185 185 172
Width: 306
Flags: HMW
HStem: 186 21G<93 238 93 93> 601 20G<121 238 238 238>
VStem: 44 194<502 581 581 581>
LayerCount: 2
Fore
SplineSet
238 186 m 1,0,-1
 93 186 l 1,1,-1
 93 502 l 1,2,-1
 44 502 l 1,3,-1
 44 581 l 1,4,-1
 121 621 l 1,5,-1
 238 621 l 1,6,-1
 238 186 l 1,0,-1
EndSplineSet
EndChar

StartChar: twosuperior
Encoding: 178 178 173
Width: 396
Flags: HMW
HStem: 189 108<250 352 250 352> 497 134<171 177.5>
VStem: 199 152<455.5 473.5>
LayerCount: 2
Fore
SplineSet
37 599 m 1,0,1
 118 631 118 631 196 631 c 128,-1,2
 274 631 274 631 312.5 596 c 128,-1,3
 351 561 351 561 351 500 c 128,-1,4
 351 439 351 439 327.5 397.5 c 128,-1,5
 304 356 304 356 250 300 c 1,6,-1
 250 297 l 1,7,-1
 352 297 l 1,8,-1
 352 189 l 1,9,-1
 54 189 l 1,10,-1
 47 265 l 1,11,12
 73 291 73 291 89 306 c 128,-1,13
 105 321 105 321 120 336 c 128,-1,14
 135 351 135 351 142 359.5 c 128,-1,15
 149 368 149 368 160 381 c 0,16,17
 199 427.090909091 199 427.090909091 199 462.045454545 c 128,-1,18
 199 497 199 497 166 497 c 0,19,20
 138 497 138 497 60 477 c 1,21,-1
 37 599 l 1,0,1
EndSplineSet
EndChar

StartChar: threesuperior
Encoding: 179 179 174
Width: 405
Flags: HMW
HStem: 182 114<174.5 193 174.5 253.5> 357 98<117 178 117 178> 511 120<177.5 184>
VStem: 201 163<274 491>
LayerCount: 2
Fore
SplineSet
47 595 m 1,0,1
 122 631 122 631 199.5 631 c 128,-1,2
 277 631 277 631 317.5 598.5 c 128,-1,3
 358 566 358 566 358 508 c 0,4,5
 358 476 358 476 346 455.5 c 128,-1,6
 334 435 334 435 306 419 c 1,7,-1
 306 416 l 1,8,9
 364 390 364 390 364 321 c 0,10,11
 364 182 364 182 199 182 c 0,12,13
 133 182 133 182 57 211 c 1,14,-1
 87 319 l 1,15,16
 165 296 165 296 183 296 c 0,17,18
 211 296 211 296 211 326.5 c 128,-1,19
 211 357 211 357 178 357 c 2,20,-1
 117 357 l 1,21,-1
 117 455 l 1,22,-1
 178 455 l 2,23,24
 201 455 201 455 201 483 c 128,-1,25
 201 511 201 511 173 511 c 0,26,27
 156 511 156 511 78 485 c 1,28,-1
 47 595 l 1,0,1
EndSplineSet
EndChar

StartChar: onehalf
Encoding: 189 189 175
Width: 896
Flags: HMW
HStem: 0 108<750 852 750 852> 308 134<671 677.5> 601 20G<121 238 238 238 426 574 574 574>
VStem: 44 194<502 581 581 581> 699 152<266.5 284.5>
LayerCount: 2
Fore
SplineSet
574 621 m 1,0,-1
 375 0 l 1,1,-1
 228 0 l 1,2,-1
 426 621 l 1,3,-1
 574 621 l 1,0,-1
238 186 m 1,4,-1
 93 186 l 1,5,-1
 93 502 l 1,6,-1
 44 502 l 1,7,-1
 44 581 l 1,8,-1
 121 621 l 1,9,-1
 238 621 l 1,10,-1
 238 186 l 1,4,-1
537 410 m 1,11,12
 618 442 618 442 696 442 c 128,-1,13
 774 442 774 442 812.5 407 c 128,-1,14
 851 372 851 372 851 311 c 128,-1,15
 851 250 851 250 827.5 208.5 c 128,-1,16
 804 167 804 167 750 111 c 1,17,-1
 750 108 l 1,18,-1
 852 108 l 1,19,-1
 852 0 l 1,20,-1
 554 0 l 1,21,-1
 547 76 l 1,22,23
 573 102 573 102 589 117 c 128,-1,24
 605 132 605 132 620 147 c 128,-1,25
 635 162 635 162 642 170.5 c 128,-1,26
 649 179 649 179 660 192 c 0,27,28
 699 238.090909091 699 238.090909091 699 273.045454545 c 128,-1,29
 699 308 699 308 666 308 c 0,30,31
 638 308 638 308 560 288 c 1,32,-1
 537 410 l 1,11,12
EndSplineSet
EndChar

StartChar: onequarter
Encoding: 188 188 176
Width: 919
Flags: HMW
HStem: 0 21G<228 375 228 228 679 679 679 824> 82 102<824 871 824 877> 601 20G<121 238 238 238 426 574 574 574>
VStem: 44 194<502 581 581 581> 683 141<0 184 184 272 272 272>
LayerCount: 2
Fore
SplineSet
574 621 m 1,0,-1
 375 0 l 1,1,-1
 228 0 l 1,2,-1
 426 621 l 1,3,-1
 574 621 l 1,0,-1
238 186 m 1,4,-1
 93 186 l 1,5,-1
 93 502 l 1,6,-1
 44 502 l 1,7,-1
 44 581 l 1,8,-1
 121 621 l 1,9,-1
 238 621 l 1,10,-1
 238 186 l 1,4,-1
871 82 m 1,11,-1
 824 82 l 1,12,-1
 824 0 l 1,13,-1
 679 0 l 1,14,-1
 679 82 l 1,15,-1
 510 82 l 1,16,-1
 499 168 l 1,17,-1
 651 431 l 1,18,-1
 824 431 l 1,19,-1
 824 184 l 1,20,-1
 877 184 l 1,21,-1
 871 82 l 1,11,-1
683 181 m 1,22,-1
 683 272 l 1,23,-1
 680 272 l 1,24,-1
 631 181 l 1,25,-1
 683 181 l 1,22,-1
EndSplineSet
EndChar

StartChar: threequarters
Encoding: 190 190 177
Width: 981
Flags: HMW
HStem: 0 21G<303 450 303 303 741 741 741 886> 82 102<886 933 886 939> 182 114<174.5 193 174.5 253.5> 357 98<117 178 117 178> 511 120<177.5 184> 601 20G<501 649 649 649>
VStem: 201 163<274 491> 745 141<0 184 184 272 272 272>
LayerCount: 2
Fore
SplineSet
649 621 m 1,0,-1
 450 0 l 1,1,-1
 303 0 l 1,2,-1
 501 621 l 1,3,-1
 649 621 l 1,0,-1
47 595 m 1,4,5
 122 631 122 631 199.5 631 c 128,-1,6
 277 631 277 631 317.5 598.5 c 128,-1,7
 358 566 358 566 358 508 c 0,8,9
 358 476 358 476 346 455.5 c 128,-1,10
 334 435 334 435 306 419 c 1,11,-1
 306 416 l 1,12,13
 364 390 364 390 364 321 c 0,14,15
 364 182 364 182 199 182 c 0,16,17
 133 182 133 182 57 211 c 1,18,-1
 87 319 l 1,19,20
 165 296 165 296 183 296 c 0,21,22
 211 296 211 296 211 326.5 c 128,-1,23
 211 357 211 357 178 357 c 2,24,-1
 117 357 l 1,25,-1
 117 455 l 1,26,-1
 178 455 l 2,27,28
 201 455 201 455 201 483 c 128,-1,29
 201 511 201 511 173 511 c 0,30,31
 156 511 156 511 78 485 c 1,32,-1
 47 595 l 1,4,5
933 82 m 1,33,-1
 886 82 l 1,34,-1
 886 0 l 1,35,-1
 741 0 l 1,36,-1
 741 82 l 1,37,-1
 572 82 l 1,38,-1
 561 168 l 1,39,-1
 713 431 l 1,40,-1
 886 431 l 1,41,-1
 886 184 l 1,42,-1
 939 184 l 1,43,-1
 933 82 l 1,33,-1
745 181 m 1,44,-1
 745 272 l 1,45,-1
 742 272 l 1,46,-1
 693 181 l 1,47,-1
 745 181 l 1,44,-1
EndSplineSet
EndChar

StartChar: percent
Encoding: 37 37 178
Width: 929
Flags: HMW
HStem: -10 104<719 753 719 807.5> 0 21G<292 439 292 292> 182 104<179 213 179 267.5> 322 117<717.5 751.5> 514 117<177.5 211.5> 601 20G<490 638 638 638>
VStem: 20 141<361 399 399 412 361 477> 229 140<399 412 412 444.5> 560 141<169 207 207 220 169 285> 769 140<207 220 220 252.5>
LayerCount: 2
Fore
SplineSet
638 621 m 1,0,-1
 439 0 l 1,1,-1
 292 0 l 1,2,-1
 490 621 l 1,3,-1
 638 621 l 1,0,-1
229 399 m 2,4,-1
 229 442.5 l 2,5,6
 229 475.8 229 475.8 225.5 484.9 c 128,-1,7
 222 494 222 494 217.333333333 504 c 128,-1,8
 212.666666667 514 212.666666667 514 197.333333333 514 c 128,-1,9
 182 514 182 514 175 508.5 c 0,10,11
 161 497.5 161 497.5 161 412 c 2,12,-1
 161 399 l 2,13,14
 161 338 161 338 165 318 c 128,-1,15
 169 298 169 298 176.5 292 c 128,-1,16
 184 286 184 286 197 286 c 0,17,18
 219 286 219 286 224 309.5 c 128,-1,19
 229 333 229 333 229 399 c 2,4,-1
333.5 577 m 128,-1,21
 369 523 369 523 369 405.5 c 128,-1,22
 369 288 369 288 333.5 235 c 128,-1,23
 298 182 298 182 195.5 182 c 128,-1,24
 93 182 93 182 56.5 235.5 c 128,-1,25
 20 289 20 289 20 405.5 c 128,-1,26
 20 522 20 522 56 576.5 c 128,-1,27
 92 631 92 631 195 631 c 128,-1,20
 298 631 298 631 333.5 577 c 128,-1,21
769 207 m 2,28,-1
 769 250.5 l 2,29,30
 769 283.8 769 283.8 765.5 292.9 c 128,-1,31
 762 302 762 302 757.333333333 312 c 128,-1,32
 752.666666667 322 752.666666667 322 737.333333333 322 c 128,-1,33
 722 322 722 322 715 316.5 c 0,34,35
 701 305.5 701 305.5 701 220 c 2,36,-1
 701 207 l 2,37,38
 701 146 701 146 705 126 c 128,-1,39
 709 106 709 106 716.5 100 c 128,-1,40
 724 94 724 94 737 94 c 0,41,42
 759 94 759 94 764 117.5 c 128,-1,43
 769 141 769 141 769 207 c 2,28,-1
873.5 385 m 128,-1,45
 909 331 909 331 909 213.5 c 128,-1,46
 909 96 909 96 873.5 43 c 128,-1,47
 838 -10 838 -10 735.5 -10 c 128,-1,48
 633 -10 633 -10 596.5 43.5 c 128,-1,49
 560 97 560 97 560 213.5 c 128,-1,50
 560 330 560 330 596 384.5 c 128,-1,51
 632 439 632 439 735 439 c 128,-1,44
 838 439 838 439 873.5 385 c 128,-1,45
EndSplineSet
EndChar

StartChar: perthousand
Encoding: 8240 8240 179
Width: 1305
Flags: HMW
HStem: -10 104<719 753 719 807.5 1095 1129> 0 21G<292 439 292 292> 182 104<179 213 179 267.5> 322 117<717.5 751.5 1093.5 1127.5> 514 117<177.5 211.5> 601 20G<490 638 638 638>
VStem: 20 141<361 399 399 412 361 477> 229 140<399 412 412 444.5> 560 141<169 207 207 220 169 285> 769 140<207 220 220 252.5> 936 141<169 207 207 220 169 285> 1145 140<207 220 220 252.5>
LayerCount: 2
Fore
SplineSet
638 621 m 1,0,-1
 439 0 l 1,1,-1
 292 0 l 1,2,-1
 490 621 l 1,3,-1
 638 621 l 1,0,-1
229 399 m 2,4,-1
 229 442.5 l 2,5,6
 229 475.8 229 475.8 225.5 484.9 c 128,-1,7
 222 494 222 494 217.333333333 504 c 128,-1,8
 212.666666667 514 212.666666667 514 197.333333333 514 c 128,-1,9
 182 514 182 514 175 508.5 c 0,10,11
 161 497.5 161 497.5 161 412 c 2,12,-1
 161 399 l 2,13,14
 161 338 161 338 165 318 c 128,-1,15
 169 298 169 298 176.5 292 c 128,-1,16
 184 286 184 286 197 286 c 0,17,18
 219 286 219 286 224 309.5 c 128,-1,19
 229 333 229 333 229 399 c 2,4,-1
333.5 577 m 128,-1,21
 369 523 369 523 369 405.5 c 128,-1,22
 369 288 369 288 333.5 235 c 128,-1,23
 298 182 298 182 195.5 182 c 128,-1,24
 93 182 93 182 56.5 235.5 c 128,-1,25
 20 289 20 289 20 405.5 c 128,-1,26
 20 522 20 522 56 576.5 c 128,-1,27
 92 631 92 631 195 631 c 128,-1,20
 298 631 298 631 333.5 577 c 128,-1,21
769 207 m 2,28,-1
 769 250.5 l 2,29,30
 769 283.8 769 283.8 765.5 292.9 c 128,-1,31
 762 302 762 302 757.333333333 312 c 128,-1,32
 752.666666667 322 752.666666667 322 737.333333333 322 c 128,-1,33
 722 322 722 322 715 316.5 c 0,34,35
 701 305.5 701 305.5 701 220 c 2,36,-1
 701 207 l 2,37,38
 701 146 701 146 705 126 c 128,-1,39
 709 106 709 106 716.5 100 c 128,-1,40
 724 94 724 94 737 94 c 0,41,42
 759 94 759 94 764 117.5 c 128,-1,43
 769 141 769 141 769 207 c 2,28,-1
873.5 385 m 128,-1,45
 909 331 909 331 909 213.5 c 128,-1,46
 909 96 909 96 873.5 43 c 128,-1,47
 838 -10 838 -10 735.5 -10 c 128,-1,48
 633 -10 633 -10 596.5 43.5 c 128,-1,49
 560 97 560 97 560 213.5 c 128,-1,50
 560 330 560 330 596 384.5 c 128,-1,51
 632 439 632 439 735 439 c 128,-1,44
 838 439 838 439 873.5 385 c 128,-1,45
1145 207 m 2,52,-1
 1145 250.5 l 2,53,54
 1145 283.8 1145 283.8 1141.5 292.9 c 128,-1,55
 1138 302 1138 302 1133.33333333 312 c 128,-1,56
 1128.66666667 322 1128.66666667 322 1113.33333333 322 c 128,-1,57
 1098 322 1098 322 1091 316.5 c 0,58,59
 1077 305.5 1077 305.5 1077 220 c 2,60,-1
 1077 207 l 2,61,62
 1077 146 1077 146 1081 126 c 128,-1,63
 1085 106 1085 106 1092.5 100 c 128,-1,64
 1100 94 1100 94 1113 94 c 0,65,66
 1135 94 1135 94 1140 117.5 c 128,-1,67
 1145 141 1145 141 1145 207 c 2,52,-1
1249.5 385 m 128,-1,69
 1285 331 1285 331 1285 213.5 c 128,-1,70
 1285 96 1285 96 1249.5 43 c 128,-1,71
 1214 -10 1214 -10 1111.5 -10 c 128,-1,72
 1009 -10 1009 -10 972.5 43.5 c 128,-1,73
 936 97 936 97 936 213.5 c 128,-1,74
 936 330 936 330 972 384.5 c 128,-1,75
 1008 439 1008 439 1111 439 c 128,-1,68
 1214 439 1214 439 1249.5 385 c 128,-1,69
EndSplineSet
EndChar

StartChar: degree
Encoding: 176 176 180
Width: 344
Flags: HMW
HStem: 370 21G<120 218.5> 606 20G<120 219>
VStem: 31 117<487.5 508.5 487.5 540> 188 120<487 507.5>
LayerCount: 2
Fore
SplineSet
275.5 595 m 128,-1,1
 308 564 308 564 308 497.5 c 128,-1,2
 308 431 308 431 275.5 400.5 c 128,-1,3
 243 370 243 370 169.5 370 c 128,-1,4
 96 370 96 370 63.5 400.5 c 128,-1,5
 31 431 31 431 31 496.5 c 128,-1,6
 31 562 31 562 64 594 c 128,-1,7
 97 626 97 626 170 626 c 128,-1,0
 243 626 243 626 275.5 595 c 128,-1,1
188 497 m 0,8,9
 188 513 188 513 183.5 519 c 128,-1,10
 179 525 179 525 168 525 c 0,11,12
 148 525 148 525 148 496.5 c 128,-1,13
 148 468 148 468 168 468 c 128,-1,14
 188 468 188 468 188 497 c 0,8,9
EndSplineSet
EndChar

StartChar: dollar
Encoding: 36 36 181
Width: 527
Flags: HMW
HStem: -82 21G<181 348 181 181> 690 20G<181 348 348 348>
VStem: 181 167<-82 -5 -5 -5 627 710>
LayerCount: 2
Fore
SplineSet
32 421 m 0,0,1
 32 578 32 578 181 619 c 1,2,-1
 181 710 l 1,3,-1
 348 710 l 1,4,-1
 348 627 l 1,5,6
 438 618 438 618 478 611 c 1,7,-1
 455 435 l 1,8,9
 330 460 330 460 291 460 c 128,-1,10
 252 460 252 460 252 436 c 0,11,12
 252 426.666666667 252 426.666666667 258 423.333333333 c 128,-1,13
 264 420 264 420 267 418 c 128,-1,14
 270 416 270 416 278.5 413 c 128,-1,15
 287 410 287 410 292.5 407.5 c 128,-1,16
 298 405 298 405 328.5 392.5 c 128,-1,17
 359 380 359 380 374.5 372.5 c 128,-1,18
 390 365 390 365 417 347.5 c 0,19,20
 495 296.944444444 495 296.944444444 495 194.214285714 c 0,21,22
 495 124 495 124 456 71.5 c 128,-1,23
 417 19 417 19 348 2 c 1,24,-1
 348 -82 l 1,25,-1
 181 -82 l 1,26,-1
 181 -5 l 1,27,28
 113 1 113 1 50 17 c 1,29,-1
 64 186 l 1,30,31
 198 152 198 152 245 152 c 0,32,33
 276 152 276 152 276 174 c 0,34,35
 276 184 276 184 268.5 190 c 128,-1,36
 261 196 261 196 246.5 203 c 128,-1,37
 232 210 232 210 204 221.5 c 128,-1,38
 176 233 176 233 157 241.5 c 128,-1,39
 138 250 138 250 112.5 267.5 c 0,40,41
 32 322.745098039 32 322.745098039 32 421 c 0,0,1
EndSplineSet
EndChar

StartChar: cent
Encoding: 162 162 182
Width: 416
Flags: HMW
HStem: -82 21G<140 307 140 140> 552 20G<140 307 307 307>
VStem: 140 167<-82 -5 -82 9 -82 9 487 572>
LayerCount: 2
Fore
SplineSet
237.5 310 m 128,-1,1
 229 286 229 286 229 236 c 128,-1,2
 229 186 229 186 237 163.5 c 128,-1,3
 245 141 245 141 275 141 c 128,-1,4
 305 141 305 141 370 154 c 1,5,-1
 392 15 l 1,6,7
 351 3 351 3 307 -5 c 1,8,-1
 307 -82 l 1,9,-1
 140 -82 l 1,10,-1
 140 9 l 1,11,12
 20 61 20 61 20 231 c 0,13,14
 20 314 20 314 50.5 376.5 c 128,-1,15
 81 439 81 439 140 468 c 1,16,-1
 140 572 l 1,17,-1
 307 572 l 1,18,-1
 307 487 l 1,19,20
 350 482 350 482 400 464 c 1,21,-1
 379 306 l 1,22,23
 301 334 301 334 273.5 334 c 128,-1,0
 246 334 246 334 237.5 310 c 128,-1,1
EndSplineSet
EndChar

StartChar: Euro
Encoding: 8364 8364 183
Width: 531
Flags: HMW
HStem: -10 167<344.5 366> 192 98<16 66 16 74 16 66 293 458 293 293> 309 99<16 66 16 71 300 471> 448 183<340 373.5>
LayerCount: 2
Fore
SplineSet
16 408 m 1,0,-1
 71 408 l 1,1,2
 114 631 114 631 347 631 c 0,3,4
 430 631 430 631 513 601 c 1,5,-1
 487 433 l 1,6,7
 384 448 384 448 357 448 c 0,8,9
 313 448 313 448 300 408 c 1,10,-1
 484 408 l 1,11,-1
 471 309 l 1,12,-1
 280 309 l 1,13,-1
 280 290 l 1,14,-1
 470 290 l 1,15,-1
 458 192 l 1,16,-1
 293 192 l 1,17,18
 308 157 308 157 362 157 c 0,19,20
 378 157 378 157 472 167 c 1,21,-1
 498 13 l 1,22,23
 411 -10 411 -10 332 -10 c 0,24,25
 227 -10 227 -10 161 43 c 128,-1,26
 95 96 95 96 74 192 c 1,27,-1
 16 192 l 1,28,-1
 16 290 l 1,29,-1
 66 290 l 1,30,-1
 66 309 l 1,31,-1
 16 309 l 1,32,-1
 16 408 l 1,0,-1
EndSplineSet
EndChar

StartChar: sterling
Encoding: 163 163 184
Width: 601
Flags: HMW
HStem: -36 21G<399 497.5> 272 112<94 159 94 192 94 159 401 479 401 401> 611 20G<258 360>
VStem: 420 179<113.5 185 113.5 185 113.5 185>
LayerCount: 2
Fore
SplineSet
322 631 m 0,0,1
 401 631 401 631 521 601 c 1,2,-1
 493 429 l 1,3,4
 385 456 385 456 376.5 456 c 128,-1,5
 368 456 368 456 368 448 c 128,-1,6
 368 440 368 440 386 384 c 1,7,-1
 491 384 l 1,8,-1
 479 272 l 1,9,-1
 401 272 l 1,10,-1
 401 220 l 2,11,12
 401 161 401 161 383 124 c 1,13,14
 417 111 417 111 420 110 c 1,15,-1
 420 185 l 1,16,-1
 599 185 l 1,17,18
 599 72 599 72 562.5 18 c 128,-1,19
 526 -36 526 -36 433 -36 c 0,20,21
 385 -36 385 -36 352.5 -27.5 c 128,-1,22
 320 -19 320 -19 276 2 c 1,23,-1
 272 2 l 1,24,25
 217 -22 217 -22 152.5 -22 c 128,-1,26
 88 -22 88 -22 45 10 c 128,-1,27
 2 42 2 42 2 106 c 128,-1,28
 2 170 2 170 36.5 201.5 c 128,-1,29
 71 233 71 233 131 233 c 0,30,31
 158 233 158 233 192 225 c 1,32,-1
 192 272 l 1,33,-1
 94 272 l 1,34,-1
 94 384 l 1,35,-1
 159 384 l 1,36,37
 135 434 135 434 135 482 c 0,38,39
 135 631 135 631 322 631 c 0,0,1
192 94 m 1,40,41
 173 116 173 116 156 116 c 128,-1,42
 139 116 139 116 139 97.5 c 128,-1,43
 139 79 139 79 159 79 c 128,-1,44
 179 79 179 79 192 94 c 1,40,41
EndSplineSet
EndChar

StartChar: florin
Encoding: 402 402 185
Width: 422
Flags: HMW
HStem: -147 21G<83.5 153.5> 314 111<40 91 28 100 311 368> 621 20G<222.5 298.5>
LayerCount: 2
Fore
SplineSet
-1 18 m 1,0,1
 41 11 41 11 52 11 c 128,-1,2
 63 11 63 11 64 19 c 2,3,-1
 91 314 l 1,4,-1
 28 314 l 1,5,-1
 40 425 l 1,6,-1
 100 425 l 1,7,-1
 106 482 l 2,8,9
 115 562 115 562 155.5 601.5 c 128,-1,10
 196 641 196 641 282 641 c 0,11,12
 329 641 329 641 404 630 c 1,13,-1
 382 461 l 1,14,-1
 323 470 l 1,15,16
 316 470 316 470 314 459 c 1,17,-1
 311 425 l 1,18,-1
 380 425 l 1,19,-1
 368 314 l 1,20,-1
 301 314 l 1,21,-1
 273 9 l 2,22,23
 265 -71 265 -71 223 -109 c 128,-1,24
 181 -147 181 -147 96 -147 c 0,25,26
 54 -147 54 -147 -10 -136 c 1,27,-1
 -1 18 l 1,0,1
EndSplineSet
EndChar

StartChar: yen
Encoding: 165 165 186
Width: 536
Flags: HMW
HStem: 0 21G<159 372 159 159> 89 107<50 159 50 159 372 479> 215 109<50 111 50 153 50 111 421 479> 601 20G<0 225 225 225 317 536 536 536>
LayerCount: 2
Fore
SplineSet
536 621 m 1,0,-1
 421 324 l 1,1,-1
 479 324 l 1,2,-1
 479 215 l 1,3,-1
 378 215 l 1,4,-1
 372 196 l 1,5,-1
 479 196 l 1,6,-1
 479 89 l 1,7,-1
 372 89 l 1,8,-1
 372 0 l 1,9,-1
 159 0 l 1,10,-1
 159 89 l 1,11,-1
 50 89 l 1,12,-1
 50 196 l 1,13,-1
 159 196 l 1,14,-1
 153 215 l 1,15,-1
 50 215 l 1,16,-1
 50 324 l 1,17,-1
 111 324 l 1,18,-1
 0 621 l 1,19,-1
 225 621 l 1,20,-1
 269 393 l 1,21,-1
 275 393 l 1,22,-1
 317 621 l 1,23,-1
 536 621 l 1,0,-1
EndSplineSet
EndChar

StartChar: Omega
Encoding: 937 937 187
AltUni2: 002126.ffffffff.0
Width: 631
Flags: HMW
HStem: 0 145<34 109 34 304 34 109 518 599> 459 172<282 342>
LayerCount: 2
Fore
SplineSet
315 631 m 0,0,1
 596 631 596 631 596 348 c 0,2,3
 596 280 596 280 577.5 233.5 c 128,-1,4
 559 187 559 187 518 149 c 1,5,-1
 518 145 l 1,6,-1
 599 145 l 1,7,-1
 599 0 l 1,8,-1
 325 0 l 1,9,-1
 325 135 l 1,10,11
 381 190 381 190 381 321 c 0,12,13
 381 401 381 401 368 430 c 128,-1,14
 355 459 355 459 312 459 c 128,-1,15
 269 459 269 459 257 430.5 c 128,-1,16
 245 402 245 402 245 322 c 0,17,18
 245 192 245 192 304 135 c 1,19,-1
 304 0 l 1,20,-1
 34 0 l 1,21,-1
 34 145 l 1,22,-1
 109 145 l 1,23,-1
 109 152 l 1,24,25
 32 223 32 223 32 366 c 0,26,27
 32 631 32 631 315 631 c 0,0,1
EndSplineSet
EndChar

StartChar: product
Encoding: 8719 8719 188
Width: 611
Flags: HMW
HStem: 0 21G<69 280 69 69 335 335 335 546> 452 169<0 69 0 611 280 280 280 335 546 546 546 611>
LayerCount: 2
Fore
SplineSet
280 0 m 1,0,-1
 69 0 l 1,1,-1
 69 452 l 1,2,-1
 0 452 l 1,3,-1
 0 621 l 1,4,-1
 611 621 l 1,5,-1
 611 452 l 1,6,-1
 546 452 l 1,7,-1
 546 0 l 1,8,-1
 335 0 l 1,9,-1
 335 452 l 1,10,-1
 280 452 l 1,11,-1
 280 0 l 1,0,-1
EndSplineSet
EndChar

StartChar: pi
Encoding: 960 960 189
Width: 557
Flags: HMW
HStem: 0 21G<43 251 43 43 304 515 304 304> 327 152<0 43 0 557 251 304 251 251 515 515 515 557>
LayerCount: 2
Fore
SplineSet
515 0 m 1,0,-1
 304 0 l 1,1,-1
 304 327 l 1,2,-1
 251 327 l 1,3,-1
 251 0 l 1,4,-1
 43 0 l 1,5,-1
 43 327 l 1,6,-1
 0 327 l 1,7,-1
 0 479 l 1,8,-1
 557 479 l 1,9,-1
 557 327 l 1,10,-1
 515 327 l 1,11,-1
 515 0 l 1,0,-1
EndSplineSet
EndChar

StartChar: summation
Encoding: 8721 8721 190
Width: 520
Flags: HMW
HStem: 0 159<325 508 325 508> 450 171<342 496 342 342>
LayerCount: 2
Fore
SplineSet
496 450 m 1,0,-1
 342 450 l 1,1,-1
 423 344 l 1,2,-1
 423 277 l 1,3,-1
 325 159 l 1,4,-1
 508 159 l 1,5,-1
 508 0 l 1,6,-1
 30 0 l 1,7,-1
 23 124 l 1,8,-1
 175 304 l 1,9,-1
 12 486 l 1,10,-1
 17 621 l 1,11,-1
 496 621 l 1,12,-1
 496 450 l 1,0,-1
EndSplineSet
EndChar

StartChar: Delta
Encoding: 916 916 191
AltUni2: 002206.ffffffff.0
Width: 563
Flags: HMW
HStem: 0 180<234 325 234 563> 601 20G<129 434 434 434>
LayerCount: 2
Fore
SplineSet
0 0 m 1,0,-1
 129 621 l 1,1,-1
 434 621 l 1,2,-1
 563 0 l 1,3,-1
 0 0 l 1,0,-1
234 180 m 1,4,-1
 325 180 l 1,5,-1
 280 427 l 1,6,-1
 275 427 l 1,7,-1
 234 180 l 1,4,-1
EndSplineSet
EndChar

StartChar: mu
Encoding: 181 181 192
AltUni2: 0003bc.ffffffff.0
Width: 559
Flags: HMW
HStem: -137 21G<32 32 32 235> -10 159<235 276.5 260 459> 459 20G<32 242 242 242 295 504 504 504>
LayerCount: 2
Fore
SplineSet
32 -137 m 1,0,-1
 32 479 l 1,1,-1
 242 479 l 1,2,-1
 242 173 l 2,3,4
 242 149 242 149 268.5 149 c 0,5,6
 295 149 295 149 295 173 c 2,7,-1
 295 479 l 1,8,-1
 504 479 l 1,9,-1
 504 150 l 2,10,11
 504 137 504 137 513.5 132 c 128,-1,12
 523 127 523 127 547 127 c 1,13,-1
 529 -6 l 1,14,15
 477 -10 477 -10 443 -10 c 0,16,17
 363 -10 363 -10 322 31 c 1,18,-1
 318 31 l 1,19,20
 289 -10 289 -10 235 -10 c 1,21,-1
 235 -137 l 1,22,-1
 32 -137 l 1,0,-1
EndSplineSet
EndChar

StartChar: infinity
Encoding: 8734 8734 193
Width: 726
Flags: HMW
HStem: 72 137<212 232 212 247 492 512> 325 138<212 231.5 492.5 512>
VStem: 32 162<247 287 247 327.5> 532 162<247 287>
LayerCount: 2
Fore
SplineSet
211 463 m 128,-1,1
 292 463 292 463 355 388 c 1,2,-1
 360 388 l 1,3,4
 391 424 391 424 425.5 443.5 c 128,-1,5
 460 463 460 463 512 463 c 0,6,7
 604 463 604 463 649 411.5 c 128,-1,8
 694 360 694 360 694 269 c 0,9,10
 694 72 694 72 512 72 c 0,11,12
 426 72 426 72 365 148 c 1,13,-1
 356 148 l 1,14,15
 324 111 324 111 292 91.5 c 128,-1,16
 260 72 260 72 211 72 c 0,17,18
 121 72 121 72 76.5 122.5 c 128,-1,19
 32 173 32 173 32 265 c 0,20,21
 32 357 32 357 81 410 c 128,-1,0
 130 463 130 463 211 463 c 128,-1,1
502 325 m 0,22,23
 469 325 469 325 435 264 c 1,24,25
 469 209 469 209 502 209 c 0,26,27
 532 209 532 209 532 267 c 128,-1,28
 532 325 532 325 502 325 c 0,22,23
222 325 m 0,29,30
 194 325 194 325 194 267 c 128,-1,31
 194 209 194 209 222 209 c 0,32,33
 256 209 256 209 290 267 c 1,34,35
 255 325 255 325 222 325 c 0,29,30
EndSplineSet
EndChar

StartChar: plus
Encoding: 43 43 194
Width: 476
Flags: HMW
HStem: 84 21G<157 157 157 319> 209 162<32 157 32 157 319 444> 476 20G<157 319 319 319>
VStem: 157 162<84 209 84 209 371 496>
LayerCount: 2
Fore
SplineSet
157 84 m 1,0,-1
 157 209 l 1,1,-1
 32 209 l 1,2,-1
 32 371 l 1,3,-1
 157 371 l 1,4,-1
 157 496 l 1,5,-1
 319 496 l 1,6,-1
 319 371 l 1,7,-1
 444 371 l 1,8,-1
 444 209 l 1,9,-1
 319 209 l 1,10,-1
 319 84 l 1,11,-1
 157 84 l 1,0,-1
EndSplineSet
EndChar

StartChar: minus
Encoding: 8722 8722 195
Width: 476
Flags: HMW
HStem: 209 162<32 444 32 444>
LayerCount: 2
Fore
SplineSet
444 209 m 1,0,-1
 32 209 l 1,1,-1
 32 371 l 1,2,-1
 444 371 l 1,3,-1
 444 209 l 1,0,-1
EndSplineSet
EndChar

StartChar: plusminus
Encoding: 177 177 196
Width: 476
Flags: HMW
HStem: 0 152<32 444 32 444> 276 162<32 157 32 157 319 444> 535 20G<157 319 319 319>
VStem: 157 162<181 276 181 276 438 555>
LayerCount: 2
Fore
SplineSet
157 181 m 1,0,-1
 157 276 l 1,1,-1
 32 276 l 1,2,-1
 32 438 l 1,3,-1
 157 438 l 1,4,-1
 157 555 l 1,5,-1
 319 555 l 1,6,-1
 319 438 l 1,7,-1
 444 438 l 1,8,-1
 444 276 l 1,9,-1
 319 276 l 1,10,-1
 319 181 l 1,11,-1
 157 181 l 1,0,-1
444 0 m 1,12,-1
 32 0 l 1,13,-1
 32 152 l 1,14,-1
 444 152 l 1,15,-1
 444 0 l 1,12,-1
EndSplineSet
EndChar

StartChar: multiply
Encoding: 215 215 197
Width: 470
Flags: HMW
HStem: 87 21G<147 147 323 323> 473 20G<147 147 323 323>
LayerCount: 2
Fore
SplineSet
32 202 m 1,0,-1
 120 290 l 1,1,-1
 32 378 l 1,2,-1
 147 493 l 1,3,-1
 235 405 l 1,4,-1
 323 493 l 1,5,-1
 438 378 l 1,6,-1
 350 290 l 1,7,-1
 438 202 l 1,8,-1
 323 87 l 1,9,-1
 235 175 l 1,10,-1
 147 87 l 1,11,-1
 32 202 l 1,0,-1
EndSplineSet
EndChar

StartChar: divide
Encoding: 247 247 198
Width: 476
Flags: HMW
HStem: 11 160<204.5 280.5> 209 162<32 444 32 444> 409 160<204.5 280.5>
VStem: 144 195<65 116 64 117 463 514>
CounterMasks: 1 e0
LayerCount: 2
Fore
SplineSet
166 30.5 m 128,-1,1
 144 50 144 50 144 91 c 128,-1,2
 144 132 144 132 165.5 151.5 c 128,-1,3
 187 171 187 171 242 171 c 128,-1,4
 297 171 297 171 318 151.5 c 128,-1,5
 339 132 339 132 339 91 c 128,-1,6
 339 50 339 50 317.5 30.5 c 128,-1,7
 296 11 296 11 242 11 c 128,-1,0
 188 11 188 11 166 30.5 c 128,-1,1
166 428.5 m 128,-1,9
 144 448 144 448 144 489 c 128,-1,10
 144 530 144 530 165.5 549.5 c 128,-1,11
 187 569 187 569 242 569 c 128,-1,12
 297 569 297 569 318 549.5 c 128,-1,13
 339 530 339 530 339 489 c 128,-1,14
 339 448 339 448 317.5 428.5 c 128,-1,15
 296 409 296 409 242 409 c 128,-1,8
 188 409 188 409 166 428.5 c 128,-1,9
444 209 m 1,16,-1
 32 209 l 1,17,-1
 32 371 l 1,18,-1
 444 371 l 1,19,-1
 444 209 l 1,16,-1
EndSplineSet
EndChar

StartChar: equal
Encoding: 61 61 199
Width: 454
Flags: HMW
HStem: 93 147<36 418 36 418> 280 147<36 418 36 418>
LayerCount: 2
Fore
SplineSet
418 280 m 1,0,-1
 36 280 l 1,1,-1
 36 427 l 1,2,-1
 418 427 l 1,3,-1
 418 280 l 1,0,-1
418 93 m 1,4,-1
 36 93 l 1,5,-1
 36 240 l 1,6,-1
 418 240 l 1,7,-1
 418 93 l 1,4,-1
EndSplineSet
EndChar

StartChar: notequal
Encoding: 8800 8800 200
Width: 454
Flags: HMW
HStem: 45 195<70 137 36 234 70 70> 93 147<36 86 36 137 301 418 36 250> 280 147<36 150 36 200 36 315 365 418> 484 20G<227 392 392 392>
LayerCount: 2
Fore
SplineSet
418 93 m 1,0,-1
 250 93 l 1,1,-1
 234 45 l 1,2,-1
 70 45 l 1,3,-1
 86 93 l 1,4,-1
 36 93 l 1,5,-1
 36 240 l 1,6,-1
 137 240 l 1,7,-1
 150 280 l 1,8,-1
 36 280 l 1,9,-1
 36 427 l 1,10,-1
 200 427 l 1,11,-1
 227 504 l 1,12,-1
 392 504 l 1,13,-1
 365 427 l 1,14,-1
 418 427 l 1,15,-1
 418 280 l 1,16,-1
 315 280 l 1,17,-1
 301 240 l 1,18,-1
 418 240 l 1,19,-1
 418 93 l 1,0,-1
EndSplineSet
EndChar

StartChar: less
Encoding: 60 60 201
Width: 499
Flags: HMW
HStem: 30 21G<467 467> 513 20G<467 467>
LayerCount: 2
Fore
SplineSet
467 30 m 1,0,-1
 32 207 l 1,1,-1
 32 361 l 1,2,-1
 467 533 l 1,3,-1
 467 373 l 1,4,-1
 229 285 l 1,5,-1
 467 189 l 1,6,-1
 467 30 l 1,0,-1
EndSplineSet
EndChar

StartChar: greater
Encoding: 62 62 202
Width: 499
Flags: HMW
HStem: 30 21G<32 32> 513 20G<32 32>
LayerCount: 2
Fore
SplineSet
467 207 m 1,0,-1
 32 30 l 1,1,-1
 32 189 l 1,2,-1
 270 285 l 1,3,-1
 32 373 l 1,4,-1
 32 533 l 1,5,-1
 467 361 l 1,6,-1
 467 207 l 1,0,-1
EndSplineSet
EndChar

StartChar: partialdiff
Encoding: 8706 8706 203
Width: 531
Flags: HMW
HStem: -10 130<250.5 280.5 250.5 346> 283 117<156 282.5> 464 167<70 119>
LayerCount: 2
Fore
SplineSet
220 400 m 0,0,1
 258 400 258 400 281 396 c 1,2,-1
 285 400 l 1,3,4
 225 464 225 464 70 464 c 1,5,-1
 70 631 l 1,6,7
 300 631 300 631 405.5 545.5 c 128,-1,8
 511 460 511 460 511 265 c 0,9,10
 511 134 511 134 448.5 62 c 128,-1,11
 386 -10 386 -10 263.5 -10 c 128,-1,12
 141 -10 141 -10 80.5 41.5 c 128,-1,13
 20 93 20 93 20 208 c 0,14,15
 20 302 20 302 71.5 351 c 128,-1,16
 123 400 123 400 220 400 c 0,0,1
294 266 m 128,-1,18
 288 283 288 283 267 283 c 128,-1,19
 246 283 246 283 239 261 c 128,-1,20
 232 239 232 239 232 196.5 c 128,-1,21
 232 154 232 154 238.5 137 c 128,-1,22
 245 120 245 120 266 120 c 128,-1,23
 287 120 287 120 293.5 141.5 c 128,-1,24
 300 163 300 163 300 206 c 128,-1,17
 300 249 300 249 294 266 c 128,-1,18
EndSplineSet
EndChar

StartChar: logicalnot
Encoding: 172 172 204
Width: 488
Flags: HMW
HStem: 104 21G<265 265 265 444> 209 162<32 265 32 444>
VStem: 265 179<104 209 209 209>
LayerCount: 2
Fore
SplineSet
265 104 m 1,0,-1
 265 209 l 1,1,-1
 32 209 l 1,2,-1
 32 371 l 1,3,-1
 444 371 l 1,4,-1
 444 104 l 1,5,-1
 265 104 l 1,0,-1
EndSplineSet
EndChar

StartChar: radical
Encoding: 8730 8730 205
Width: 598
Flags: HMW
HStem: -142 21G<162 375 162 162> 459 20G<0 217 217 217> 670 162<585 770 585 585>
LayerCount: 2
Fore
SplineSet
283 163 m 1,0,-1
 418 832 l 1,1,-1
 794 832 l 1,2,-1
 770 670 l 1,3,-1
 585 670 l 1,4,-1
 375 -142 l 1,5,-1
 162 -142 l 1,6,-1
 0 479 l 1,7,-1
 217 479 l 1,8,-1
 276 163 l 1,9,-1
 283 163 l 1,0,-1
EndSplineSet
EndChar

StartChar: integral
Encoding: 8747 8747 206
Width: 441
Flags: HMW
HStem: -142 174<-26 39 -26 49 -42 39> 670 162<418 473>
VStem: 136 197
LayerCount: 2
Fore
SplineSet
117 162 m 2,0,-1
 136 591 l 2,1,2
 142 713 142 713 199 772.5 c 128,-1,3
 256 832 256 832 388 832 c 2,4,-1
 483 832 l 1,5,-1
 473 670 l 1,6,7
 394 670 394 670 370.5 646 c 128,-1,8
 347 622 347 622 344 552 c 2,9,-1
 323 103 l 2,10,11
 316 -36 316 -36 257.5 -89 c 128,-1,12
 199 -142 199 -142 49 -142 c 2,13,-1
 -42 -142 l 1,14,-1
 -26 32 l 1,15,16
 23 32 23 32 50.5 37.5 c 128,-1,17
 78 43 78 43 92.5 60.5 c 128,-1,18
 107 78 107 78 111 99 c 128,-1,19
 115 120 115 120 117 162 c 2,0,-1
EndSplineSet
EndChar

StartChar: approxequal
Encoding: 8776 8776 207
Width: 492
Flags: HMW
HStem: 97 166<48 452> 288 166<40 444>
LayerCount: 2
Fore
SplineSet
452 263 m 1,0,-1
 452 250 l 2,1,2
 452 179 452 179 427.5 141 c 128,-1,3
 403 103 403 103 329 103 c 0,4,5
 285 103 285 103 201 131 c 1,6,-1
 201 97 l 1,7,-1
 48 97 l 1,8,-1
 48 111 l 2,9,10
 48 183 48 183 74 220 c 128,-1,11
 100 257 100 257 166 257 c 0,12,13
 201 257 201 257 299 229 c 1,14,-1
 299 263 l 1,15,-1
 452 263 l 1,0,-1
444 454 m 1,16,-1
 444 441 l 2,17,18
 444 370 444 370 419.5 332 c 128,-1,19
 395 294 395 294 321 294 c 0,20,21
 277 294 277 294 193 322 c 1,22,-1
 193 288 l 1,23,-1
 40 288 l 1,24,-1
 40 302 l 2,25,26
 40 374 40 374 66 411.5 c 128,-1,27
 92 449 92 449 158 449 c 0,28,29
 191 449 191 449 291 421 c 1,30,-1
 291 454 l 1,31,-1
 444 454 l 1,16,-1
EndSplineSet
EndChar

StartChar: lessequal
Encoding: 8804 8804 208
Width: 499
Flags: HMW
HStem: 0 145<32 467 32 467> 585 20G<467 467>
LayerCount: 2
Fore
SplineSet
467 152 m 1,0,-1
 32 299 l 1,1,-1
 32 453 l 1,2,-1
 467 605 l 1,3,-1
 467 445 l 1,4,-1
 229 377 l 1,5,-1
 467 311 l 1,6,-1
 467 152 l 1,0,-1
467 0 m 1,7,-1
 32 0 l 1,8,-1
 32 145 l 1,9,-1
 467 145 l 1,10,-1
 467 0 l 1,7,-1
EndSplineSet
EndChar

StartChar: greaterequal
Encoding: 8805 8805 209
Width: 499
Flags: HMW
HStem: 0 145<32 467 32 467> 585 20G<32 32>
LayerCount: 2
Fore
SplineSet
467 299 m 1,0,-1
 32 152 l 1,1,-1
 32 311 l 1,2,-1
 270 377 l 1,3,-1
 32 445 l 1,4,-1
 32 605 l 1,5,-1
 467 453 l 1,6,-1
 467 299 l 1,0,-1
467 0 m 1,7,-1
 32 0 l 1,8,-1
 32 145 l 1,9,-1
 467 145 l 1,10,-1
 467 0 l 1,7,-1
EndSplineSet
EndChar

StartChar: lozenge
Encoding: 9674 9674 210
Width: 577
Flags: HMW
HStem: -55 21G<225 349 225 225> 627 20G<227 349 349 349>
LayerCount: 2
Fore
SplineSet
537 296 m 1,0,-1
 349 -55 l 1,1,-1
 225 -55 l 1,2,-1
 40 296 l 1,3,-1
 227 647 l 1,4,-1
 349 647 l 1,5,-1
 537 296 l 1,0,-1
369 296 m 1,6,-1
 288 461 l 1,7,-1
 208 296 l 1,8,-1
 288 130 l 1,9,-1
 369 296 l 1,6,-1
EndSplineSet
EndChar

StartChar: period
Encoding: 46 46 211
Width: 291
Flags: HMW
HStem: -10 160<108.5 184.5>
VStem: 48 195<44 95 43 96>
LayerCount: 2
Fore
SplineSet
70 9.5 m 128,-1,1
 48 29 48 29 48 70 c 128,-1,2
 48 111 48 111 69.5 130.5 c 128,-1,3
 91 150 91 150 146 150 c 128,-1,4
 201 150 201 150 222 130.5 c 128,-1,5
 243 111 243 111 243 70 c 128,-1,6
 243 29 243 29 221.5 9.5 c 128,-1,7
 200 -10 200 -10 146 -10 c 128,-1,0
 92 -10 92 -10 70 9.5 c 128,-1,1
EndSplineSet
EndChar

StartChar: comma
Encoding: 44 44 212
Width: 306
Flags: HMW
HStem: -112 21G<135 135> 131 20G<122.5 195.5>
LayerCount: 2
Fore
SplineSet
80 131.5 m 128,-1,1
 105 151 105 151 158.5 151 c 128,-1,2
 212 151 212 151 235 128.5 c 128,-1,3
 258 106 258 106 258 53 c 128,-1,4
 258 0 258 0 225.5 -38.5 c 128,-1,5
 193 -77 193 -77 135 -112 c 1,6,-1
 48 -99 l 1,7,-1
 117 -6 l 1,8,9
 84 1 84 1 69.5 17 c 128,-1,10
 55 33 55 33 55 72.5 c 128,-1,0
 55 112 55 112 80 131.5 c 128,-1,1
EndSplineSet
EndChar

StartChar: colon
Encoding: 58 58 213
Width: 291
Flags: HMW
HStem: -10 160<108.5 184.5> 282 160<108.5 184.5>
VStem: 48 195<44 95 43 96 336 387>
LayerCount: 2
Fore
SplineSet
70 9.5 m 128,-1,1
 48 29 48 29 48 70 c 128,-1,2
 48 111 48 111 69.5 130.5 c 128,-1,3
 91 150 91 150 146 150 c 128,-1,4
 201 150 201 150 222 130.5 c 128,-1,5
 243 111 243 111 243 70 c 128,-1,6
 243 29 243 29 221.5 9.5 c 128,-1,7
 200 -10 200 -10 146 -10 c 128,-1,0
 92 -10 92 -10 70 9.5 c 128,-1,1
70 301.5 m 128,-1,9
 48 321 48 321 48 362 c 128,-1,10
 48 403 48 403 69.5 422.5 c 128,-1,11
 91 442 91 442 146 442 c 128,-1,12
 201 442 201 442 222 422.5 c 128,-1,13
 243 403 243 403 243 362 c 128,-1,14
 243 321 243 321 221.5 301.5 c 128,-1,15
 200 282 200 282 146 282 c 128,-1,8
 92 282 92 282 70 301.5 c 128,-1,9
EndSplineSet
EndChar

StartChar: semicolon
Encoding: 59 59 214
Width: 306
Flags: HMW
HStem: -112 21G<135 135> 151 131<122.5 191.5 115.5 195.5> 282 160<115.5 191.5>
VStem: 55 195<336 387 335 388>
LayerCount: 2
Fore
SplineSet
77 301.5 m 128,-1,1
 55 321 55 321 55 362 c 128,-1,2
 55 403 55 403 76.5 422.5 c 128,-1,3
 98 442 98 442 153 442 c 128,-1,4
 208 442 208 442 229 422.5 c 128,-1,5
 250 403 250 403 250 362 c 128,-1,6
 250 321 250 321 228.5 301.5 c 128,-1,7
 207 282 207 282 153 282 c 128,-1,0
 99 282 99 282 77 301.5 c 128,-1,1
80 131.5 m 128,-1,9
 105 151 105 151 158.5 151 c 128,-1,10
 212 151 212 151 235 128.5 c 128,-1,11
 258 106 258 106 258 53 c 128,-1,12
 258 0 258 0 225.5 -38.5 c 128,-1,13
 193 -77 193 -77 135 -112 c 1,14,-1
 48 -99 l 1,15,-1
 117 -6 l 1,16,17
 84 1 84 1 69.5 17 c 128,-1,18
 55 33 55 33 55 72.5 c 128,-1,8
 55 112 55 112 80 131.5 c 128,-1,9
EndSplineSet
EndChar

StartChar: ellipsis
Encoding: 8230 8230 215
Width: 775
Flags: HMW
HStem: -10 160<108.5 184.5 356.5 432.5 601.5 677.5>
VStem: 48 195<44 95 43 96> 296 195<44 95 43 96> 541 195<44 95 43 96>
LayerCount: 2
Fore
SplineSet
70 9.5 m 128,-1,1
 48 29 48 29 48 70 c 128,-1,2
 48 111 48 111 69.5 130.5 c 128,-1,3
 91 150 91 150 146 150 c 128,-1,4
 201 150 201 150 222 130.5 c 128,-1,5
 243 111 243 111 243 70 c 128,-1,6
 243 29 243 29 221.5 9.5 c 128,-1,7
 200 -10 200 -10 146 -10 c 128,-1,0
 92 -10 92 -10 70 9.5 c 128,-1,1
318 9.5 m 128,-1,9
 296 29 296 29 296 70 c 128,-1,10
 296 111 296 111 317.5 130.5 c 128,-1,11
 339 150 339 150 394 150 c 128,-1,12
 449 150 449 150 470 130.5 c 128,-1,13
 491 111 491 111 491 70 c 128,-1,14
 491 29 491 29 469.5 9.5 c 128,-1,15
 448 -10 448 -10 394 -10 c 128,-1,8
 340 -10 340 -10 318 9.5 c 128,-1,9
563 9.5 m 128,-1,17
 541 29 541 29 541 70 c 128,-1,18
 541 111 541 111 562.5 130.5 c 128,-1,19
 584 150 584 150 639 150 c 128,-1,20
 694 150 694 150 715 130.5 c 128,-1,21
 736 111 736 111 736 70 c 128,-1,22
 736 29 736 29 714.5 9.5 c 128,-1,23
 693 -10 693 -10 639 -10 c 128,-1,16
 585 -10 585 -10 563 9.5 c 128,-1,17
EndSplineSet
EndChar

StartChar: periodcentered
Encoding: 183 183 216
Width: 394
Flags: HMW
HStem: 214 182<162.5 240.5>
LayerCount: 2
Fore
SplineSet
84 305 m 0,0,1
 84 396 84 396 201 396 c 0,2,3
 261 396 261 396 289 374.5 c 128,-1,4
 317 353 317 353 317 304 c 0,5,6
 317 255 317 255 289.5 234.5 c 128,-1,7
 262 214 262 214 201.5 214 c 0,8,9
 141 214 141 214 112.5 235 c 128,-1,10
 84 256 84 256 84 305 c 0,0,1
EndSplineSet
EndChar

StartChar: exclamdown
Encoding: 161 161 217
Width: 330
Flags: HMW
HStem: -137 21G<48 248 48 48> 334 160<108.5 184.5>
VStem: 55 187
LayerCount: 2
Fore
SplineSet
236 308 m 1,0,-1
 248 -137 l 1,1,-1
 48 -137 l 1,2,-1
 63 308 l 1,3,-1
 236 308 l 1,0,-1
223 474.5 m 128,-1,5
 245 455 245 455 245 414 c 128,-1,6
 245 373 245 373 223.5 353.5 c 128,-1,7
 202 334 202 334 147 334 c 128,-1,8
 92 334 92 334 71 353.5 c 128,-1,9
 50 373 50 373 50 414 c 128,-1,10
 50 455 50 455 71.5 474.5 c 128,-1,11
 93 494 93 494 147 494 c 128,-1,4
 201 494 201 494 223 474.5 c 128,-1,5
EndSplineSet
EndChar

StartChar: exclam
Encoding: 33 33 218
Width: 330
Flags: HMW
HStem: -10 160<145.5 221.5> 601 20G<82 282 282 282>
VStem: 88 186
LayerCount: 2
Fore
SplineSet
94 176 m 1,0,-1
 82 621 l 1,1,-1
 282 621 l 1,2,-1
 267 176 l 1,3,-1
 94 176 l 1,0,-1
107 9.5 m 128,-1,5
 85 29 85 29 85 70 c 128,-1,6
 85 111 85 111 106.5 130.5 c 128,-1,7
 128 150 128 150 183 150 c 128,-1,8
 238 150 238 150 259 130.5 c 128,-1,9
 280 111 280 111 280 70 c 128,-1,10
 280 29 280 29 258.5 9.5 c 128,-1,11
 237 -10 237 -10 183 -10 c 128,-1,4
 129 -10 129 -10 107 9.5 c 128,-1,5
EndSplineSet
EndChar

StartChar: questiondown
Encoding: 191 191 219
Width: 395
Flags: HMW
HStem: -147 174<136.5 252> 329 160<197.5 273.5>
VStem: 12 196<45 68.5 45 92.5> 139 181 139 195<384 435 383 436>
LayerCount: 2
Fore
SplineSet
12 35 m 0,0,1
 12 118.23255814 12 118.23255814 52.5 162.5 c 0,2,3
 74 186 74 186 96 201 c 128,-1,4
 118 216 118 216 153 235 c 1,5,-1
 153 303 l 1,6,-1
 320 303 l 1,7,-1
 320 192 l 2,8,9
 320 160 320 160 306.5 140 c 128,-1,10
 293 120 293 120 262 106.5 c 128,-1,11
 231 93 231 93 219.5 83 c 128,-1,12
 208 73 208 73 208 56 c 0,13,14
 208 27 208 27 242 27 c 0,15,16
 262 27 262 27 371 48 c 1,17,-1
 371 -126 l 1,18,19
 277 -147 277 -147 203 -147 c 0,20,21
 12 -147 12 -147 12 35 c 0,0,1
312 469.5 m 128,-1,23
 334 450 334 450 334 409 c 128,-1,24
 334 368 334 368 312.5 348.5 c 128,-1,25
 291 329 291 329 236 329 c 128,-1,26
 181 329 181 329 160 348.5 c 128,-1,27
 139 368 139 368 139 409 c 128,-1,28
 139 450 139 450 160.5 469.5 c 128,-1,29
 182 489 182 489 236 489 c 128,-1,22
 290 489 290 489 312 469.5 c 128,-1,23
EndSplineSet
EndChar

StartChar: question
Encoding: 63 63 220
Width: 395
Flags: HMW
HStem: -10 160<121.5 197.5> 452 174<143 258.5>
VStem: 61 195<44 95 43 96> 75 181<43 287> 187 196<410.5 434>
LayerCount: 2
Fore
SplineSet
383 444 m 0,0,1
 383 360.76744186 383 360.76744186 342.5 316.5 c 0,2,3
 321 293 321 293 299 278 c 128,-1,4
 277 263 277 263 242 244 c 1,5,-1
 242 176 l 1,6,-1
 75 176 l 1,7,-1
 75 287 l 2,8,9
 75 319 75 319 88.5 339 c 128,-1,10
 102 359 102 359 133 372.5 c 128,-1,11
 164 386 164 386 175.5 396 c 128,-1,12
 187 406 187 406 187 423 c 0,13,14
 187 452 187 452 153 452 c 0,15,16
 133 452 133 452 24 431 c 1,17,-1
 24 605 l 1,18,19
 119 626 119 626 192 626 c 0,20,21
 383 626 383 626 383 444 c 0,0,1
83 9.5 m 128,-1,23
 61 29 61 29 61 70 c 128,-1,24
 61 111 61 111 82.5 130.5 c 128,-1,25
 104 150 104 150 159 150 c 128,-1,26
 214 150 214 150 235 130.5 c 128,-1,27
 256 111 256 111 256 70 c 128,-1,28
 256 29 256 29 234.5 9.5 c 128,-1,29
 213 -10 213 -10 159 -10 c 128,-1,22
 105 -10 105 -10 83 9.5 c 128,-1,23
EndSplineSet
EndChar

StartChar: quotedbl
Encoding: 34 34 221
Width: 488
Flags: HMW
HStem: 392 21G<123 123 341 341> 635 20G<110.5 183.5 328.5 401.5>
LayerCount: 2
Fore
SplineSet
68 635.5 m 128,-1,1
 93 655 93 655 146.5 655 c 128,-1,2
 200 655 200 655 223 632.5 c 128,-1,3
 246 610 246 610 246 557 c 128,-1,4
 246 504 246 504 213.5 465.5 c 128,-1,5
 181 427 181 427 123 392 c 1,6,-1
 36 405 l 1,7,-1
 105 498 l 1,8,9
 72 505 72 505 57.5 521 c 128,-1,10
 43 537 43 537 43 576.5 c 128,-1,0
 43 616 43 616 68 635.5 c 128,-1,1
286 635.5 m 128,-1,12
 311 655 311 655 364.5 655 c 128,-1,13
 418 655 418 655 441 632.5 c 128,-1,14
 464 610 464 610 464 557 c 128,-1,15
 464 504 464 504 431.5 465.5 c 128,-1,16
 399 427 399 427 341 392 c 1,17,-1
 254 405 l 1,18,-1
 323 498 l 1,19,20
 290 505 290 505 275.5 521 c 128,-1,21
 261 537 261 537 261 576.5 c 128,-1,11
 261 616 261 616 286 635.5 c 128,-1,12
EndSplineSet
EndChar

StartChar: quotesingle
Encoding: 39 39 222
Width: 252
Flags: HMW
HStem: 392 21G<125 125> 635 20G<112.5 185.5>
LayerCount: 2
Fore
SplineSet
70 635.5 m 128,-1,1
 95 655 95 655 148.5 655 c 128,-1,2
 202 655 202 655 225 632.5 c 128,-1,3
 248 610 248 610 248 557 c 128,-1,4
 248 504 248 504 215.5 465.5 c 128,-1,5
 183 427 183 427 125 392 c 1,6,-1
 38 405 l 1,7,-1
 107 498 l 1,8,9
 74 505 74 505 59.5 521 c 128,-1,10
 45 537 45 537 45 576.5 c 128,-1,0
 45 616 45 616 70 635.5 c 128,-1,1
EndSplineSet
EndChar

StartChar: quotedblleft
Encoding: 8220 8220 223
Width: 488
Flags: HMW
HStem: 392 21G<86.5 159.5 304.5 377.5> 635 20G<147 147 365 365>
LayerCount: 2
Fore
SplineSet
420 411.5 m 128,-1,1
 395 392 395 392 341.5 392 c 128,-1,2
 288 392 288 392 265 415 c 128,-1,3
 242 438 242 438 242 490.5 c 128,-1,4
 242 543 242 543 274.5 581.5 c 128,-1,5
 307 620 307 620 365 655 c 1,6,-1
 452 642 l 1,7,-1
 383 549 l 1,8,9
 416 542 416 542 430.5 526 c 128,-1,10
 445 510 445 510 445 470.5 c 128,-1,0
 445 431 445 431 420 411.5 c 128,-1,1
202 411.5 m 128,-1,12
 177 392 177 392 123.5 392 c 128,-1,13
 70 392 70 392 47 415 c 128,-1,14
 24 438 24 438 24 490.5 c 128,-1,15
 24 543 24 543 56.5 581.5 c 128,-1,16
 89 620 89 620 147 655 c 1,17,-1
 234 642 l 1,18,-1
 165 549 l 1,19,20
 198 542 198 542 212.5 526 c 128,-1,21
 227 510 227 510 227 470.5 c 128,-1,11
 227 431 227 431 202 411.5 c 128,-1,12
EndSplineSet
EndChar

StartChar: quotedblright
Encoding: 8221 8221 224
Width: 488
Flags: HMW
HStem: 392 21G<123 123 341 341> 635 20G<110.5 183.5 328.5 401.5>
LayerCount: 2
Fore
SplineSet
68 635.5 m 128,-1,1
 93 655 93 655 146.5 655 c 128,-1,2
 200 655 200 655 223 632.5 c 128,-1,3
 246 610 246 610 246 557 c 128,-1,4
 246 504 246 504 213.5 465.5 c 128,-1,5
 181 427 181 427 123 392 c 1,6,-1
 36 405 l 1,7,-1
 105 498 l 1,8,9
 72 505 72 505 57.5 521 c 128,-1,10
 43 537 43 537 43 576.5 c 128,-1,0
 43 616 43 616 68 635.5 c 128,-1,1
286 635.5 m 128,-1,12
 311 655 311 655 364.5 655 c 128,-1,13
 418 655 418 655 441 632.5 c 128,-1,14
 464 610 464 610 464 557 c 128,-1,15
 464 504 464 504 431.5 465.5 c 128,-1,16
 399 427 399 427 341 392 c 1,17,-1
 254 405 l 1,18,-1
 323 498 l 1,19,20
 290 505 290 505 275.5 521 c 128,-1,21
 261 537 261 537 261 576.5 c 128,-1,11
 261 616 261 616 286 635.5 c 128,-1,12
EndSplineSet
EndChar

StartChar: quoteleft
Encoding: 8216 8216 225
Width: 270
Flags: HMW
HStem: 392 21G<86.5 159.5> 635 20G<147 147>
LayerCount: 2
Fore
SplineSet
202 411.5 m 128,-1,1
 177 392 177 392 123.5 392 c 128,-1,2
 70 392 70 392 47 415 c 128,-1,3
 24 438 24 438 24 490.5 c 128,-1,4
 24 543 24 543 56.5 581.5 c 128,-1,5
 89 620 89 620 147 655 c 1,6,-1
 234 642 l 1,7,-1
 165 549 l 1,8,9
 198 542 198 542 212.5 526 c 128,-1,10
 227 510 227 510 227 470.5 c 128,-1,0
 227 431 227 431 202 411.5 c 128,-1,1
EndSplineSet
EndChar

StartChar: quoteright
Encoding: 8217 8217 226
Width: 270
Flags: HMW
HStem: 392 21G<123 123> 635 20G<110.5 183.5>
LayerCount: 2
Fore
SplineSet
68 635.5 m 128,-1,1
 93 655 93 655 146.5 655 c 128,-1,2
 200 655 200 655 223 632.5 c 128,-1,3
 246 610 246 610 246 557 c 128,-1,4
 246 504 246 504 213.5 465.5 c 128,-1,5
 181 427 181 427 123 392 c 1,6,-1
 36 405 l 1,7,-1
 105 498 l 1,8,9
 72 505 72 505 57.5 521 c 128,-1,10
 43 537 43 537 43 576.5 c 128,-1,0
 43 616 43 616 68 635.5 c 128,-1,1
EndSplineSet
EndChar

StartChar: quotesinglbase
Encoding: 8218 8218 227
Width: 270
Flags: HMW
HStem: -115 21G<111 111> 128 20G<98.5 171.5>
LayerCount: 2
Fore
SplineSet
56 128.5 m 128,-1,1
 81 148 81 148 134.5 148 c 128,-1,2
 188 148 188 148 211 125 c 128,-1,3
 234 102 234 102 234 49.5 c 128,-1,4
 234 -3 234 -3 201.5 -41.5 c 128,-1,5
 169 -80 169 -80 111 -115 c 1,6,-1
 24 -102 l 1,7,-1
 93 -9 l 1,8,9
 60 -2 60 -2 45.5 14 c 128,-1,10
 31 30 31 30 31 69.5 c 128,-1,0
 31 109 31 109 56 128.5 c 128,-1,1
EndSplineSet
EndChar

StartChar: quotedblbase
Encoding: 8222 8222 228
Width: 488
Flags: HMW
HStem: -115 21G<111 111 329 329> 128 20G<98.5 171.5 316.5 389.5>
LayerCount: 2
Fore
SplineSet
56 128.5 m 128,-1,1
 81 148 81 148 134.5 148 c 128,-1,2
 188 148 188 148 211 125 c 128,-1,3
 234 102 234 102 234 49.5 c 128,-1,4
 234 -3 234 -3 201.5 -41.5 c 128,-1,5
 169 -80 169 -80 111 -115 c 1,6,-1
 24 -102 l 1,7,-1
 93 -9 l 1,8,9
 60 -2 60 -2 45.5 14 c 128,-1,10
 31 30 31 30 31 69.5 c 128,-1,0
 31 109 31 109 56 128.5 c 128,-1,1
274 128.5 m 128,-1,12
 299 148 299 148 352.5 148 c 128,-1,13
 406 148 406 148 429 125 c 128,-1,14
 452 102 452 102 452 49.5 c 128,-1,15
 452 -3 452 -3 419.5 -41.5 c 128,-1,16
 387 -80 387 -80 329 -115 c 1,17,-1
 242 -102 l 1,18,-1
 311 -9 l 1,19,20
 278 -2 278 -2 263.5 14 c 128,-1,21
 249 30 249 30 249 69.5 c 128,-1,11
 249 109 249 109 274 128.5 c 128,-1,12
EndSplineSet
EndChar

StartChar: guillemotleft
Encoding: 171 171 229
Width: 585
Flags: HMW
HStem: -1 21G<202 202 448 448> 462 20G<208 208 454 454>
LayerCount: 2
Fore
SplineSet
4 205 m 1,0,-1
 4 271 l 1,1,-1
 208 482 l 1,2,-1
 316 413 l 1,3,-1
 200 242 l 1,4,-1
 319 71 l 1,5,-1
 202 -1 l 1,6,-1
 4 205 l 1,0,-1
250 205 m 1,7,-1
 250 271 l 1,8,-1
 454 482 l 1,9,-1
 562 413 l 1,10,-1
 446 242 l 1,11,-1
 565 71 l 1,12,-1
 448 -1 l 1,13,-1
 250 205 l 1,7,-1
EndSplineSet
EndChar

StartChar: guillemotright
Encoding: 187 187 230
Width: 585
Flags: HMW
HStem: -1 21G<131 131 377 377> 462 20G<137 137 383 383>
LayerCount: 2
Fore
SplineSet
581 276 m 1,0,-1
 581 210 l 1,1,-1
 377 -1 l 1,2,-1
 269 68 l 1,3,-1
 385 239 l 1,4,-1
 266 410 l 1,5,-1
 383 482 l 1,6,-1
 581 276 l 1,0,-1
335 276 m 1,7,-1
 335 210 l 1,8,-1
 131 -1 l 1,9,-1
 23 68 l 1,10,-1
 139 239 l 1,11,-1
 20 410 l 1,12,-1
 137 482 l 1,13,-1
 335 276 l 1,7,-1
EndSplineSet
EndChar

StartChar: guilsinglleft
Encoding: 8249 8249 231
Width: 339
Flags: HMW
HStem: -1 21G<202 202> 462 20G<208 208>
LayerCount: 2
Fore
SplineSet
4 205 m 1,0,-1
 4 271 l 1,1,-1
 208 482 l 1,2,-1
 316 413 l 1,3,-1
 200 242 l 1,4,-1
 319 71 l 1,5,-1
 202 -1 l 1,6,-1
 4 205 l 1,0,-1
EndSplineSet
EndChar

StartChar: guilsinglright
Encoding: 8250 8250 232
Width: 339
Flags: HMW
HStem: -1 21G<131 131> 462 20G<137 137>
LayerCount: 2
Fore
SplineSet
335 276 m 1,0,-1
 335 210 l 1,1,-1
 131 -1 l 1,2,-1
 23 68 l 1,3,-1
 139 239 l 1,4,-1
 20 410 l 1,5,-1
 137 482 l 1,6,-1
 335 276 l 1,0,-1
EndSplineSet
EndChar

StartChar: hyphen
Encoding: 45 45 233
Width: 403
Flags: HMW
HStem: 179 162<32 371 32 371>
LayerCount: 2
Fore
SplineSet
371 179 m 1,0,-1
 32 179 l 1,1,-1
 32 341 l 1,2,-1
 371 341 l 1,3,-1
 371 179 l 1,0,-1
EndSplineSet
EndChar

StartChar: endash
Encoding: 8211 8211 234
Width: 407
Flags: HMW
HStem: 167 162<32 375 32 375>
LayerCount: 2
Fore
SplineSet
32 167 m 1,0,-1
 32 329 l 1,1,-1
 375 329 l 1,2,-1
 375 167 l 1,3,-1
 32 167 l 1,0,-1
EndSplineSet
EndChar

StartChar: emdash
Encoding: 8212 8212 235
Width: 600
Flags: HMW
HStem: 167 162<32 568 32 568>
LayerCount: 2
Fore
SplineSet
32 167 m 1,0,-1
 32 329 l 1,1,-1
 568 329 l 1,2,-1
 568 167 l 1,3,-1
 32 167 l 1,0,-1
EndSplineSet
EndChar

StartChar: underscore
Encoding: 95 95 236
Width: 400
Flags: HMW
HStem: -137 115<0 400 0 400>
LayerCount: 2
Fore
SplineSet
400 -137 m 1,0,-1
 0 -137 l 1,1,-1
 0 -22 l 1,2,-1
 400 -22 l 1,3,-1
 400 -137 l 1,0,-1
EndSplineSet
EndChar

StartChar: parenleft
Encoding: 40 40 237
Width: 388
Flags: HMW
HStem: -147 21G<210 210> 625 20G<216 216>
LayerCount: 2
Fore
SplineSet
216 645 m 1,0,-1
 372 597 l 1,1,2
 254 440 254 440 254 259.5 c 0,3,4
 254 79 254 79 372 -108 c 1,5,-1
 210 -147 l 1,6,7
 119 -58 119 -58 71.5 33.5 c 128,-1,8
 24 125 24 125 24 252 c 0,9,10
 24 379 24 379 71 472 c 128,-1,11
 118 565 118 565 216 645 c 1,0,-1
EndSplineSet
EndChar

StartChar: parenright
Encoding: 41 41 238
Width: 388
Flags: HMW
HStem: -147 21G<177 177> 625 20G<173 173>
LayerCount: 2
Fore
SplineSet
316.5 470.5 m 128,-1,1
 364 376 364 376 364 252.5 c 128,-1,2
 364 129 364 129 315.5 34.5 c 128,-1,3
 267 -60 267 -60 177 -147 c 1,4,-1
 16 -108 l 1,5,6
 135 65 135 65 135 251.5 c 128,-1,7
 135 438 135 438 16 596 c 1,8,-1
 173 645 l 1,9,0
 269 565 269 565 316.5 470.5 c 128,-1,1
EndSplineSet
EndChar

StartChar: bracketleft
Encoding: 91 91 239
Width: 379
Flags: HMW
HStem: -137 140<263 335 263 335> 490 141<263 335 263 263>
LayerCount: 2
Fore
SplineSet
335 -137 m 1,0,-1
 52 -137 l 1,1,-1
 52 631 l 1,2,-1
 335 631 l 1,3,-1
 335 490 l 1,4,-1
 263 490 l 1,5,-1
 263 3 l 1,6,-1
 335 3 l 1,7,-1
 335 -137 l 1,0,-1
EndSplineSet
EndChar

StartChar: bracketright
Encoding: 93 93 240
Width: 380
Flags: HMW
HStem: -137 140<44 118 44 328 44 118> 490 141<44 118 44 328>
LayerCount: 2
Fore
SplineSet
328 -137 m 1,0,-1
 44 -137 l 1,1,-1
 44 3 l 1,2,-1
 118 3 l 1,3,-1
 118 490 l 1,4,-1
 44 490 l 1,5,-1
 44 631 l 1,6,-1
 328 631 l 1,7,-1
 328 -137 l 1,0,-1
EndSplineSet
EndChar

StartChar: braceleft
Encoding: 123 123 241
Width: 394
Flags: HMW
HStem: -137 139<165 350 274 350 274 350> 487 144<274 350 274 274>
LayerCount: 2
Fore
SplineSet
350 -137 m 1,0,-1
 217 -137 l 2,1,2
 139 -137 139 -137 105.5 -106.5 c 128,-1,3
 72 -76 72 -76 72 -4 c 2,4,-1
 72 154 l 2,5,6
 72 175 72 175 61.5 179 c 128,-1,7
 51 183 51 183 12 183 c 1,8,-1
 12 322 l 1,9,10
 52 322 52 322 62 326 c 128,-1,11
 72 330 72 330 72 350 c 2,12,-1
 72 490 l 2,13,14
 72 568 72 568 104.5 599.5 c 128,-1,15
 137 631 137 631 217 631 c 2,16,-1
 350 631 l 1,17,-1
 350 487 l 1,18,-1
 274 487 l 1,19,-1
 274 329 l 2,20,21
 274 295 274 295 265 281 c 128,-1,22
 256 267 256 267 232 254 c 1,23,-1
 232 248 l 1,24,25
 254 237 254 237 264 221 c 128,-1,26
 274 205 274 205 274 174 c 2,27,-1
 274 2 l 1,28,-1
 350 2 l 1,29,-1
 350 -137 l 1,0,-1
EndSplineSet
EndChar

StartChar: braceright
Encoding: 125 125 242
Width: 394
Flags: HMW
HStem: -137 139<44 120 44 177 44 120> 487 144<44 120 44 177>
LayerCount: 2
Fore
SplineSet
177 -137 m 2,0,-1
 44 -137 l 1,1,-1
 44 2 l 1,2,-1
 120 2 l 1,3,-1
 120 174 l 2,4,5
 120 205 120 205 130 221 c 128,-1,6
 140 237 140 237 162 248 c 1,7,-1
 162 254 l 1,8,9
 138 267 138 267 129 281 c 128,-1,10
 120 295 120 295 120 329 c 2,11,-1
 120 487 l 1,12,-1
 44 487 l 1,13,-1
 44 631 l 1,14,-1
 177 631 l 2,15,16
 257 631 257 631 289.5 599.5 c 128,-1,17
 322 568 322 568 322 490 c 2,18,-1
 322 350 l 2,19,20
 322 330 322 330 331.5 326 c 128,-1,21
 341 322 341 322 382 322 c 1,22,-1
 382 183 l 1,23,24
 343 183 343 183 332.5 179 c 128,-1,25
 322 175 322 175 322 154 c 2,26,-1
 322 -4 l 2,27,28
 322 -76 322 -76 288.5 -106.5 c 128,-1,29
 255 -137 255 -137 177 -137 c 2,0,-1
EndSplineSet
EndChar

StartChar: slash
Encoding: 47 47 243
Width: 417
Flags: HMW
HStem: -142 21G<-15 189 -15 -15> 596 20G<227 432 432 432>
LayerCount: 2
Fore
SplineSet
432 616 m 1,0,-1
 189 -142 l 1,1,-1
 -15 -142 l 1,2,-1
 227 616 l 1,3,-1
 432 616 l 1,0,-1
EndSplineSet
EndChar

StartChar: backslash
Encoding: 92 92 244
Width: 417
Flags: HMW
HStem: -142 21G<228 228 228 432> 596 20G<-15 190 190 190>
LayerCount: 2
Fore
SplineSet
228 -142 m 1,0,-1
 -15 616 l 1,1,-1
 190 616 l 1,2,-1
 432 -142 l 1,3,-1
 228 -142 l 1,0,-1
EndSplineSet
EndChar

StartChar: bar
Encoding: 124 124 245
Width: 377
Flags: HMW
HStem: -142 21G<90 287 90 90> 596 20G<90 287 287 287>
VStem: 90 197<-142 616>
LayerCount: 2
Fore
SplineSet
287 -142 m 1,0,-1
 90 -142 l 1,1,-1
 90 616 l 1,2,-1
 287 616 l 1,3,-1
 287 -142 l 1,0,-1
EndSplineSet
EndChar

StartChar: brokenbar
Encoding: 166 166 246
Width: 377
Flags: HMW
HStem: -142 21G<90 287 90 90> 596 20G<90 287 287 287>
VStem: 90 197<-142 177 325 616>
LayerCount: 2
Fore
SplineSet
287 -142 m 1,0,-1
 90 -142 l 1,1,-1
 90 177 l 1,2,-1
 287 177 l 1,3,-1
 287 -142 l 1,0,-1
287 616 m 1,4,-1
 287 325 l 1,5,-1
 90 325 l 1,6,-1
 90 616 l 1,7,-1
 287 616 l 1,4,-1
EndSplineSet
EndChar

StartChar: fraction
Encoding: 8260 8260 247
Width: 417
Flags: HMW
HStem: -142 21G<-15 189 -15 -15> 596 20G<227 432 432 432>
LayerCount: 2
Fore
SplineSet
432 616 m 1,0,-1
 189 -142 l 1,1,-1
 -15 -142 l 1,2,-1
 227 616 l 1,3,-1
 432 616 l 1,0,-1
EndSplineSet
EndChar

StartChar: grave
Encoding: 96 96 248
Width: 500
Flags: HMW
HStem: 517 130<237 237 237 311 110 379>
LayerCount: 2
Fore
SplineSet
237 517 m 1,0,-1
 110 647 l 1,1,-1
 311 647 l 1,2,-1
 379 517 l 1,3,-1
 237 517 l 1,0,-1
EndSplineSet
EndChar

StartChar: circumflex
Encoding: 710 710 249
Width: 500
Flags: HMW
HStem: 511 131<161 215 83 339 286 339 161 417 286 286>
LayerCount: 2
Fore
SplineSet
339 642 m 1,0,-1
 417 511 l 1,1,-1
 286 511 l 1,2,-1
 251 563 l 1,3,-1
 215 511 l 1,4,-1
 83 511 l 1,5,-1
 161 642 l 1,6,-1
 339 642 l 1,0,-1
EndSplineSet
EndChar

StartChar: acute
Encoding: 180 180 250
Width: 500
Flags: HMW
HStem: 517 130<237 312 173 451>
LayerCount: 2
Fore
SplineSet
451 647 m 1,0,-1
 312 517 l 1,1,-1
 173 517 l 1,2,-1
 237 647 l 1,3,-1
 451 647 l 1,0,-1
EndSplineSet
EndChar

StartChar: dieresis
Encoding: 168 168 251
Width: 500
Flags: HMW
HStem: 510 131<134 184.5 320 370.5>
VStem: 82 155<553 597.5 553 597.5> 268 155<553 597.5 553 597.5>
LayerCount: 2
Fore
SplineSet
82 576 m 0,0,1
 82 608 82 608 102 624.5 c 128,-1,2
 122 641 122 641 157 641 c 0,3,4
 237 641 237 641 237 576 c 0,5,6
 237 542 237 542 217.5 526 c 128,-1,7
 198 510 198 510 157 510 c 0,8,9
 82 510 82 510 82 576 c 0,0,1
268 576 m 0,10,11
 268 608 268 608 288 624.5 c 128,-1,12
 308 641 308 641 343 641 c 0,13,14
 423 641 423 641 423 576 c 0,15,16
 423 542 423 542 403.5 526 c 128,-1,17
 384 510 384 510 343 510 c 0,18,19
 268 510 268 510 268 576 c 0,10,11
EndSplineSet
EndChar

StartChar: tilde
Encoding: 732 732 252
Width: 500
Flags: HMW
HStem: 503 154<82 433>
LayerCount: 2
Fore
SplineSet
433 657 m 1,0,-1
 433 645 l 2,1,2
 433 579 433 579 411.5 544 c 128,-1,3
 390 509 390 509 326 509 c 0,4,5
 289 509 289 509 215 535 c 1,6,-1
 215 503 l 1,7,-1
 82 503 l 1,8,-1
 82 516 l 2,9,10
 82 583 82 583 104.5 617.5 c 128,-1,11
 127 652 127 652 184 652 c 0,12,13
 214 652 214 652 300 626 c 1,14,-1
 300 657 l 1,15,-1
 433 657 l 1,0,-1
EndSplineSet
EndChar

StartChar: caron
Encoding: 711 711 253
Width: 500
Flags: HMW
HStem: 515 131<161 161 161 214 285 339>
LayerCount: 2
Fore
SplineSet
161 515 m 1,0,-1
 83 646 l 1,1,-1
 214 646 l 1,2,-1
 249 594 l 1,3,-1
 285 646 l 1,4,-1
 417 646 l 1,5,-1
 339 515 l 1,6,-1
 161 515 l 1,0,-1
EndSplineSet
EndChar

StartChar: ring
Encoding: 730 730 254
Width: 500
Flags: HMW
HStem: 505 55<245.5 261.5 245.5 288.5> 614 54<245.5 261>
VStem: 273 83<578.5 593.5>
LayerCount: 2
Fore
SplineSet
253 614 m 128,-1,1
 233 614 233 614 233 587 c 128,-1,2
 233 560 233 560 253 560 c 128,-1,3
 273 560 273 560 273 587 c 128,-1,0
 273 614 273 614 253 614 c 128,-1,1
151 584 m 0,4,5
 151 668 151 668 253.5 668 c 128,-1,6
 356 668 356 668 356 589 c 0,7,8
 356 505 356 505 253 505 c 0,9,10
 203 505 203 505 177 526 c 128,-1,11
 151 547 151 547 151 584 c 0,4,5
EndSplineSet
EndChar

StartChar: dotaccent
Encoding: 729 729 255
Width: 500
Flags: HMW
HStem: 488 167<227.5 296 227.5 296>
LayerCount: 2
Fore
SplineSet
154 570 m 0,0,1
 154 655 154 655 261 655 c 128,-1,2
 368 655 368 655 368 570 c 0,3,4
 368 526 368 526 341.5 507 c 128,-1,5
 315 488 315 488 261 488 c 128,-1,6
 207 488 207 488 180.5 506.5 c 128,-1,7
 154 525 154 525 154 570 c 0,0,1
EndSplineSet
EndChar

StartChar: hungarumlaut
Encoding: 733 733 256
Width: 500
Flags: HMW
HStem: 520 136<142 173 62 303 243 243 243 303 330 355>
LayerCount: 2
Fore
SplineSet
303 656 m 1,0,-1
 173 520 l 1,1,-1
 62 520 l 1,2,-1
 142 656 l 1,3,-1
 303 656 l 1,0,-1
501 656 m 1,4,-1
 355 520 l 1,5,-1
 243 520 l 1,6,-1
 330 656 l 1,7,-1
 501 656 l 1,4,-1
EndSplineSet
EndChar

StartChar: cedilla
Encoding: 184 184 257
Width: 500
Flags: HMW
HStem: -168 168<248 303.5>
VStem: 212 166<-118.5 -29.5>
LayerCount: 2
Fore
SplineSet
378 -94 m 0,0,1
 378 -168 378 -168 269 -168 c 0,2,3
 204 -168 204 -168 160 -138 c 1,4,-1
 197 -67 l 1,5,6
 243 -98 243 -98 267 -98 c 0,7,8
 274 -98 274 -98 274 -92 c 0,9,10
 274 -88 274 -88 261 -81 c 2,11,-1
 235 -69 l 1,12,13
 212 -56 212 -56 212 -36.5 c 0,14,15
 212 -17 212 -17 234 0 c 1,16,-1
 323 0 l 1,17,18
 308 -15 308 -15 308 -21 c 0,19,20
 308 -24 308 -24 325.5 -31 c 128,-1,21
 343 -38 343 -38 360.5 -53.5 c 128,-1,22
 378 -69 378 -69 378 -94 c 0,0,1
EndSplineSet
EndChar

StartChar: ogonek
Encoding: 731 731 258
Width: 570
Flags: HMW
HStem: -168 168<241 290.5>
LayerCount: 2
Fore
SplineSet
175 -96 m 0,0,1
 175 -47 175 -47 241 0 c 1,2,-1
 350 0 l 1,3,4
 296 -56 296 -56 296 -77 c 0,5,6
 296 -82 296 -82 305.5 -82 c 0,7,8
 315 -82 315 -82 347 -63 c 1,9,-1
 377 -133 l 1,10,11
 327 -168 327 -168 266 -168 c 0,12,13
 175 -168 175 -168 175 -96 c 0,0,1
EndSplineSet
EndChar

StartChar: macron
Encoding: 175 175 259
Width: 500
Flags: HMW
HStem: 521 121<98 413 98 413>
LayerCount: 2
Fore
SplineSet
413 521 m 1,0,-1
 98 521 l 1,1,-1
 98 642 l 1,2,-1
 413 642 l 1,3,-1
 413 521 l 1,0,-1
EndSplineSet
EndChar

StartChar: breve
Encoding: 728 728 260
Width: 500
Flags: HMW
HStem: 498 116<241.5 261.5 241.5 299.5> 498 162<197 227 275 299.5>
LayerCount: 2
Fore
SplineSet
252 614 m 0,0,1
 275 614 275 614 275 660 c 1,2,-1
 410 660 l 1,3,4
 406 498 406 498 248 498 c 128,-1,5
 90 498 90 498 90 660 c 1,6,-1
 227 660 l 1,7,8
 227 614 227 614 252 614 c 0,0,1
EndSplineSet
EndChar

StartChar: asciicircum
Encoding: 94 94 261
Width: 500
Flags: HMW
HStem: 511 131<161 215 83 339 286 339 161 417 286 286>
LayerCount: 2
Fore
SplineSet
339 642 m 1,0,-1
 417 511 l 1,1,-1
 286 511 l 1,2,-1
 251 563 l 1,3,-1
 215 511 l 1,4,-1
 83 511 l 1,5,-1
 161 642 l 1,6,-1
 339 642 l 1,0,-1
EndSplineSet
EndChar

StartChar: asciitilde
Encoding: 126 126 262
Width: 500
Flags: HMW
HStem: 503 154<82 433>
LayerCount: 2
Fore
SplineSet
433 657 m 1,0,-1
 433 645 l 2,1,2
 433 579 433 579 411.5 544 c 128,-1,3
 390 509 390 509 326 509 c 0,4,5
 289 509 289 509 215 535 c 1,6,-1
 215 503 l 1,7,-1
 82 503 l 1,8,-1
 82 516 l 2,9,10
 82 583 82 583 104.5 617.5 c 128,-1,11
 127 652 127 652 184 652 c 0,12,13
 214 652 214 652 300 626 c 1,14,-1
 300 657 l 1,15,-1
 433 657 l 1,0,-1
EndSplineSet
EndChar

StartChar: bullet
Encoding: 8226 8226 265
Width: 413
Flags: HMW
HStem: 179 21G<169 250> 410 20G<164 251.5>
LayerCount: 2
Fore
SplineSet
114 209 m 128,-1,1
 82 239 82 239 82 303.5 c 128,-1,2
 82 368 82 368 112.5 399 c 128,-1,3
 143 430 143 430 207.5 430 c 128,-1,4
 272 430 272 430 301.5 399.5 c 128,-1,5
 331 369 331 369 331 306 c 0,6,7
 331 179 331 179 209 179 c 0,8,0
 146 179 146 179 114 209 c 128,-1,1
EndSplineSet
EndChar

StartChar: commaaccent
Encoding: 65538 -1 266
Width: 500
Flags: HMW
HStem: -164 21G<253 253> -30 20G<226.5 277.5>
VStem: 170 164<-79.5 -54 -96 -47>
LayerCount: 2
Fore
SplineSet
252 -10 m 0,0,1
 290 -10 290 -10 312 -27 c 128,-1,2
 334 -44 334 -44 334 -74 c 0,3,4
 334 -130 334 -130 253 -164 c 1,5,-1
 178 -155 l 1,6,-1
 220 -113 l 1,7,8
 170 -104 170 -104 170 -65 c 0,9,10
 170 -10 170 -10 252 -10 c 0,0,1
EndSplineSet
EndChar

StartChar: dotaccentcmb
Encoding: 775 775 267
Width: 500
Flags: HMW
HStem: 488 167<215.5 284 215.5 284>
LayerCount: 2
Fore
SplineSet
142 570 m 0,0,1
 142 655 142 655 249 655 c 128,-1,2
 356 655 356 655 356 570 c 0,3,4
 356 526 356 526 329.5 507 c 128,-1,5
 303 488 303 488 249 488 c 128,-1,6
 195 488 195 488 168.5 506.5 c 128,-1,7
 142 525 142 525 142 570 c 0,0,1
EndSplineSet
EndChar

StartChar: currency
Encoding: 164 164 268
Width: 779
Flags: HMW
HStem: 72 50<351 430> 490 52<349 434.5 349 450.5>
VStem: 161 58<289 321.5> 565 62<288.5 323 288.5 363>
LayerCount: 2
Fore
SplineSet
84 76 m 1,0,-1
 54 126 l 1,1,-1
 178 198 l 1,2,3
 161 252 161 252 161 301 c 128,-1,4
 161 350 161 350 173 395 c 1,5,-1
 48 468 l 1,6,-1
 79 521 l 1,7,-1
 199 452 l 1,8,9
 268 542 268 542 393.5 542 c 128,-1,10
 519 542 519 542 587 454 c 1,11,-1
 701 521 l 1,12,-1
 731 468 l 1,13,-1
 614 400 l 1,14,15
 627 355 627 355 627 305 c 128,-1,16
 627 255 627 255 607 197 c 1,17,-1
 727 126 l 1,18,-1
 695 75 l 1,19,-1
 575 146 l 1,20,21
 506 72 506 72 390 72 c 128,-1,22
 274 72 274 72 206 148 c 1,23,24
 163.454545455 124.363636364 163.454545455 124.363636364 84 76 c 1,0,-1
391 122 m 0,25,26
 565 122 565 122 565 306 c 0,27,28
 565 394 565 394 521.5 442 c 128,-1,29
 478 490 478 490 391 490 c 0,30,31
 219 490 219 490 219 305 c 0,32,33
 219 214 219 214 264 168 c 128,-1,34
 309 122 309 122 391 122 c 0,25,26
EndSplineSet
EndChar

StartChar: foundryicon
Encoding: 65539 -1 269
Width: 1241
Flags: HMW
HStem: 23 21G<640.5 691> 273 52<139 386 138 401 139 139 455 455 455 635 950 1151> 521 48<509.5 570 488.5 577.5 770 827.5>
VStem: 380 52<376 420.5 367 441.5> 905 52<376 421> 1151 50<157 273 273 273 325 441 157 441>
LayerCount: 2
Fore
SplineSet
186 157 m 1,0,-1
 40 300 l 1,1,-1
 186 441 l 1,2,-1
 226 409 l 1,3,-1
 138 325 l 1,4,-1
 386 325 l 1,5,6
 380 355 380 355 380 387 c 0,7,8
 380 469 380 469 422.5 519 c 128,-1,9
 465 569 465 569 535 569 c 0,10,11
 584 569 584 569 613.5 552.5 c 128,-1,12
 643 536 643 536 668 501 c 1,13,14
 714 569 714 569 804 569 c 0,15,16
 875 569 875 569 916 519 c 128,-1,17
 957 469 957 469 957 387 c 0,18,19
 957 360 957 360 950 325 c 1,20,-1
 1151 325 l 1,21,-1
 1151 441 l 1,22,-1
 1201 441 l 1,23,-1
 1201 157 l 1,24,-1
 1151 157 l 1,25,-1
 1151 273 l 1,26,-1
 935 273 l 1,27,28
 895 171 895 171 804 97 c 128,-1,29
 713 23 713 23 665.5 23 c 0,30,31
 618 23 618 23 529 96.5 c 128,-1,32
 440 170 440 170 401 273 c 1,33,-1
 139 273 l 1,34,-1
 226 188 l 1,35,-1
 186 157 l 1,0,-1
668 73 m 1,36,37
 695 77 695 77 734 103.5 c 128,-1,38
 773 130 773 130 811.5 170 c 128,-1,39
 850 210 850 210 877.5 266.5 c 128,-1,40
 905 323 905 323 905 383.5 c 0,41,42
 905 444 905 444 875 482.5 c 128,-1,43
 845 521 845 521 790 521 c 0,44,45
 707 521 707 521 676 437 c 1,46,-1
 660 437 l 1,47,48
 629 521 629 521 546 521 c 0,49,50
 492 521 492 521 462 482 c 128,-1,51
 432 443 432 443 432 376 c 0,52,53
 432 352 432 352 437 325 c 1,54,-1
 635 325 l 1,55,-1
 635 273 l 1,56,-1
 455 273 l 1,57,58
 488 196 488 196 554.5 138 c 128,-1,59
 621 80 621 80 668 73 c 1,36,37
EndSplineSet
EndChar

